<svg width="1777" height="363" viewBox="0 0 1777 363" fill="none" xmlns="http://www.w3.org/2000/svg">
<rect width="1777" height="363" fill="#333333"/>
<g clip-path="url(#clip0_0_1)">
<rect width="1777" height="1556" transform="translate(0 -23)" fill="#171718"/>
<rect y="-21" width="1777" height="438" fill="#0D1117"/>
<g clip-path="url(#clip1_0_1)">
<path d="M2366.62 416.414L2367.03 416.244L1846.39 -236.23L1846.17 -236.139C1834.71 -253.159 1810.78 -265 1782.85 -265C1754.17 -265 1729.6 -252.581 1718.53 -234.814L1372.05 199.398L1287.22 93.089L1287.11 93.1343C1281.07 84.16 1268.46 77.9051 1253.71 77.9051C1238.61 77.9051 1225.66 84.4546 1219.82 93.7915L972.519 403.746H971.407V405.128L947.463 435.133C944.691 437.762 943 441.003 943 444.561C943 453.218 952.694 460.232 964.642 460.232C967.022 460.232 969.262 459.892 971.407 459.37V460.402H1237.63H1550.83H2333.83V459.835C2354.95 458.611 2371.61 445.966 2371.61 430.363C2371.63 425.286 2369.7 420.595 2366.62 416.414Z" fill="#161B22"/>
<g clip-path="url(#clip2_0_1)">
<path d="M1200.65 271.593L1201.13 273.72C1201.13 274.429 1201.37 274.901 1201.85 275.61V276.082L1201.61 276.791L1199.93 277.736L1199.45 277.973L1198.73 277.736L1197.77 276.555L1197.05 275.137C1195.13 277.264 1192.73 278.445 1190.09 278.445C1187.92 278.445 1186.24 277.736 1185.28 276.555C1184.08 275.61 1183.36 273.956 1183.36 272.066C1183.36 270.176 1184.08 268.522 1185.52 267.341C1186.96 265.923 1188.88 265.451 1191.53 265.451C1193.31 265.441 1195.09 265.68 1196.81 266.159V264.505C1196.81 262.615 1196.33 261.434 1195.61 260.725C1194.89 259.78 1193.69 259.544 1191.77 259.544L1189.12 259.78C1187.97 260.07 1186.84 260.466 1185.76 260.962H1185.28C1185.04 260.962 1184.8 260.725 1184.8 260.253V259.071L1185.04 258.363C1185.04 258.126 1185.28 257.89 1185.76 257.89L1188.64 256.709L1192.49 256.236C1195.37 256.236 1197.29 256.945 1198.73 258.126C1199.93 259.544 1200.65 261.434 1200.65 264.033V271.593ZM1191.05 275.374L1193.45 274.901C1194.41 274.665 1195.13 273.956 1195.85 273.247L1196.57 271.83L1196.81 269.703V268.758C1195.31 268.431 1193.78 268.272 1192.25 268.286C1190.81 268.286 1189.61 268.522 1188.64 269.231C1187.92 269.703 1187.68 270.648 1187.68 271.83C1187.68 273.011 1187.92 273.72 1188.4 274.429C1189.12 274.901 1189.85 275.374 1191.05 275.374ZM1210.26 277.736L1209.3 277.5L1208.82 276.791L1203.29 258.363L1203.05 257.418L1203.53 256.945H1205.93L1206.89 257.181L1207.37 258.126L1211.46 273.72L1215.06 258.126L1215.54 257.181L1216.5 256.945H1218.42L1219.38 257.181L1219.86 258.126L1223.7 273.956L1227.79 258.126L1228.27 257.181L1229.23 256.945H1231.39C1231.87 256.945 1232.11 257.181 1232.11 257.418V257.89L1231.87 258.363L1226.11 276.791L1225.62 277.736L1224.66 277.973H1222.5L1221.54 277.736L1221.3 276.791L1217.46 261.434L1213.86 276.555L1213.38 277.5L1212.42 277.736H1210.26ZM1241.23 278.445C1238.99 278.428 1236.79 277.945 1234.75 277.027L1234.03 276.319L1233.79 275.846V274.665C1233.79 274.192 1234.03 273.956 1234.27 273.956H1234.75L1235.47 274.192C1237.2 274.981 1239.09 275.384 1240.99 275.374C1242.43 275.374 1243.63 274.901 1244.36 274.429C1245.32 273.956 1245.56 273.247 1245.56 272.302L1245.08 270.648L1242.67 269.467L1239.07 268.286C1237.39 267.813 1235.95 266.868 1235.23 265.923C1234.76 265.322 1234.42 264.634 1234.23 263.902C1234.04 263.169 1234 262.406 1234.11 261.658C1234.22 260.909 1234.48 260.19 1234.88 259.543C1235.28 258.896 1235.81 258.334 1236.43 257.89L1238.83 256.709C1240.37 256.189 1242.02 256.027 1243.63 256.236C1244.61 256.419 1245.57 256.656 1246.52 256.945L1247.48 257.418L1248.2 257.89L1248.44 258.835V259.78C1248.44 260.489 1248.2 260.725 1247.96 260.725L1247 260.253C1245.56 259.78 1244.12 259.544 1242.43 259.544C1240.99 259.544 1239.79 259.544 1239.07 260.016C1238.35 260.489 1238.11 261.198 1238.11 262.143C1238.11 262.852 1238.35 263.324 1238.83 263.797C1239.31 264.269 1240.03 264.742 1241.47 265.214L1244.84 266.159C1246.52 266.868 1247.72 267.577 1248.44 268.522C1249.16 269.467 1249.64 270.648 1249.64 271.83L1248.92 274.665L1247.24 276.555C1246.52 277.264 1245.56 277.736 1244.6 277.973L1241.23 278.445Z" fill="white"/>
<path fill-rule="evenodd" clip-rule="evenodd" d="M1245.8 290.022C1236 296.459 1224.3 299.49 1212.55 298.634C1200.8 297.778 1189.69 293.083 1180.96 285.297C1180 284.588 1180.72 283.879 1181.44 284.352C1190.98 289.669 1201.63 292.773 1212.57 293.429C1223.52 294.084 1234.47 292.272 1244.6 288.132C1245.8 287.659 1247 289.077 1245.8 290.022Z" fill="#FF9900"/>
<path fill-rule="evenodd" clip-rule="evenodd" d="M1248.92 286.242C1247.96 285.06 1242.19 285.533 1239.79 286.005C1238.83 286.005 1238.83 285.297 1239.55 284.824C1244.12 281.753 1251.56 282.698 1252.28 283.643C1253.24 284.824 1252.04 292.148 1247.96 295.692C1247.24 296.165 1246.52 295.929 1246.76 295.22C1247.96 292.857 1249.88 287.423 1248.92 286.242Z" fill="#FF9900"/>
</g>
</g>
<path d="M619.274 137.95V125.273H679.004V137.95H656.738V198H641.539V137.95H619.274ZM676.892 198V143.455H691.559V152.972H692.127C693.121 149.586 694.79 147.029 697.134 145.301C699.478 143.549 702.176 142.673 705.23 142.673C705.988 142.673 706.805 142.721 707.681 142.815C708.557 142.91 709.326 143.04 709.989 143.206V156.629C709.279 156.416 708.296 156.227 707.042 156.061C705.787 155.895 704.639 155.812 703.597 155.812C701.372 155.812 699.383 156.298 697.631 157.268C695.903 158.215 694.53 159.541 693.512 161.246C692.517 162.95 692.02 164.915 692.02 167.141V198H676.892ZM711.81 198V143.455H726.938V198H711.81ZM719.41 136.423C717.161 136.423 715.231 135.678 713.621 134.186C712.035 132.671 711.242 130.86 711.242 128.753C711.242 126.67 712.035 124.882 713.621 123.391C715.231 121.875 717.161 121.118 719.41 121.118C721.659 121.118 723.576 121.875 725.163 123.391C726.772 124.882 727.577 126.67 727.577 128.753C727.577 130.86 726.772 132.671 725.163 134.186C723.576 135.678 721.659 136.423 719.41 136.423ZM778.44 159.009L764.591 159.861C764.354 158.677 763.845 157.612 763.064 156.665C762.282 155.694 761.252 154.925 759.974 154.357C758.719 153.765 757.216 153.469 755.464 153.469C753.12 153.469 751.144 153.966 749.534 154.96C747.924 155.931 747.119 157.233 747.119 158.866C747.119 160.169 747.64 161.269 748.681 162.169C749.723 163.069 751.511 163.791 754.044 164.335L763.916 166.324C769.219 167.413 773.172 169.165 775.777 171.58C778.381 173.994 779.683 177.167 779.683 181.097C779.683 184.671 778.629 187.808 776.522 190.507C774.439 193.206 771.574 195.313 767.929 196.828C764.306 198.32 760.128 199.065 755.393 199.065C748.172 199.065 742.42 197.562 738.135 194.555C733.873 191.525 731.376 187.406 730.642 182.197L745.521 181.416C745.971 183.618 747.06 185.299 748.788 186.459C750.516 187.595 752.73 188.163 755.429 188.163C758.08 188.163 760.211 187.654 761.821 186.636C763.454 185.595 764.283 184.257 764.306 182.624C764.283 181.25 763.703 180.126 762.566 179.25C761.43 178.35 759.678 177.664 757.311 177.19L747.865 175.308C742.538 174.243 738.573 172.396 735.968 169.768C733.388 167.141 732.098 163.791 732.098 159.719C732.098 156.215 733.045 153.196 734.939 150.663C736.856 148.13 739.543 146.177 743 144.804C746.48 143.431 750.552 142.744 755.216 142.744C762.105 142.744 767.526 144.2 771.48 147.112C775.457 150.024 777.777 153.99 778.44 159.009ZM812.222 143.455V154.818H779.374V143.455H812.222ZM786.831 130.386H801.959V181.239C801.959 182.635 802.172 183.724 802.598 184.506C803.024 185.263 803.616 185.796 804.374 186.104C805.155 186.411 806.054 186.565 807.072 186.565C807.783 186.565 808.493 186.506 809.203 186.388C809.913 186.246 810.458 186.139 810.837 186.068L813.216 197.325C812.458 197.562 811.393 197.834 810.02 198.142C808.647 198.473 806.978 198.675 805.013 198.746C801.367 198.888 798.171 198.402 795.425 197.29C792.702 196.177 790.583 194.449 789.068 192.105C787.553 189.761 786.807 186.802 786.831 183.227V130.386ZM831.63 199.03C828.15 199.03 825.049 198.426 822.326 197.219C819.603 195.988 817.449 194.177 815.863 191.786C814.3 189.371 813.519 186.364 813.519 182.766C813.519 179.735 814.076 177.19 815.188 175.131C816.301 173.071 817.816 171.414 819.734 170.159C821.651 168.904 823.829 167.957 826.268 167.318C828.73 166.679 831.31 166.229 834.009 165.969C837.182 165.637 839.738 165.33 841.68 165.045C843.621 164.738 845.03 164.288 845.906 163.696C846.781 163.104 847.219 162.228 847.219 161.068V160.855C847.219 158.606 846.509 156.866 845.089 155.635C843.692 154.404 841.703 153.788 839.123 153.788C836.4 153.788 834.234 154.392 832.624 155.599C831.014 156.783 829.949 158.275 829.428 160.074L815.437 158.938C816.147 155.623 817.544 152.759 819.627 150.344C821.71 147.905 824.397 146.035 827.688 144.733C831.003 143.407 834.838 142.744 839.194 142.744C842.224 142.744 845.124 143.099 847.894 143.81C850.688 144.52 853.162 145.621 855.316 147.112C857.494 148.604 859.21 150.521 860.465 152.865C861.72 155.185 862.347 157.967 862.347 161.21V198H848.001V190.436H847.575C846.699 192.141 845.527 193.644 844.059 194.946C842.591 196.224 840.827 197.231 838.768 197.964C836.708 198.675 834.329 199.03 831.63 199.03ZM835.962 188.589C838.188 188.589 840.153 188.152 841.857 187.276C843.562 186.376 844.899 185.169 845.87 183.653C846.841 182.138 847.326 180.422 847.326 178.504V172.716C846.853 173.024 846.201 173.308 845.373 173.568C844.568 173.805 843.656 174.03 842.638 174.243C841.621 174.432 840.603 174.61 839.585 174.776C838.567 174.918 837.643 175.048 836.815 175.166C835.039 175.427 833.488 175.841 832.163 176.409C830.837 176.977 829.807 177.747 829.073 178.717C828.339 179.664 827.972 180.848 827.972 182.268C827.972 184.328 828.718 185.902 830.21 186.991C831.725 188.057 833.642 188.589 835.962 188.589ZM883.212 166.466V198H868.084V143.455H882.501V153.078H883.141C884.348 149.906 886.372 147.396 889.213 145.55C892.054 143.679 895.499 142.744 899.547 142.744C903.335 142.744 906.637 143.573 909.455 145.23C912.272 146.887 914.462 149.255 916.024 152.332C917.587 155.386 918.368 159.032 918.368 163.27V198H903.24V165.969C903.264 162.631 902.411 160.027 900.683 158.156C898.955 156.262 896.576 155.315 893.545 155.315C891.509 155.315 889.71 155.753 888.148 156.629C886.609 157.505 885.402 158.784 884.526 160.464C883.673 162.122 883.235 164.122 883.212 166.466ZM954.859 125.273L972.437 180.528H973.112L990.725 125.273H1007.77L982.7 198H962.884L937.778 125.273H954.859ZM1010.24 198V143.455H1025.37V198H1010.24ZM1017.84 136.423C1015.59 136.423 1013.66 135.678 1012.05 134.186C1010.46 132.671 1009.67 130.86 1009.67 128.753C1009.67 126.67 1010.46 124.882 1012.05 123.391C1013.66 121.875 1015.59 121.118 1017.84 121.118C1020.09 121.118 1022.01 121.875 1023.59 123.391C1025.2 124.882 1026.01 126.67 1026.01 128.753C1026.01 130.86 1025.2 132.671 1023.59 134.186C1022.01 135.678 1020.09 136.423 1017.84 136.423ZM1051.59 198.888C1047.44 198.888 1043.69 197.822 1040.33 195.692C1036.99 193.537 1034.34 190.377 1032.37 186.21C1030.43 182.02 1029.46 176.883 1029.46 170.798C1029.46 164.548 1030.47 159.352 1032.48 155.209C1034.49 151.042 1037.17 147.929 1040.51 145.869C1043.87 143.786 1047.55 142.744 1051.55 142.744C1054.6 142.744 1057.15 143.265 1059.19 144.307C1061.24 145.325 1062.9 146.603 1064.16 148.142C1065.44 149.657 1066.41 151.149 1067.07 152.616H1067.53V125.273H1082.62V198H1067.71V189.264H1067.07C1066.36 190.779 1065.35 192.283 1064.05 193.774C1062.77 195.242 1061.1 196.461 1059.04 197.432C1057.01 198.402 1054.52 198.888 1051.59 198.888ZM1056.38 186.849C1058.82 186.849 1060.88 186.187 1062.56 184.861C1064.26 183.511 1065.57 181.629 1066.46 179.214C1067.39 176.8 1067.85 173.971 1067.85 170.727C1067.85 167.484 1067.4 164.667 1066.5 162.276C1065.6 159.884 1064.3 158.038 1062.59 156.736C1060.89 155.434 1058.82 154.783 1056.38 154.783C1053.89 154.783 1051.8 155.457 1050.09 156.807C1048.39 158.156 1047.1 160.027 1046.22 162.418C1045.35 164.809 1044.91 167.579 1044.91 170.727C1044.91 173.9 1045.35 176.705 1046.22 179.143C1047.12 181.558 1048.41 183.452 1050.09 184.825C1051.8 186.175 1053.89 186.849 1056.38 186.849ZM1104.61 199.03C1101.13 199.03 1098.03 198.426 1095.31 197.219C1092.59 195.988 1090.43 194.177 1088.85 191.786C1087.28 189.371 1086.5 186.364 1086.5 182.766C1086.5 179.735 1087.06 177.19 1088.17 175.131C1089.29 173.071 1090.8 171.414 1092.72 170.159C1094.64 168.904 1096.81 167.957 1099.25 167.318C1101.71 166.679 1104.29 166.229 1106.99 165.969C1110.17 165.637 1112.72 165.33 1114.66 165.045C1116.61 164.738 1118.01 164.288 1118.89 163.696C1119.77 163.104 1120.2 162.228 1120.2 161.068V160.855C1120.2 158.606 1119.49 156.866 1118.07 155.635C1116.68 154.404 1114.69 153.788 1112.11 153.788C1109.38 153.788 1107.22 154.392 1105.61 155.599C1104 156.783 1102.93 158.275 1102.41 160.074L1088.42 158.938C1089.13 155.623 1090.53 152.759 1092.61 150.344C1094.69 147.905 1097.38 146.035 1100.67 144.733C1103.99 143.407 1107.82 142.744 1112.18 142.744C1115.21 142.744 1118.11 143.099 1120.88 143.81C1123.67 144.52 1126.15 145.621 1128.3 147.112C1130.48 148.604 1132.19 150.521 1133.45 152.865C1134.7 155.185 1135.33 157.967 1135.33 161.21V198H1120.99V190.436H1120.56C1119.68 192.141 1118.51 193.644 1117.04 194.946C1115.58 196.224 1113.81 197.231 1111.75 197.964C1109.69 198.675 1107.31 199.03 1104.61 199.03ZM1108.95 188.589C1111.17 188.589 1113.14 188.152 1114.84 187.276C1116.55 186.376 1117.88 185.169 1118.85 183.653C1119.83 182.138 1120.31 180.422 1120.31 178.504V172.716C1119.84 173.024 1119.19 173.308 1118.36 173.568C1117.55 173.805 1116.64 174.03 1115.62 174.243C1114.6 174.432 1113.59 174.61 1112.57 174.776C1111.55 174.918 1110.63 175.048 1109.8 175.166C1108.02 175.427 1106.47 175.841 1105.15 176.409C1103.82 176.977 1102.79 177.747 1102.06 178.717C1101.32 179.664 1100.96 180.848 1100.96 182.268C1100.96 184.328 1101.7 185.902 1103.19 186.991C1104.71 188.057 1106.63 188.589 1108.95 188.589ZM1156.2 125.273V198H1141.07V125.273H1156.2Z" fill="white"/>
<g clip-path="url(#clip3_0_1)">
<path d="M585.332 265.234C584.693 265.016 584.049 264.814 583.401 264.628C583.51 264.184 583.61 263.746 583.699 263.315C585.161 256.246 584.205 250.552 580.941 248.676C577.811 246.879 572.692 248.753 567.522 253.235C567.012 253.677 566.514 254.132 566.028 254.6C565.702 254.289 565.371 253.984 565.034 253.686C559.615 248.894 554.184 246.874 550.923 248.755C547.796 250.558 546.87 255.911 548.186 262.611C548.317 263.274 548.465 263.935 548.63 264.591C547.861 264.808 547.119 265.04 546.409 265.286C540.057 267.492 536 270.949 536 274.535C536 278.239 540.355 281.954 546.972 284.206C547.508 284.388 548.049 284.557 548.594 284.712C548.417 285.418 548.26 286.13 548.123 286.845C546.868 293.428 547.848 298.655 550.966 300.447C554.188 302.297 559.594 300.396 564.859 295.812C565.285 295.439 565.703 295.056 566.111 294.663C566.637 295.169 567.178 295.66 567.732 296.137C572.832 300.507 577.868 302.272 580.984 300.475C584.202 298.62 585.248 293.004 583.89 286.173C583.783 285.637 583.663 285.105 583.531 284.575C583.91 284.463 584.283 284.348 584.646 284.228C591.525 281.958 596 278.288 596 274.535C596 270.936 591.812 267.456 585.332 265.234ZM583.84 281.805C583.512 281.913 583.175 282.017 582.832 282.119C582.073 279.724 581.048 277.178 579.794 274.548C580.991 271.98 581.976 269.466 582.714 267.087C583.328 267.264 583.924 267.451 584.498 267.648C590.05 269.552 593.437 272.366 593.437 274.535C593.437 276.846 589.779 279.845 583.84 281.805ZM581.376 286.669C581.976 289.689 582.062 292.421 581.664 294.556C581.307 296.475 580.588 297.754 579.7 298.266C577.809 299.356 573.765 297.939 569.404 294.201C568.889 293.759 568.386 293.302 567.896 292.831C569.586 290.989 571.276 288.848 572.925 286.471C575.826 286.214 578.566 285.795 581.051 285.223C581.173 285.715 581.282 286.197 581.376 286.669ZM556.455 298.078C554.608 298.727 553.137 298.746 552.247 298.235C550.355 297.148 549.568 292.951 550.641 287.321C550.769 286.656 550.915 285.994 551.079 285.337C553.537 285.879 556.257 286.268 559.164 286.503C560.825 288.83 562.563 290.968 564.315 292.841C563.943 293.2 563.562 293.55 563.172 293.89C560.844 295.916 558.511 297.355 556.455 298.078ZM547.801 281.791C544.875 280.795 542.459 279.5 540.803 278.087C539.315 276.818 538.563 275.558 538.563 274.535C538.563 272.359 541.82 269.583 547.253 267.697C547.912 267.468 548.602 267.252 549.318 267.05C550.069 269.482 551.054 272.026 552.243 274.597C551.039 277.207 550.04 279.791 549.282 282.253C548.784 282.111 548.291 281.957 547.801 281.791ZM550.702 262.12C549.574 256.381 550.323 252.051 552.208 250.964C554.215 249.807 558.654 251.457 563.332 255.595C563.637 255.865 563.937 256.141 564.232 256.422C562.489 258.287 560.766 260.41 559.121 262.722C556.299 262.983 553.598 263.401 551.114 263.962C550.961 263.352 550.824 262.738 550.702 262.12ZM576.583 268.486C575.997 267.477 575.388 266.48 574.759 265.497C576.673 265.738 578.507 266.058 580.23 266.45C579.713 268.101 579.068 269.827 578.309 271.596C577.755 270.548 577.179 269.511 576.583 268.486ZM566.029 258.247C567.211 259.523 568.395 260.947 569.56 262.492C567.197 262.381 564.831 262.381 562.468 262.491C563.634 260.96 564.828 259.537 566.029 258.247ZM555.407 268.504C554.818 269.52 554.253 270.551 553.713 271.594C552.967 269.831 552.328 268.097 551.806 266.423C553.518 266.041 555.344 265.729 557.246 265.493C556.609 266.482 555.996 267.486 555.407 268.504ZM557.301 283.76C555.335 283.541 553.483 283.245 551.771 282.874C552.301 281.17 552.954 279.399 553.716 277.598C554.258 278.642 554.826 279.673 555.417 280.691C556.025 281.736 556.654 282.761 557.301 283.76ZM566.1 291.004C564.885 289.698 563.673 288.254 562.49 286.7C563.638 286.745 564.81 286.768 566 286.768C567.223 286.768 568.432 286.741 569.622 286.688C568.453 288.269 567.274 289.716 566.1 291.004ZM578.334 277.506C579.136 279.327 579.811 281.089 580.348 282.764C578.609 283.159 576.73 283.478 574.751 283.714C575.385 282.713 576 281.699 576.593 280.673C577.197 279.631 577.777 278.575 578.334 277.506ZM574.373 279.398C573.464 280.97 572.504 282.513 571.495 284.023C569.666 284.152 567.833 284.216 566 284.215C564.133 284.215 562.317 284.158 560.568 284.045C559.532 282.538 558.553 280.992 557.635 279.412C556.721 277.839 555.867 276.233 555.075 274.596C555.865 272.959 556.716 271.352 557.627 269.779L557.627 269.779C558.538 268.205 559.508 266.666 560.536 265.166C562.321 265.031 564.151 264.961 566 264.961C567.857 264.961 569.69 265.032 571.474 265.167C572.491 266.666 573.456 268.199 574.365 269.765C575.279 271.335 576.141 272.934 576.951 274.56C576.15 276.203 575.29 277.816 574.373 279.398ZM579.661 250.888C581.67 252.042 582.451 256.697 581.189 262.8C581.108 263.189 581.018 263.586 580.919 263.988C578.43 263.416 575.727 262.99 572.896 262.726C571.248 260.387 569.54 258.261 567.825 256.421C568.274 255.989 568.734 255.569 569.205 255.16C573.634 251.321 577.774 249.805 579.661 250.888ZM566 269.199C568.959 269.199 571.358 271.588 571.358 274.535C571.358 277.483 568.959 279.872 566 279.872C563.041 279.872 560.642 277.483 560.642 274.535C560.642 271.588 563.041 269.199 566 269.199Z" fill="#00D8FF"/>
</g>
<path d="M671.685 249.75C684.76 249.75 683.944 255.42 683.944 255.42L683.928 261.294H671.452V263.056H688.886C688.886 263.056 697.25 262.107 697.25 275.3C697.25 288.491 689.948 288.024 689.948 288.024H685.59V281.902C685.59 281.902 685.825 274.6 678.404 274.6H666.031C666.031 274.6 659.079 274.713 659.079 267.881V256.585C659.079 256.585 658.023 249.75 671.685 249.75ZM678.565 253.699C677.97 253.699 677.399 253.936 676.978 254.357C676.557 254.778 676.32 255.349 676.32 255.944C676.32 256.54 676.557 257.111 676.978 257.532C677.399 257.953 677.97 258.19 678.565 258.19C678.86 258.19 679.152 258.132 679.425 258.02C679.697 257.907 679.945 257.741 680.154 257.533C680.362 257.324 680.528 257.077 680.64 256.804C680.753 256.532 680.811 256.239 680.81 255.944C680.81 254.704 679.806 253.699 678.565 253.699Z" fill="url(#paint0_linear_0_1)"/>
<path d="M671.315 300.981C658.24 300.981 659.056 295.311 659.056 295.311L659.072 289.437H671.548V287.675H654.116C654.116 287.675 645.75 288.624 645.75 275.432C645.75 262.24 653.052 262.709 653.052 262.709H657.41V268.829C657.41 268.829 657.175 276.131 664.596 276.131H676.969C676.969 276.131 683.921 276.018 683.921 282.85V294.146C683.921 294.146 684.977 300.981 671.315 300.981ZM664.435 297.032C664.73 297.032 665.022 296.974 665.294 296.862C665.567 296.749 665.815 296.584 666.023 296.375C666.232 296.167 666.397 295.919 666.51 295.646C666.623 295.374 666.68 295.082 666.68 294.787C666.68 294.343 666.548 293.91 666.301 293.541C666.055 293.172 665.704 292.885 665.294 292.715C664.884 292.546 664.433 292.501 663.998 292.588C663.563 292.675 663.164 292.888 662.85 293.202C662.536 293.516 662.323 293.915 662.236 294.35C662.15 294.785 662.194 295.236 662.363 295.646C662.533 296.056 662.82 296.406 663.189 296.653C663.558 296.9 663.991 297.032 664.435 297.032Z" fill="url(#paint1_linear_0_1)"/>
<g clip-path="url(#clip4_0_1)">
<path d="M785 300.905C784.286 300.905 783.619 300.718 783 300.391L776.667 296.696C775.714 296.182 776.19 295.995 776.476 295.901C777.762 295.48 778 295.387 779.333 294.638C779.476 294.545 779.667 294.592 779.809 294.685L784.667 297.538C784.857 297.632 785.095 297.632 785.238 297.538L804.238 286.735C804.429 286.642 804.524 286.455 804.524 286.221V264.661C804.524 264.427 804.429 264.24 804.238 264.147L785.238 253.39C785.048 253.297 784.81 253.297 784.667 253.39L765.667 264.147C765.476 264.24 765.381 264.474 765.381 264.661V286.221C765.381 286.408 765.476 286.642 765.667 286.735L770.857 289.681C773.667 291.084 775.428 289.447 775.428 287.811V266.532C775.428 266.251 775.667 265.97 776 265.97H778.429C778.714 265.97 779 266.204 779 266.532V287.81C779 291.505 776.952 293.656 773.381 293.656C772.286 293.656 771.429 293.656 769 292.487L764 289.681C762.762 288.98 762 287.67 762 286.267V264.708C762 263.305 762.762 261.996 764 261.294L783 250.491C784.191 249.836 785.809 249.836 787 250.491L806 261.294C807.238 261.996 808 263.305 808 264.708V286.267C808 287.67 807.238 288.98 806 289.681L787 300.485C786.381 300.765 785.667 300.906 785 300.906V300.905ZM790.857 286.08C782.524 286.08 780.81 282.339 780.81 279.159C780.81 278.878 781.048 278.598 781.381 278.598H783.857C784.143 278.598 784.381 278.785 784.381 279.065C784.762 281.544 785.857 282.76 790.905 282.76C794.905 282.76 796.619 281.871 796.619 279.767C796.619 278.551 796.143 277.662 789.905 277.054C784.714 276.54 781.476 275.417 781.476 271.349C781.476 267.561 784.714 265.316 790.143 265.316C796.238 265.316 799.238 267.374 799.619 271.863C799.619 272.003 799.571 272.144 799.476 272.284C799.381 272.378 799.238 272.471 799.095 272.471H796.619C796.381 272.471 796.143 272.284 796.095 272.05C795.524 269.478 794.048 268.636 790.143 268.636C785.762 268.636 785.238 270.133 785.238 271.255C785.238 272.612 785.857 273.032 791.762 273.781C797.619 274.529 800.381 275.605 800.381 279.627C800.333 283.742 796.905 286.08 790.857 286.08Z" fill="#539E43"/>
</g>
<g clip-path="url(#clip5_0_1)">
<path d="M897.785 272.777H902.908C902.969 272.777 903.028 272.765 903.084 272.742C903.14 272.719 903.19 272.685 903.233 272.642C903.276 272.6 903.309 272.549 903.333 272.493C903.356 272.438 903.367 272.378 903.367 272.318V267.774C903.367 267.714 903.356 267.654 903.333 267.598C903.309 267.543 903.276 267.492 903.233 267.449C903.19 267.407 903.14 267.373 903.084 267.35C903.028 267.327 902.969 267.315 902.908 267.315H897.785C897.67 267.315 897.559 267.361 897.477 267.442C897.396 267.524 897.35 267.635 897.35 267.75V272.342C897.35 272.583 897.543 272.777 897.785 272.777ZM890.656 259.654H895.779C895.897 259.648 896.007 259.597 896.088 259.511C896.169 259.426 896.214 259.313 896.214 259.195V254.628C896.208 254.514 896.161 254.407 896.08 254.326C896 254.246 895.893 254.198 895.779 254.193H890.656C890.597 254.189 890.538 254.198 890.482 254.218C890.426 254.239 890.375 254.27 890.332 254.311C890.289 254.352 890.255 254.401 890.232 254.455C890.209 254.51 890.197 254.568 890.197 254.628V259.219C890.197 259.461 890.414 259.654 890.656 259.654ZM890.656 266.203H895.779C895.893 266.198 896 266.15 896.08 266.069C896.161 265.989 896.208 265.882 896.214 265.768V261.201C896.208 261.087 896.161 260.98 896.08 260.9C896 260.819 895.893 260.772 895.779 260.766H890.656C890.597 260.763 890.538 260.771 890.482 260.792C890.426 260.812 890.375 260.844 890.332 260.884C890.289 260.925 890.255 260.974 890.232 261.029C890.209 261.083 890.197 261.142 890.197 261.201V265.768C890.197 266.01 890.414 266.203 890.656 266.203ZM883.575 266.203H888.698C888.812 266.198 888.919 266.15 888.999 266.069C889.08 265.989 889.127 265.882 889.133 265.768V261.201C889.133 261.085 889.087 260.975 889.006 260.893C888.924 260.812 888.814 260.766 888.698 260.766H883.575C883.46 260.766 883.349 260.812 883.267 260.893C883.186 260.975 883.14 261.085 883.14 261.201V265.768C883.14 266.01 883.333 266.203 883.575 266.203ZM876.422 266.203H881.521C881.639 266.204 881.752 266.158 881.837 266.078C881.923 265.997 881.974 265.886 881.98 265.768V261.201C881.98 261.142 881.968 261.083 881.945 261.029C881.921 260.974 881.887 260.925 881.844 260.884C881.801 260.844 881.75 260.812 881.695 260.792C881.639 260.771 881.58 260.763 881.521 260.766H876.422C876.304 260.766 876.191 260.811 876.105 260.892C876.02 260.973 875.969 261.083 875.962 261.201V265.768C875.962 266.01 876.156 266.203 876.422 266.203ZM890.656 272.777H895.779C895.897 272.77 896.007 272.719 896.088 272.634C896.169 272.548 896.214 272.435 896.214 272.318V267.774C896.214 267.656 896.169 267.543 896.088 267.458C896.007 267.372 895.897 267.321 895.779 267.315H890.656C890.597 267.312 890.538 267.321 890.482 267.341C890.426 267.361 890.375 267.393 890.332 267.434C890.289 267.474 890.255 267.523 890.232 267.578C890.209 267.632 890.197 267.691 890.197 267.75V272.342C890.197 272.583 890.414 272.777 890.656 272.777ZM883.575 272.777H888.698C888.758 272.777 888.816 272.765 888.871 272.741C888.925 272.718 888.974 272.684 889.015 272.641C889.056 272.598 889.087 272.547 889.107 272.491C889.128 272.436 889.137 272.377 889.133 272.318V267.774C889.137 267.715 889.128 267.656 889.107 267.6C889.087 267.545 889.056 267.494 889.015 267.451C888.974 267.408 888.925 267.374 888.871 267.35C888.816 267.327 888.758 267.315 888.698 267.315H883.575C883.46 267.315 883.349 267.361 883.267 267.442C883.186 267.524 883.14 267.635 883.14 267.75V272.342C883.14 272.583 883.333 272.777 883.575 272.777ZM876.422 272.777H881.521C881.582 272.78 881.643 272.771 881.701 272.749C881.758 272.727 881.81 272.693 881.853 272.65C881.897 272.607 881.93 272.555 881.952 272.497C881.974 272.44 881.983 272.379 881.98 272.318V267.774C881.983 267.715 881.974 267.656 881.954 267.6C881.934 267.545 881.902 267.494 881.861 267.451C881.821 267.408 881.772 267.374 881.717 267.35C881.663 267.327 881.604 267.315 881.545 267.315H876.422C876.3 267.315 876.183 267.363 876.097 267.449C876.011 267.536 875.962 267.652 875.962 267.774V272.318C875.962 272.559 876.156 272.777 876.422 272.777ZM869.365 272.777H874.488C874.548 272.777 874.606 272.765 874.661 272.741C874.715 272.718 874.764 272.684 874.805 272.641C874.846 272.598 874.877 272.547 874.897 272.491C874.918 272.436 874.927 272.377 874.923 272.318V267.774C874.927 267.715 874.918 267.656 874.897 267.6C874.877 267.545 874.846 267.494 874.805 267.451C874.764 267.408 874.715 267.374 874.661 267.35C874.606 267.327 874.548 267.315 874.488 267.315H869.365C869.306 267.312 869.247 267.321 869.191 267.341C869.135 267.361 869.085 267.393 869.042 267.434C868.999 267.474 868.964 267.523 868.941 267.578C868.918 267.632 868.906 267.691 868.906 267.75V272.342C868.906 272.583 869.099 272.777 869.365 272.777ZM921.42 269.901C921.275 269.78 919.801 268.668 916.707 268.668C915.886 268.668 915.064 268.741 914.267 268.886C914.052 267.616 913.571 266.405 912.854 265.335C912.138 264.264 911.203 263.358 910.11 262.675L909.288 262.192L908.732 262.989C908.057 264.051 907.567 265.219 907.282 266.445C906.702 268.789 907.041 270.988 908.249 272.873C906.918 273.481 905.482 273.826 904.02 273.888H865.837C865.597 273.885 865.358 273.93 865.136 274.019C864.913 274.109 864.71 274.242 864.539 274.411C864.368 274.579 864.233 274.78 864.14 275.002C864.048 275.223 864 275.461 864 275.701C863.962 279.047 864.536 282.372 865.692 285.513C866.727 288.604 868.769 291.259 871.492 293.052C874.343 294.817 878.983 295.808 884.252 295.808C886.62 295.808 888.988 295.614 891.332 295.179C894.577 294.574 897.697 293.43 900.564 291.796C902.93 290.431 905.06 288.692 906.872 286.648C909.892 283.217 911.705 279.398 913.034 276.015H913.59C916.901 276.015 918.931 274.686 920.067 273.598C920.792 272.873 921.396 272.003 921.758 271.037L922 270.36L921.42 269.901Z" fill="#008FE2"/>
</g>
<g clip-path="url(#clip6_0_1)">
<path d="M1018.13 257.137C1013.11 249.968 1003.19 247.843 996.021 252.4L983.426 260.407C981.725 261.474 980.266 262.884 979.142 264.546C978.018 266.208 977.254 268.086 976.899 270.059C976.298 273.383 976.826 276.812 978.399 279.803C977.321 281.434 976.586 283.266 976.238 285.189C975.879 287.202 975.927 289.266 976.378 291.261C976.83 293.255 977.677 295.139 978.868 296.803C983.891 303.973 993.809 306.097 1000.98 301.54L1013.57 293.534C1015.27 292.466 1016.73 291.056 1017.86 289.394C1018.98 287.732 1019.75 285.854 1020.1 283.881C1020.7 280.557 1020.17 277.128 1018.6 274.137C1019.68 272.506 1020.41 270.674 1020.76 268.751C1021.12 266.738 1021.07 264.674 1020.62 262.679C1020.17 260.685 1019.32 258.801 1018.13 257.137Z" fill="#FF3E00"/>
<path d="M994.789 297.485C990.728 298.538 986.44 296.953 984.048 293.514C983.331 292.514 982.822 291.38 982.55 290.18C982.279 288.98 982.25 287.739 982.466 286.528C982.539 286.13 982.639 285.738 982.767 285.354L983.004 284.633L983.649 285.106C985.14 286.198 986.807 287.029 988.578 287.561L989.046 287.703L989.003 288.169C988.945 288.832 989.125 289.494 989.511 290.038C989.862 290.543 990.361 290.929 990.939 291.143C991.517 291.357 992.148 291.389 992.745 291.235C993.018 291.162 993.279 291.047 993.519 290.895L1006.12 282.888C1006.43 282.694 1006.69 282.439 1006.89 282.138C1007.1 281.836 1007.24 281.496 1007.3 281.139C1007.37 280.774 1007.36 280.4 1007.27 280.038C1007.19 279.676 1007.04 279.335 1006.82 279.033C1006.47 278.527 1005.97 278.141 1005.39 277.927C1004.82 277.713 1004.19 277.681 1003.59 277.835C1003.32 277.908 1003.05 278.022 1002.82 278.174L998.008 281.231C997.218 281.732 996.355 282.11 995.45 282.351C991.389 283.404 987.101 281.819 984.71 278.38C983.993 277.379 983.483 276.246 983.212 275.046C982.94 273.846 982.911 272.605 983.127 271.394C983.34 270.207 983.8 269.077 984.476 268.078C985.152 267.078 986.03 266.23 987.054 265.588L999.651 257.58C1000.44 257.078 1001.31 256.699 1002.21 256.458C1006.27 255.405 1010.56 256.99 1012.95 260.429C1013.67 261.429 1014.18 262.563 1014.45 263.763C1014.72 264.963 1014.75 266.204 1014.53 267.415C1014.46 267.813 1014.36 268.205 1014.23 268.589L1014 269.31L1013.35 268.838C1011.86 267.745 1010.19 266.914 1008.42 266.381L1007.95 266.239L1008 265.773C1008.05 265.11 1007.87 264.449 1007.49 263.905C1007.14 263.399 1006.64 263.014 1006.06 262.799C1005.48 262.585 1004.85 262.553 1004.26 262.708C1003.98 262.781 1003.72 262.895 1003.48 263.047L990.883 271.055C990.575 271.249 990.31 271.504 990.107 271.805C989.903 272.106 989.764 272.446 989.7 272.804C989.635 273.169 989.644 273.543 989.725 273.905C989.807 274.266 989.96 274.608 990.176 274.91C990.528 275.416 991.027 275.802 991.605 276.016C992.184 276.23 992.814 276.262 993.411 276.108C993.685 276.035 993.946 275.92 994.185 275.769L998.992 272.713C999.782 272.211 1000.64 271.833 1001.55 271.592C1005.61 270.539 1009.9 272.124 1012.29 275.563C1013.01 276.563 1013.52 277.697 1013.79 278.897C1014.06 280.096 1014.09 281.338 1013.87 282.549C1013.66 283.736 1013.2 284.866 1012.52 285.866C1011.85 286.865 1010.97 287.714 1009.95 288.356L997.349 296.363C996.558 296.865 995.695 297.244 994.789 297.485Z" fill="white"/>
</g>
<g clip-path="url(#clip7_0_1)">
<path d="M1107 254C1098.47 254 1093.13 258.322 1091 266.966C1094.2 262.644 1097.93 261.023 1102.2 262.104C1104.63 262.72 1106.37 264.509 1108.3 266.49C1111.44 269.716 1115.07 273.449 1123 273.449C1131.53 273.449 1136.87 269.127 1139 260.483C1135.8 264.805 1132.07 266.426 1127.8 265.345C1125.37 264.729 1123.63 262.94 1121.7 260.96C1118.56 257.734 1114.93 254 1107 254ZM1091 273.449C1082.47 273.449 1077.13 277.772 1075 286.416C1078.2 282.093 1081.93 280.473 1086.2 281.553C1088.63 282.17 1090.37 283.959 1092.3 285.939C1095.44 289.165 1099.07 292.899 1107 292.899C1115.53 292.899 1120.87 288.577 1123 279.932C1119.8 284.255 1116.07 285.875 1111.8 284.795C1109.37 284.178 1107.63 282.389 1105.7 280.409C1102.56 277.183 1098.93 273.449 1091 273.449Z" fill="url(#paint2_linear_0_1)"/>
</g>
</g>
<defs>
<linearGradient id="paint0_linear_0_1" x1="692.301" y1="254.227" x2="666.836" y2="279.778" gradientUnits="userSpaceOnUse">
<stop stop-color="#387EB8"/>
<stop offset="1" stop-color="#366994"/>
</linearGradient>
<linearGradient id="paint1_linear_0_1" x1="676.636" y1="270.482" x2="649.286" y2="296.684" gradientUnits="userSpaceOnUse">
<stop stop-color="#FFE052"/>
<stop offset="1" stop-color="#FFC331"/>
</linearGradient>
<linearGradient id="paint2_linear_0_1" x1="897.208" y1="1498.76" x2="6460.01" y2="4665.05" gradientUnits="userSpaceOnUse">
<stop stop-color="#2298BD"/>
<stop offset="1" stop-color="#0ED7B5"/>
</linearGradient>
<clipPath id="clip0_0_1">
<rect width="1777" height="1556" fill="white" transform="translate(0 -23)"/>
</clipPath>
<clipPath id="clip1_0_1">
<rect width="1566" height="1133.12" fill="white" transform="translate(686 -489)"/>
</clipPath>
<clipPath id="clip2_0_1">
<rect width="73" height="43" fill="white" transform="translate(1180 256)"/>
</clipPath>
<clipPath id="clip3_0_1">
<rect width="60" height="53.2258" fill="white" transform="translate(536 248)"/>
</clipPath>
<clipPath id="clip4_0_1">
<rect width="46" height="51" fill="white" transform="translate(762 250)"/>
</clipPath>
<clipPath id="clip5_0_1">
<rect width="58" height="58" fill="white" transform="translate(864 246)"/>
</clipPath>
<clipPath id="clip6_0_1">
<rect width="45" height="54" fill="white" transform="translate(976 250)"/>
</clipPath>
<clipPath id="clip7_0_1">
<rect width="64" height="39" fill="white" transform="translate(1075 254)"/>
</clipPath>
</defs>
</svg>
