<svg width="1777" height="353" viewBox="0 0 1777 353" fill="none" xmlns="http://www.w3.org/2000/svg">
<rect width="1777" height="353" fill="#333333"/>
<g clip-path="url(#clip0_0_1)">
<rect width="1777" height="1556" transform="translate(0 -47)" fill="#171718"/>
<rect y="-45" width="1777" height="438" fill="#0D1117"/>
<g clip-path="url(#clip1_0_1)">
<path d="M2327.62 392.414L2328.03 392.244L1807.39 -260.23L1807.17 -260.139C1795.71 -277.159 1771.78 -289 1743.85 -289C1715.17 -289 1690.6 -276.581 1679.53 -258.814L1333.05 175.398L1248.22 69.089L1248.11 69.1343C1242.07 60.16 1229.46 53.9051 1214.71 53.9051C1199.61 53.9051 1186.66 60.4546 1180.82 69.7915L933.519 379.746H932.407V381.128L908.463 411.133C905.691 413.762 904 417.003 904 420.561C904 429.218 913.694 436.232 925.642 436.232C928.022 436.232 930.262 435.892 932.407 435.37V436.402H1198.63H1511.83H2294.83V435.835C2315.95 434.611 2332.61 421.966 2332.61 406.363C2332.63 401.286 2330.7 396.595 2327.62 392.414Z" fill="#161B22"/>
</g>
<path d="M619.274 156.432V143.754H679.004V156.432H656.738V216.482H641.539V156.432H619.274ZM676.892 216.482V161.936H691.559V171.453H692.127C693.121 168.068 694.79 165.511 697.134 163.783C699.478 162.031 702.176 161.155 705.23 161.155C705.988 161.155 706.805 161.202 707.681 161.297C708.557 161.392 709.326 161.522 709.989 161.688V175.111C709.279 174.898 708.296 174.708 707.042 174.543C705.787 174.377 704.639 174.294 703.597 174.294C701.372 174.294 699.383 174.779 697.631 175.75C695.903 176.697 694.53 178.023 693.512 179.727C692.517 181.432 692.02 183.397 692.02 185.622V216.482H676.892ZM711.81 216.482V161.936H726.938V216.482H711.81ZM719.41 154.905C717.161 154.905 715.231 154.159 713.621 152.668C712.035 151.152 711.242 149.341 711.242 147.234C711.242 145.151 712.035 143.364 713.621 141.872C715.231 140.357 717.161 139.599 719.41 139.599C721.659 139.599 723.576 140.357 725.163 141.872C726.772 143.364 727.577 145.151 727.577 147.234C727.577 149.341 726.772 151.152 725.163 152.668C723.576 154.159 721.659 154.905 719.41 154.905ZM778.44 177.49L764.591 178.342C764.354 177.159 763.845 176.093 763.064 175.146C762.282 174.176 761.252 173.406 759.974 172.838C758.719 172.246 757.216 171.95 755.464 171.95C753.12 171.95 751.144 172.447 749.534 173.442C747.924 174.412 747.119 175.715 747.119 177.348C747.119 178.65 747.64 179.751 748.681 180.651C749.723 181.55 751.511 182.272 754.044 182.817L763.916 184.805C769.219 185.894 773.172 187.646 775.777 190.061C778.381 192.476 779.683 195.648 779.683 199.578C779.683 203.153 778.629 206.29 776.522 208.989C774.439 211.688 771.574 213.795 767.929 215.31C764.306 216.801 760.128 217.547 755.393 217.547C748.172 217.547 742.42 216.044 738.135 213.037C733.873 210.007 731.376 205.887 730.642 200.679L745.521 199.898C745.971 202.099 747.06 203.78 748.788 204.94C750.516 206.077 752.73 206.645 755.429 206.645C758.08 206.645 760.211 206.136 761.821 205.118C763.454 204.076 764.283 202.739 764.306 201.105C764.283 199.732 763.703 198.608 762.566 197.732C761.43 196.832 759.678 196.145 757.311 195.672L747.865 193.79C742.538 192.724 738.573 190.878 735.968 188.25C733.388 185.622 732.098 182.272 732.098 178.2C732.098 174.697 733.045 171.678 734.939 169.145C736.856 166.612 739.543 164.659 743 163.286C746.48 161.912 750.552 161.226 755.216 161.226C762.105 161.226 767.526 162.682 771.48 165.594C775.457 168.506 777.777 172.471 778.44 177.49ZM812.222 161.936V173.3H779.374V161.936H812.222ZM786.831 148.868H801.959V199.72C801.959 201.117 802.172 202.206 802.598 202.987C803.024 203.745 803.616 204.277 804.374 204.585C805.155 204.893 806.054 205.047 807.072 205.047C807.783 205.047 808.493 204.988 809.203 204.869C809.913 204.727 810.458 204.621 810.837 204.55L813.216 215.807C812.458 216.044 811.393 216.316 810.02 216.624C808.647 216.955 806.978 217.156 805.013 217.227C801.367 217.369 798.171 216.884 795.425 215.771C792.702 214.659 790.583 212.93 789.068 210.587C787.553 208.243 786.807 205.284 786.831 201.709V148.868ZM831.63 217.511C828.15 217.511 825.049 216.908 822.326 215.7C819.603 214.469 817.449 212.658 815.863 210.267C814.3 207.852 813.519 204.846 813.519 201.247C813.519 198.217 814.076 195.672 815.188 193.612C816.301 191.553 817.816 189.895 819.734 188.641C821.651 187.386 823.829 186.439 826.268 185.8C828.73 185.161 831.31 184.711 834.009 184.45C837.182 184.119 839.738 183.811 841.68 183.527C843.621 183.219 845.03 182.769 845.906 182.178C846.781 181.586 847.219 180.71 847.219 179.55V179.337C847.219 177.088 846.509 175.348 845.089 174.117C843.692 172.885 841.703 172.27 839.123 172.27C836.4 172.27 834.234 172.874 832.624 174.081C831.014 175.265 829.949 176.756 829.428 178.555L815.437 177.419C816.147 174.105 817.544 171.24 819.627 168.825C821.71 166.387 824.397 164.517 827.688 163.215C831.003 161.889 834.838 161.226 839.194 161.226C842.224 161.226 845.124 161.581 847.894 162.291C850.688 163.001 853.162 164.102 855.316 165.594C857.494 167.085 859.21 169.003 860.465 171.347C861.72 173.667 862.347 176.448 862.347 179.692V216.482H848.001V208.918H847.575C846.699 210.622 845.527 212.126 844.059 213.428C842.591 214.706 840.827 215.712 838.768 216.446C836.708 217.156 834.329 217.511 831.63 217.511ZM835.962 207.071C838.188 207.071 840.153 206.633 841.857 205.757C843.562 204.858 844.899 203.65 845.87 202.135C846.841 200.62 847.326 198.903 847.326 196.986V191.197C846.853 191.505 846.201 191.789 845.373 192.05C844.568 192.286 843.656 192.511 842.638 192.724C841.621 192.914 840.603 193.091 839.585 193.257C838.567 193.399 837.643 193.529 836.815 193.648C835.039 193.908 833.488 194.322 832.163 194.891C830.837 195.459 829.807 196.228 829.073 197.199C828.339 198.146 827.972 199.33 827.972 200.75C827.972 202.81 828.718 204.384 830.21 205.473C831.725 206.538 833.642 207.071 835.962 207.071ZM883.212 184.947V216.482H868.084V161.936H882.501V171.56H883.141C884.348 168.387 886.372 165.878 889.213 164.031C892.054 162.161 895.499 161.226 899.547 161.226C903.335 161.226 906.637 162.054 909.455 163.712C912.272 165.369 914.462 167.736 916.024 170.814C917.587 173.868 918.368 177.514 918.368 181.751V216.482H903.24V184.45C903.264 181.112 902.411 178.508 900.683 176.638C898.955 174.744 896.576 173.797 893.545 173.797C891.509 173.797 889.71 174.235 888.148 175.111C886.609 175.987 885.402 177.265 884.526 178.946C883.673 180.603 883.235 182.604 883.212 184.947ZM954.859 143.754L972.437 199.01H973.112L990.725 143.754H1007.77L982.7 216.482H962.884L937.778 143.754H954.859ZM1010.24 216.482V161.936H1025.37V216.482H1010.24ZM1017.84 154.905C1015.59 154.905 1013.66 154.159 1012.05 152.668C1010.46 151.152 1009.67 149.341 1009.67 147.234C1009.67 145.151 1010.46 143.364 1012.05 141.872C1013.66 140.357 1015.59 139.599 1017.84 139.599C1020.09 139.599 1022.01 140.357 1023.59 141.872C1025.2 143.364 1026.01 145.151 1026.01 147.234C1026.01 149.341 1025.2 151.152 1023.59 152.668C1022.01 154.159 1020.09 154.905 1017.84 154.905ZM1051.59 217.369C1047.44 217.369 1043.69 216.304 1040.33 214.173C1036.99 212.019 1034.34 208.858 1032.37 204.692C1030.43 200.501 1029.46 195.364 1029.46 189.28C1029.46 183.03 1030.47 177.833 1032.48 173.69C1034.49 169.524 1037.17 166.411 1040.51 164.351C1043.87 162.268 1047.55 161.226 1051.55 161.226C1054.6 161.226 1057.15 161.747 1059.19 162.788C1061.24 163.806 1062.9 165.085 1064.16 166.624C1065.44 168.139 1066.41 169.63 1067.07 171.098H1067.53V143.754H1082.62V216.482H1067.71V207.746H1067.07C1066.36 209.261 1065.35 210.764 1064.05 212.256C1062.77 213.724 1061.1 214.943 1059.04 215.913C1057.01 216.884 1054.52 217.369 1051.59 217.369ZM1056.38 205.331C1058.82 205.331 1060.88 204.668 1062.56 203.342C1064.26 201.993 1065.57 200.111 1066.46 197.696C1067.39 195.281 1067.85 192.452 1067.85 189.209C1067.85 185.965 1067.4 183.148 1066.5 180.757C1065.6 178.366 1064.3 176.519 1062.59 175.217C1060.89 173.915 1058.82 173.264 1056.38 173.264C1053.89 173.264 1051.8 173.939 1050.09 175.288C1048.39 176.638 1047.1 178.508 1046.22 180.899C1045.35 183.29 1044.91 186.06 1044.91 189.209C1044.91 192.381 1045.35 195.187 1046.22 197.625C1047.12 200.04 1048.41 201.934 1050.09 203.307C1051.8 204.656 1053.89 205.331 1056.38 205.331ZM1104.61 217.511C1101.13 217.511 1098.03 216.908 1095.31 215.7C1092.59 214.469 1090.43 212.658 1088.85 210.267C1087.28 207.852 1086.5 204.846 1086.5 201.247C1086.5 198.217 1087.06 195.672 1088.17 193.612C1089.29 191.553 1090.8 189.895 1092.72 188.641C1094.64 187.386 1096.81 186.439 1099.25 185.8C1101.71 185.161 1104.29 184.711 1106.99 184.45C1110.17 184.119 1112.72 183.811 1114.66 183.527C1116.61 183.219 1118.01 182.769 1118.89 182.178C1119.77 181.586 1120.2 180.71 1120.2 179.55V179.337C1120.2 177.088 1119.49 175.348 1118.07 174.117C1116.68 172.885 1114.69 172.27 1112.11 172.27C1109.38 172.27 1107.22 172.874 1105.61 174.081C1104 175.265 1102.93 176.756 1102.41 178.555L1088.42 177.419C1089.13 174.105 1090.53 171.24 1092.61 168.825C1094.69 166.387 1097.38 164.517 1100.67 163.215C1103.99 161.889 1107.82 161.226 1112.18 161.226C1115.21 161.226 1118.11 161.581 1120.88 162.291C1123.67 163.001 1126.15 164.102 1128.3 165.594C1130.48 167.085 1132.19 169.003 1133.45 171.347C1134.7 173.667 1135.33 176.448 1135.33 179.692V216.482H1120.99V208.918H1120.56C1119.68 210.622 1118.51 212.126 1117.04 213.428C1115.58 214.706 1113.81 215.712 1111.75 216.446C1109.69 217.156 1107.31 217.511 1104.61 217.511ZM1108.95 207.071C1111.17 207.071 1113.14 206.633 1114.84 205.757C1116.55 204.858 1117.88 203.65 1118.85 202.135C1119.83 200.62 1120.31 198.903 1120.31 196.986V191.197C1119.84 191.505 1119.19 191.789 1118.36 192.05C1117.55 192.286 1116.64 192.511 1115.62 192.724C1114.6 192.914 1113.59 193.091 1112.57 193.257C1111.55 193.399 1110.63 193.529 1109.8 193.648C1108.02 193.908 1106.47 194.322 1105.15 194.891C1103.82 195.459 1102.79 196.228 1102.06 197.199C1101.32 198.146 1100.96 199.33 1100.96 200.75C1100.96 202.81 1101.7 204.384 1103.19 205.473C1104.71 206.538 1106.63 207.071 1108.95 207.071ZM1156.2 143.754V216.482H1141.07V143.754H1156.2Z" fill="white"/>
</g>
<defs>
<clipPath id="clip0_0_1">
<rect width="1777" height="1556" fill="white" transform="translate(0 -47)"/>
</clipPath>
<clipPath id="clip1_0_1">
<rect width="1566" height="1133.12" fill="white" transform="translate(647 -513)"/>
</clipPath>
</defs>
</svg>
