<svg width="1777" height="363" viewBox="0 0 1777 363" fill="none" xmlns="http://www.w3.org/2000/svg">
<rect width="1777" height="363" fill="#333333"/>
<g clip-path="url(#clip0_0_1)">
<rect width="1777" height="1556" transform="translate(0 -23)" fill="#171718"/>
<rect y="-21" width="1777" height="438" fill="#0D1117"/>
<g clip-path="url(#clip1_0_1)">
<path d="M2366.62 416.414L2367.03 416.244L1846.39 -236.23L1846.17 -236.139C1834.71 -253.159 1810.78 -265 1782.85 -265C1754.17 -265 1729.6 -252.581 1718.53 -234.814L1372.05 199.398L1287.22 93.089L1287.11 93.1343C1281.07 84.16 1268.46 77.9051 1253.71 77.9051C1238.61 77.9051 1225.66 84.4546 1219.82 93.7915L972.519 403.746H971.407V405.128L947.463 435.133C944.691 437.762 943 441.003 943 444.561C943 453.218 952.694 460.232 964.642 460.232C967.022 460.232 969.262 459.892 971.407 459.37V460.402H1237.63H1550.83H2333.83V459.835C2354.95 458.611 2371.61 445.966 2371.61 430.363C2371.63 425.286 2369.7 420.595 2366.62 416.414Z" fill="#161B22"/>
<g clip-path="url(#clip2_0_1)">
<path d="M1200.65 271.593L1201.13 273.72C1201.13 274.429 1201.37 274.901 1201.85 275.61V276.082L1201.61 276.791L1199.93 277.736L1199.45 277.973L1198.73 277.736L1197.77 276.555L1197.05 275.137C1195.13 277.264 1192.73 278.445 1190.09 278.445C1187.92 278.445 1186.24 277.736 1185.28 276.555C1184.08 275.61 1183.36 273.956 1183.36 272.066C1183.36 270.176 1184.08 268.522 1185.52 267.341C1186.96 265.923 1188.88 265.451 1191.53 265.451C1193.31 265.441 1195.09 265.68 1196.81 266.159V264.505C1196.81 262.615 1196.33 261.434 1195.61 260.725C1194.89 259.78 1193.69 259.544 1191.77 259.544L1189.12 259.78C1187.97 260.07 1186.84 260.466 1185.76 260.962H1185.28C1185.04 260.962 1184.8 260.725 1184.8 260.253V259.071L1185.04 258.363C1185.04 258.126 1185.28 257.89 1185.76 257.89L1188.64 256.709L1192.49 256.236C1195.37 256.236 1197.29 256.945 1198.73 258.126C1199.93 259.544 1200.65 261.434 1200.65 264.033V271.593ZM1191.05 275.374L1193.45 274.901C1194.41 274.665 1195.13 273.956 1195.85 273.247L1196.57 271.83L1196.81 269.703V268.758C1195.31 268.431 1193.78 268.272 1192.25 268.286C1190.81 268.286 1189.61 268.522 1188.64 269.231C1187.92 269.703 1187.68 270.648 1187.68 271.83C1187.68 273.011 1187.92 273.72 1188.4 274.429C1189.12 274.901 1189.85 275.374 1191.05 275.374ZM1210.26 277.736L1209.3 277.5L1208.82 276.791L1203.29 258.363L1203.05 257.418L1203.53 256.945H1205.93L1206.89 257.181L1207.37 258.126L1211.46 273.72L1215.06 258.126L1215.54 257.181L1216.5 256.945H1218.42L1219.38 257.181L1219.86 258.126L1223.7 273.956L1227.79 258.126L1228.27 257.181L1229.23 256.945H1231.39C1231.87 256.945 1232.11 257.181 1232.11 257.418V257.89L1231.87 258.363L1226.11 276.791L1225.62 277.736L1224.66 277.973H1222.5L1221.54 277.736L1221.3 276.791L1217.46 261.434L1213.86 276.555L1213.38 277.5L1212.42 277.736H1210.26ZM1241.23 278.445C1238.99 278.428 1236.79 277.945 1234.75 277.027L1234.03 276.319L1233.79 275.846V274.665C1233.79 274.192 1234.03 273.956 1234.27 273.956H1234.75L1235.47 274.192C1237.2 274.981 1239.09 275.384 1240.99 275.374C1242.43 275.374 1243.63 274.901 1244.36 274.429C1245.32 273.956 1245.56 273.247 1245.56 272.302L1245.08 270.648L1242.67 269.467L1239.07 268.286C1237.39 267.813 1235.95 266.868 1235.23 265.923C1234.76 265.322 1234.42 264.634 1234.23 263.902C1234.04 263.169 1234 262.406 1234.11 261.658C1234.22 260.909 1234.48 260.19 1234.88 259.543C1235.28 258.896 1235.81 258.334 1236.43 257.89L1238.83 256.709C1240.37 256.189 1242.02 256.027 1243.63 256.236C1244.61 256.419 1245.57 256.656 1246.52 256.945L1247.48 257.418L1248.2 257.89L1248.44 258.835V259.78C1248.44 260.489 1248.2 260.725 1247.96 260.725L1247 260.253C1245.56 259.78 1244.12 259.544 1242.43 259.544C1240.99 259.544 1239.79 259.544 1239.07 260.016C1238.35 260.489 1238.11 261.198 1238.11 262.143C1238.11 262.852 1238.35 263.324 1238.83 263.797C1239.31 264.269 1240.03 264.742 1241.47 265.214L1244.84 266.159C1246.52 266.868 1247.72 267.577 1248.44 268.522C1249.16 269.467 1249.64 270.648 1249.64 271.83L1248.92 274.665L1247.24 276.555C1246.52 277.264 1245.56 277.736 1244.6 277.973L1241.23 278.445Z" fill="white"/>
<path fill-rule="evenodd" clip-rule="evenodd" d="M1245.8 290.022C1236 296.459 1224.3 299.49 1212.55 298.634C1200.8 297.778 1189.69 293.083 1180.96 285.297C1180 284.588 1180.72 283.879 1181.44 284.352C1190.98 289.669 1201.63 292.773 1212.57 293.429C1223.52 294.084 1234.47 292.272 1244.6 288.132C1245.8 287.659 1247 289.077 1245.8 290.022Z" fill="#FF9900"/>
<path fill-rule="evenodd" clip-rule="evenodd" d="M1248.92 286.242C1247.96 285.06 1242.19 285.533 1239.79 286.005C1238.83 286.005 1238.83 285.297 1239.55 284.824C1244.12 281.753 1251.56 282.698 1252.28 283.643C1253.24 284.824 1252.04 292.148 1247.96 295.692C1247.24 296.165 1246.52 295.929 1246.76 295.22C1247.96 292.857 1249.88 287.423 1248.92 286.242Z" fill="#FF9900"/>
</g>
</g>
<path d="M631.274 98.9503V86.2727H691.004V98.9503H668.738V159H653.539V98.9503H631.274ZM688.892 159V104.455H703.559V113.972H704.127C705.121 110.586 706.79 108.029 709.134 106.301C711.478 104.549 714.176 103.673 717.23 103.673C717.988 103.673 718.805 103.721 719.681 103.815C720.557 103.91 721.326 104.04 721.989 104.206V117.629C721.279 117.416 720.296 117.227 719.042 117.061C717.787 116.895 716.639 116.812 715.597 116.812C713.372 116.812 711.383 117.298 709.631 118.268C707.903 119.215 706.53 120.541 705.512 122.246C704.517 123.95 704.02 125.915 704.02 128.141V159H688.892ZM723.81 159V104.455H738.938V159H723.81ZM731.41 97.4233C729.161 97.4233 727.231 96.6776 725.621 95.1861C724.035 93.6709 723.242 91.8598 723.242 89.7528C723.242 87.6695 724.035 85.8821 725.621 84.3906C727.231 82.8755 729.161 82.1179 731.41 82.1179C733.659 82.1179 735.576 82.8755 737.163 84.3906C738.772 85.8821 739.577 87.6695 739.577 89.7528C739.577 91.8598 738.772 93.6709 737.163 95.1861C735.576 96.6776 733.659 97.4233 731.41 97.4233ZM790.44 120.009L776.591 120.861C776.354 119.677 775.845 118.612 775.064 117.665C774.282 116.694 773.252 115.925 771.974 115.357C770.719 114.765 769.216 114.469 767.464 114.469C765.12 114.469 763.144 114.966 761.534 115.96C759.924 116.931 759.119 118.233 759.119 119.866C759.119 121.169 759.64 122.269 760.681 123.169C761.723 124.069 763.511 124.791 766.044 125.335L775.916 127.324C781.219 128.413 785.172 130.165 787.777 132.58C790.381 134.994 791.683 138.167 791.683 142.097C791.683 145.671 790.629 148.808 788.522 151.507C786.439 154.206 783.574 156.313 779.929 157.828C776.306 159.32 772.128 160.065 767.393 160.065C760.172 160.065 754.42 158.562 750.135 155.555C745.873 152.525 743.376 148.406 742.642 143.197L757.521 142.416C757.971 144.618 759.06 146.299 760.788 147.459C762.516 148.595 764.73 149.163 767.429 149.163C770.08 149.163 772.211 148.654 773.821 147.636C775.454 146.595 776.283 145.257 776.306 143.624C776.283 142.25 775.703 141.126 774.566 140.25C773.43 139.35 771.678 138.664 769.311 138.19L759.865 136.308C754.538 135.243 750.573 133.396 747.968 130.768C745.388 128.141 744.098 124.791 744.098 120.719C744.098 117.215 745.045 114.196 746.939 111.663C748.856 109.13 751.543 107.177 755 105.804C758.48 104.431 762.552 103.744 767.216 103.744C774.105 103.744 779.526 105.2 783.48 108.112C787.457 111.024 789.777 114.99 790.44 120.009ZM824.222 104.455V115.818H791.374V104.455H824.222ZM798.831 91.3864H813.959V142.239C813.959 143.635 814.172 144.724 814.598 145.506C815.024 146.263 815.616 146.796 816.374 147.104C817.155 147.411 818.054 147.565 819.072 147.565C819.783 147.565 820.493 147.506 821.203 147.388C821.913 147.246 822.458 147.139 822.837 147.068L825.216 158.325C824.458 158.562 823.393 158.834 822.02 159.142C820.647 159.473 818.978 159.675 817.013 159.746C813.367 159.888 810.171 159.402 807.425 158.29C804.702 157.177 802.583 155.449 801.068 153.105C799.553 150.761 798.807 147.802 798.831 144.227V91.3864ZM843.63 160.03C840.15 160.03 837.049 159.426 834.326 158.219C831.603 156.988 829.449 155.177 827.863 152.786C826.3 150.371 825.519 147.364 825.519 143.766C825.519 140.735 826.076 138.19 827.188 136.131C828.301 134.071 829.816 132.414 831.734 131.159C833.651 129.904 835.829 128.957 838.268 128.318C840.73 127.679 843.31 127.229 846.009 126.969C849.182 126.637 851.738 126.33 853.68 126.045C855.621 125.738 857.03 125.288 857.906 124.696C858.781 124.104 859.219 123.228 859.219 122.068V121.855C859.219 119.606 858.509 117.866 857.089 116.635C855.692 115.404 853.703 114.788 851.123 114.788C848.4 114.788 846.234 115.392 844.624 116.599C843.014 117.783 841.949 119.275 841.428 121.074L827.437 119.938C828.147 116.623 829.544 113.759 831.627 111.344C833.71 108.905 836.397 107.035 839.688 105.733C843.003 104.407 846.838 103.744 851.194 103.744C854.224 103.744 857.124 104.099 859.894 104.81C862.688 105.52 865.162 106.621 867.316 108.112C869.494 109.604 871.21 111.521 872.465 113.865C873.72 116.185 874.347 118.967 874.347 122.21V159H860.001V151.436H859.575C858.699 153.141 857.527 154.644 856.059 155.946C854.591 157.224 852.827 158.231 850.768 158.964C848.708 159.675 846.329 160.03 843.63 160.03ZM847.962 149.589C850.188 149.589 852.153 149.152 853.857 148.276C855.562 147.376 856.899 146.169 857.87 144.653C858.841 143.138 859.326 141.422 859.326 139.504V133.716C858.853 134.024 858.201 134.308 857.373 134.568C856.568 134.805 855.656 135.03 854.638 135.243C853.621 135.432 852.603 135.61 851.585 135.776C850.567 135.918 849.643 136.048 848.815 136.166C847.039 136.427 845.488 136.841 844.163 137.409C842.837 137.977 841.807 138.747 841.073 139.717C840.339 140.664 839.972 141.848 839.972 143.268C839.972 145.328 840.718 146.902 842.21 147.991C843.725 149.057 845.642 149.589 847.962 149.589ZM895.212 127.466V159H880.084V104.455H894.501V114.078H895.141C896.348 110.906 898.372 108.396 901.213 106.55C904.054 104.679 907.499 103.744 911.547 103.744C915.335 103.744 918.637 104.573 921.455 106.23C924.272 107.887 926.462 110.255 928.024 113.332C929.587 116.386 930.368 120.032 930.368 124.27V159H915.24V126.969C915.264 123.631 914.411 121.027 912.683 119.156C910.955 117.262 908.576 116.315 905.545 116.315C903.509 116.315 901.71 116.753 900.148 117.629C898.609 118.505 897.402 119.784 896.526 121.464C895.673 123.122 895.235 125.122 895.212 127.466ZM966.859 86.2727L984.437 141.528H985.112L1002.73 86.2727H1019.77L994.7 159H974.884L949.778 86.2727H966.859ZM1022.24 159V104.455H1037.37V159H1022.24ZM1029.84 97.4233C1027.59 97.4233 1025.66 96.6776 1024.05 95.1861C1022.46 93.6709 1021.67 91.8598 1021.67 89.7528C1021.67 87.6695 1022.46 85.8821 1024.05 84.3906C1025.66 82.8755 1027.59 82.1179 1029.84 82.1179C1032.09 82.1179 1034.01 82.8755 1035.59 84.3906C1037.2 85.8821 1038.01 87.6695 1038.01 89.7528C1038.01 91.8598 1037.2 93.6709 1035.59 95.1861C1034.01 96.6776 1032.09 97.4233 1029.84 97.4233ZM1063.59 159.888C1059.44 159.888 1055.69 158.822 1052.33 156.692C1048.99 154.537 1046.34 151.377 1044.37 147.21C1042.43 143.02 1041.46 137.883 1041.46 131.798C1041.46 125.548 1042.47 120.352 1044.48 116.209C1046.49 112.042 1049.17 108.929 1052.51 106.869C1055.87 104.786 1059.55 103.744 1063.55 103.744C1066.6 103.744 1069.15 104.265 1071.19 105.307C1073.24 106.325 1074.9 107.603 1076.16 109.142C1077.44 110.657 1078.41 112.149 1079.07 113.616H1079.53V86.2727H1094.62V159H1079.71V150.264H1079.07C1078.36 151.779 1077.35 153.283 1076.05 154.774C1074.77 156.242 1073.1 157.461 1071.04 158.432C1069.01 159.402 1066.52 159.888 1063.59 159.888ZM1068.38 147.849C1070.82 147.849 1072.88 147.187 1074.56 145.861C1076.26 144.511 1077.57 142.629 1078.46 140.214C1079.39 137.8 1079.85 134.971 1079.85 131.727C1079.85 128.484 1079.4 125.667 1078.5 123.276C1077.6 120.884 1076.3 119.038 1074.59 117.736C1072.89 116.434 1070.82 115.783 1068.38 115.783C1065.89 115.783 1063.8 116.457 1062.09 117.807C1060.39 119.156 1059.1 121.027 1058.22 123.418C1057.35 125.809 1056.91 128.579 1056.91 131.727C1056.91 134.9 1057.35 137.705 1058.22 140.143C1059.12 142.558 1060.41 144.452 1062.09 145.825C1063.8 147.175 1065.89 147.849 1068.38 147.849ZM1116.61 160.03C1113.13 160.03 1110.03 159.426 1107.31 158.219C1104.59 156.988 1102.43 155.177 1100.85 152.786C1099.28 150.371 1098.5 147.364 1098.5 143.766C1098.5 140.735 1099.06 138.19 1100.17 136.131C1101.29 134.071 1102.8 132.414 1104.72 131.159C1106.64 129.904 1108.81 128.957 1111.25 128.318C1113.71 127.679 1116.29 127.229 1118.99 126.969C1122.17 126.637 1124.72 126.33 1126.66 126.045C1128.61 125.738 1130.01 125.288 1130.89 124.696C1131.77 124.104 1132.2 123.228 1132.2 122.068V121.855C1132.2 119.606 1131.49 117.866 1130.07 116.635C1128.68 115.404 1126.69 114.788 1124.11 114.788C1121.38 114.788 1119.22 115.392 1117.61 116.599C1116 117.783 1114.93 119.275 1114.41 121.074L1100.42 119.938C1101.13 116.623 1102.53 113.759 1104.61 111.344C1106.69 108.905 1109.38 107.035 1112.67 105.733C1115.99 104.407 1119.82 103.744 1124.18 103.744C1127.21 103.744 1130.11 104.099 1132.88 104.81C1135.67 105.52 1138.15 106.621 1140.3 108.112C1142.48 109.604 1144.19 111.521 1145.45 113.865C1146.7 116.185 1147.33 118.967 1147.33 122.21V159H1132.99V151.436H1132.56C1131.68 153.141 1130.51 154.644 1129.04 155.946C1127.58 157.224 1125.81 158.231 1123.75 158.964C1121.69 159.675 1119.31 160.03 1116.61 160.03ZM1120.95 149.589C1123.17 149.589 1125.14 149.152 1126.84 148.276C1128.55 147.376 1129.88 146.169 1130.85 144.653C1131.83 143.138 1132.31 141.422 1132.31 139.504V133.716C1131.84 134.024 1131.19 134.308 1130.36 134.568C1129.55 134.805 1128.64 135.03 1127.62 135.243C1126.6 135.432 1125.59 135.61 1124.57 135.776C1123.55 135.918 1122.63 136.048 1121.8 136.166C1120.02 136.427 1118.47 136.841 1117.15 137.409C1115.82 137.977 1114.79 138.747 1114.06 139.717C1113.32 140.664 1112.96 141.848 1112.96 143.268C1112.96 145.328 1113.7 146.902 1115.19 147.991C1116.71 149.057 1118.63 149.589 1120.95 149.589ZM1168.2 86.2727V159H1153.07V86.2727H1168.2Z" fill="white"/>
<g clip-path="url(#clip3_0_1)">
<path d="M585.332 265.234C584.693 265.016 584.049 264.814 583.401 264.628C583.51 264.184 583.61 263.746 583.699 263.315C585.161 256.246 584.205 250.552 580.941 248.676C577.811 246.879 572.692 248.753 567.522 253.235C567.012 253.677 566.514 254.132 566.028 254.6C565.702 254.289 565.371 253.984 565.034 253.686C559.615 248.894 554.184 246.874 550.923 248.755C547.796 250.558 546.87 255.911 548.186 262.611C548.317 263.274 548.465 263.935 548.63 264.591C547.861 264.808 547.119 265.04 546.409 265.286C540.057 267.492 536 270.949 536 274.535C536 278.239 540.355 281.954 546.972 284.206C547.508 284.388 548.049 284.557 548.594 284.712C548.417 285.418 548.26 286.13 548.123 286.845C546.868 293.428 547.848 298.655 550.966 300.447C554.188 302.297 559.594 300.396 564.859 295.812C565.285 295.439 565.703 295.056 566.111 294.663C566.637 295.169 567.178 295.66 567.732 296.137C572.832 300.507 577.868 302.272 580.984 300.475C584.202 298.62 585.248 293.004 583.89 286.173C583.783 285.637 583.663 285.105 583.531 284.575C583.91 284.463 584.283 284.348 584.646 284.228C591.525 281.958 596 278.288 596 274.535C596 270.936 591.812 267.456 585.332 265.234ZM583.84 281.805C583.512 281.913 583.175 282.017 582.832 282.119C582.073 279.724 581.048 277.178 579.794 274.548C580.991 271.98 581.976 269.466 582.714 267.087C583.328 267.264 583.924 267.451 584.498 267.648C590.05 269.552 593.437 272.366 593.437 274.535C593.437 276.846 589.779 279.845 583.84 281.805ZM581.376 286.669C581.976 289.689 582.062 292.421 581.664 294.556C581.307 296.475 580.588 297.754 579.7 298.266C577.809 299.356 573.765 297.939 569.404 294.201C568.889 293.759 568.386 293.302 567.896 292.831C569.586 290.989 571.276 288.848 572.925 286.471C575.826 286.214 578.566 285.795 581.051 285.223C581.173 285.715 581.282 286.197 581.376 286.669ZM556.455 298.078C554.608 298.727 553.137 298.746 552.247 298.235C550.355 297.148 549.568 292.951 550.641 287.321C550.769 286.656 550.915 285.994 551.079 285.337C553.537 285.879 556.257 286.268 559.164 286.503C560.825 288.83 562.563 290.968 564.315 292.841C563.943 293.2 563.562 293.55 563.172 293.89C560.844 295.916 558.511 297.355 556.455 298.078ZM547.801 281.791C544.875 280.795 542.459 279.5 540.803 278.087C539.315 276.818 538.563 275.558 538.563 274.535C538.563 272.359 541.82 269.583 547.253 267.697C547.912 267.468 548.602 267.252 549.318 267.05C550.069 269.482 551.054 272.026 552.243 274.597C551.039 277.207 550.04 279.791 549.282 282.253C548.784 282.111 548.291 281.957 547.801 281.791ZM550.702 262.12C549.574 256.381 550.323 252.051 552.208 250.964C554.215 249.807 558.654 251.457 563.332 255.595C563.637 255.865 563.937 256.141 564.232 256.422C562.489 258.287 560.766 260.41 559.121 262.722C556.299 262.983 553.598 263.401 551.114 263.962C550.961 263.352 550.824 262.738 550.702 262.12ZM576.583 268.486C575.997 267.477 575.388 266.48 574.759 265.497C576.673 265.738 578.507 266.058 580.23 266.45C579.713 268.101 579.068 269.827 578.309 271.596C577.755 270.548 577.179 269.511 576.583 268.486ZM566.029 258.247C567.211 259.523 568.395 260.947 569.56 262.492C567.197 262.381 564.831 262.381 562.468 262.491C563.634 260.96 564.828 259.537 566.029 258.247ZM555.407 268.504C554.818 269.52 554.253 270.551 553.713 271.594C552.967 269.831 552.328 268.097 551.806 266.423C553.518 266.041 555.344 265.729 557.246 265.493C556.609 266.482 555.996 267.486 555.407 268.504ZM557.301 283.76C555.335 283.541 553.483 283.245 551.771 282.874C552.301 281.17 552.954 279.399 553.716 277.598C554.258 278.642 554.826 279.673 555.417 280.691C556.025 281.736 556.654 282.761 557.301 283.76ZM566.1 291.004C564.885 289.698 563.673 288.254 562.49 286.7C563.638 286.745 564.81 286.768 566 286.768C567.223 286.768 568.432 286.741 569.622 286.688C568.453 288.269 567.274 289.716 566.1 291.004ZM578.334 277.506C579.136 279.327 579.811 281.089 580.348 282.764C578.609 283.159 576.73 283.478 574.751 283.714C575.385 282.713 576 281.699 576.593 280.673C577.197 279.631 577.777 278.575 578.334 277.506ZM574.373 279.398C573.464 280.97 572.504 282.513 571.495 284.023C569.666 284.152 567.833 284.216 566 284.215C564.133 284.215 562.317 284.158 560.568 284.045C559.532 282.538 558.553 280.992 557.635 279.412C556.721 277.839 555.867 276.233 555.075 274.596C555.865 272.959 556.716 271.352 557.627 269.779L557.627 269.779C558.538 268.205 559.508 266.666 560.536 265.166C562.321 265.031 564.151 264.961 566 264.961C567.857 264.961 569.69 265.032 571.474 265.167C572.491 266.666 573.456 268.199 574.365 269.765C575.279 271.335 576.141 272.934 576.951 274.56C576.15 276.203 575.29 277.816 574.373 279.398ZM579.661 250.888C581.67 252.042 582.451 256.697 581.189 262.8C581.108 263.189 581.018 263.586 580.919 263.988C578.43 263.416 575.727 262.99 572.896 262.726C571.248 260.387 569.54 258.261 567.825 256.421C568.274 255.989 568.734 255.569 569.205 255.16C573.634 251.321 577.774 249.805 579.661 250.888ZM566 269.199C568.959 269.199 571.358 271.588 571.358 274.535C571.358 277.483 568.959 279.872 566 279.872C563.041 279.872 560.642 277.483 560.642 274.535C560.642 271.588 563.041 269.199 566 269.199Z" fill="#00D8FF"/>
</g>
<path d="M671.685 249.75C684.76 249.75 683.944 255.42 683.944 255.42L683.928 261.294H671.452V263.056H688.886C688.886 263.056 697.25 262.107 697.25 275.3C697.25 288.491 689.948 288.024 689.948 288.024H685.59V281.902C685.59 281.902 685.825 274.6 678.404 274.6H666.031C666.031 274.6 659.079 274.713 659.079 267.881V256.585C659.079 256.585 658.023 249.75 671.685 249.75ZM678.565 253.699C677.97 253.699 677.399 253.936 676.978 254.357C676.557 254.778 676.32 255.349 676.32 255.944C676.32 256.54 676.557 257.111 676.978 257.532C677.399 257.953 677.97 258.19 678.565 258.19C678.86 258.19 679.152 258.132 679.425 258.02C679.697 257.907 679.945 257.741 680.154 257.533C680.362 257.324 680.528 257.077 680.64 256.804C680.753 256.532 680.811 256.239 680.81 255.944C680.81 254.704 679.806 253.699 678.565 253.699Z" fill="url(#paint0_linear_0_1)"/>
<path d="M671.315 300.981C658.24 300.981 659.056 295.311 659.056 295.311L659.072 289.437H671.548V287.675H654.116C654.116 287.675 645.75 288.624 645.75 275.432C645.75 262.24 653.052 262.709 653.052 262.709H657.41V268.829C657.41 268.829 657.175 276.131 664.596 276.131H676.969C676.969 276.131 683.921 276.018 683.921 282.85V294.146C683.921 294.146 684.977 300.981 671.315 300.981ZM664.435 297.032C664.73 297.032 665.022 296.974 665.294 296.862C665.567 296.749 665.815 296.584 666.023 296.375C666.232 296.167 666.397 295.919 666.51 295.646C666.623 295.374 666.68 295.082 666.68 294.787C666.68 294.343 666.548 293.91 666.301 293.541C666.055 293.172 665.704 292.885 665.294 292.715C664.884 292.546 664.433 292.501 663.998 292.588C663.563 292.675 663.164 292.888 662.85 293.202C662.536 293.516 662.323 293.915 662.236 294.35C662.15 294.785 662.194 295.236 662.363 295.646C662.533 296.056 662.82 296.406 663.189 296.653C663.558 296.9 663.991 297.032 664.435 297.032Z" fill="url(#paint1_linear_0_1)"/>
<g clip-path="url(#clip4_0_1)">
<path d="M785 300.905C784.286 300.905 783.619 300.718 783 300.391L776.667 296.696C775.714 296.182 776.19 295.995 776.476 295.901C777.762 295.48 778 295.387 779.333 294.638C779.476 294.545 779.667 294.592 779.809 294.685L784.667 297.538C784.857 297.632 785.095 297.632 785.238 297.538L804.238 286.735C804.429 286.642 804.524 286.455 804.524 286.221V264.661C804.524 264.427 804.429 264.24 804.238 264.147L785.238 253.39C785.048 253.297 784.81 253.297 784.667 253.39L765.667 264.147C765.476 264.24 765.381 264.474 765.381 264.661V286.221C765.381 286.408 765.476 286.642 765.667 286.735L770.857 289.681C773.667 291.084 775.428 289.447 775.428 287.811V266.532C775.428 266.251 775.667 265.97 776 265.97H778.429C778.714 265.97 779 266.204 779 266.532V287.81C779 291.505 776.952 293.656 773.381 293.656C772.286 293.656 771.429 293.656 769 292.487L764 289.681C762.762 288.98 762 287.67 762 286.267V264.708C762 263.305 762.762 261.996 764 261.294L783 250.491C784.191 249.836 785.809 249.836 787 250.491L806 261.294C807.238 261.996 808 263.305 808 264.708V286.267C808 287.67 807.238 288.98 806 289.681L787 300.485C786.381 300.765 785.667 300.906 785 300.906V300.905ZM790.857 286.08C782.524 286.08 780.81 282.339 780.81 279.159C780.81 278.878 781.048 278.598 781.381 278.598H783.857C784.143 278.598 784.381 278.785 784.381 279.065C784.762 281.544 785.857 282.76 790.905 282.76C794.905 282.76 796.619 281.871 796.619 279.767C796.619 278.551 796.143 277.662 789.905 277.054C784.714 276.54 781.476 275.417 781.476 271.349C781.476 267.561 784.714 265.316 790.143 265.316C796.238 265.316 799.238 267.374 799.619 271.863C799.619 272.003 799.571 272.144 799.476 272.284C799.381 272.378 799.238 272.471 799.095 272.471H796.619C796.381 272.471 796.143 272.284 796.095 272.05C795.524 269.478 794.048 268.636 790.143 268.636C785.762 268.636 785.238 270.133 785.238 271.255C785.238 272.612 785.857 273.032 791.762 273.781C797.619 274.529 800.381 275.605 800.381 279.627C800.333 283.742 796.905 286.08 790.857 286.08Z" fill="#539E43"/>
</g>
<g clip-path="url(#clip5_0_1)">
<path d="M897.785 272.777H902.908C902.969 272.777 903.028 272.765 903.084 272.742C903.14 272.719 903.19 272.685 903.233 272.642C903.276 272.6 903.309 272.549 903.333 272.493C903.356 272.438 903.367 272.378 903.367 272.318V267.774C903.367 267.714 903.356 267.654 903.333 267.598C903.309 267.543 903.276 267.492 903.233 267.449C903.19 267.407 903.14 267.373 903.084 267.35C903.028 267.327 902.969 267.315 902.908 267.315H897.785C897.67 267.315 897.559 267.361 897.477 267.442C897.396 267.524 897.35 267.635 897.35 267.75V272.342C897.35 272.583 897.543 272.777 897.785 272.777ZM890.656 259.654H895.779C895.897 259.648 896.007 259.597 896.088 259.511C896.169 259.426 896.214 259.313 896.214 259.195V254.628C896.208 254.514 896.161 254.407 896.08 254.326C896 254.246 895.893 254.198 895.779 254.193H890.656C890.597 254.189 890.538 254.198 890.482 254.218C890.426 254.239 890.375 254.27 890.332 254.311C890.289 254.352 890.255 254.401 890.232 254.455C890.209 254.51 890.197 254.568 890.197 254.628V259.219C890.197 259.461 890.414 259.654 890.656 259.654ZM890.656 266.203H895.779C895.893 266.198 896 266.15 896.08 266.069C896.161 265.989 896.208 265.882 896.214 265.768V261.201C896.208 261.087 896.161 260.98 896.08 260.9C896 260.819 895.893 260.772 895.779 260.766H890.656C890.597 260.763 890.538 260.771 890.482 260.792C890.426 260.812 890.375 260.844 890.332 260.884C890.289 260.925 890.255 260.974 890.232 261.029C890.209 261.083 890.197 261.142 890.197 261.201V265.768C890.197 266.01 890.414 266.203 890.656 266.203ZM883.575 266.203H888.698C888.812 266.198 888.919 266.15 888.999 266.069C889.08 265.989 889.127 265.882 889.133 265.768V261.201C889.133 261.085 889.087 260.975 889.006 260.893C888.924 260.812 888.814 260.766 888.698 260.766H883.575C883.46 260.766 883.349 260.812 883.267 260.893C883.186 260.975 883.14 261.085 883.14 261.201V265.768C883.14 266.01 883.333 266.203 883.575 266.203ZM876.422 266.203H881.521C881.639 266.204 881.752 266.158 881.837 266.078C881.923 265.997 881.974 265.886 881.98 265.768V261.201C881.98 261.142 881.968 261.083 881.945 261.029C881.921 260.974 881.887 260.925 881.844 260.884C881.801 260.844 881.75 260.812 881.695 260.792C881.639 260.771 881.58 260.763 881.521 260.766H876.422C876.304 260.766 876.191 260.811 876.105 260.892C876.02 260.973 875.969 261.083 875.962 261.201V265.768C875.962 266.01 876.156 266.203 876.422 266.203ZM890.656 272.777H895.779C895.897 272.77 896.007 272.719 896.088 272.634C896.169 272.548 896.214 272.435 896.214 272.318V267.774C896.214 267.656 896.169 267.543 896.088 267.458C896.007 267.372 895.897 267.321 895.779 267.315H890.656C890.597 267.312 890.538 267.321 890.482 267.341C890.426 267.361 890.375 267.393 890.332 267.434C890.289 267.474 890.255 267.523 890.232 267.578C890.209 267.632 890.197 267.691 890.197 267.75V272.342C890.197 272.583 890.414 272.777 890.656 272.777ZM883.575 272.777H888.698C888.758 272.777 888.816 272.765 888.871 272.741C888.925 272.718 888.974 272.684 889.015 272.641C889.056 272.598 889.087 272.547 889.107 272.491C889.128 272.436 889.137 272.377 889.133 272.318V267.774C889.137 267.715 889.128 267.656 889.107 267.6C889.087 267.545 889.056 267.494 889.015 267.451C888.974 267.408 888.925 267.374 888.871 267.35C888.816 267.327 888.758 267.315 888.698 267.315H883.575C883.46 267.315 883.349 267.361 883.267 267.442C883.186 267.524 883.14 267.635 883.14 267.75V272.342C883.14 272.583 883.333 272.777 883.575 272.777ZM876.422 272.777H881.521C881.582 272.78 881.643 272.771 881.701 272.749C881.758 272.727 881.81 272.693 881.853 272.65C881.897 272.607 881.93 272.555 881.952 272.497C881.974 272.44 881.983 272.379 881.98 272.318V267.774C881.983 267.715 881.974 267.656 881.954 267.6C881.934 267.545 881.902 267.494 881.861 267.451C881.821 267.408 881.772 267.374 881.717 267.35C881.663 267.327 881.604 267.315 881.545 267.315H876.422C876.3 267.315 876.183 267.363 876.097 267.449C876.011 267.536 875.962 267.652 875.962 267.774V272.318C875.962 272.559 876.156 272.777 876.422 272.777ZM869.365 272.777H874.488C874.548 272.777 874.606 272.765 874.661 272.741C874.715 272.718 874.764 272.684 874.805 272.641C874.846 272.598 874.877 272.547 874.897 272.491C874.918 272.436 874.927 272.377 874.923 272.318V267.774C874.927 267.715 874.918 267.656 874.897 267.6C874.877 267.545 874.846 267.494 874.805 267.451C874.764 267.408 874.715 267.374 874.661 267.35C874.606 267.327 874.548 267.315 874.488 267.315H869.365C869.306 267.312 869.247 267.321 869.191 267.341C869.135 267.361 869.085 267.393 869.042 267.434C868.999 267.474 868.964 267.523 868.941 267.578C868.918 267.632 868.906 267.691 868.906 267.75V272.342C868.906 272.583 869.099 272.777 869.365 272.777ZM921.42 269.901C921.275 269.78 919.801 268.668 916.707 268.668C915.886 268.668 915.064 268.741 914.267 268.886C914.052 267.616 913.571 266.405 912.854 265.335C912.138 264.264 911.203 263.358 910.11 262.675L909.288 262.192L908.732 262.989C908.057 264.051 907.567 265.219 907.282 266.445C906.702 268.789 907.041 270.988 908.249 272.873C906.918 273.481 905.482 273.826 904.02 273.888H865.837C865.597 273.885 865.358 273.93 865.136 274.019C864.913 274.109 864.71 274.242 864.539 274.411C864.368 274.579 864.233 274.78 864.14 275.002C864.048 275.223 864 275.461 864 275.701C863.962 279.047 864.536 282.372 865.692 285.513C866.727 288.604 868.769 291.259 871.492 293.052C874.343 294.817 878.983 295.808 884.252 295.808C886.62 295.808 888.988 295.614 891.332 295.179C894.577 294.574 897.697 293.43 900.564 291.796C902.93 290.431 905.06 288.692 906.872 286.648C909.892 283.217 911.705 279.398 913.034 276.015H913.59C916.901 276.015 918.931 274.686 920.067 273.598C920.792 272.873 921.396 272.003 921.758 271.037L922 270.36L921.42 269.901Z" fill="#008FE2"/>
</g>
<g clip-path="url(#clip6_0_1)">
<path d="M1018.13 257.137C1013.11 249.968 1003.19 247.843 996.021 252.4L983.426 260.407C981.725 261.474 980.266 262.884 979.142 264.546C978.018 266.208 977.254 268.086 976.899 270.059C976.298 273.383 976.826 276.812 978.399 279.803C977.321 281.434 976.586 283.266 976.238 285.189C975.879 287.202 975.927 289.266 976.378 291.261C976.83 293.255 977.677 295.139 978.868 296.803C983.891 303.973 993.809 306.097 1000.98 301.54L1013.57 293.534C1015.27 292.466 1016.73 291.056 1017.86 289.394C1018.98 287.732 1019.75 285.854 1020.1 283.881C1020.7 280.557 1020.17 277.128 1018.6 274.137C1019.68 272.506 1020.41 270.674 1020.76 268.751C1021.12 266.738 1021.07 264.674 1020.62 262.679C1020.17 260.685 1019.32 258.801 1018.13 257.137Z" fill="#FF3E00"/>
<path d="M994.789 297.485C990.728 298.538 986.44 296.953 984.048 293.514C983.331 292.514 982.822 291.38 982.55 290.18C982.279 288.98 982.25 287.739 982.466 286.528C982.539 286.13 982.639 285.738 982.767 285.354L983.004 284.633L983.649 285.106C985.14 286.198 986.807 287.029 988.578 287.561L989.046 287.703L989.003 288.169C988.945 288.832 989.125 289.494 989.511 290.038C989.862 290.543 990.361 290.929 990.939 291.143C991.517 291.357 992.148 291.389 992.745 291.235C993.018 291.162 993.279 291.047 993.519 290.895L1006.12 282.888C1006.43 282.694 1006.69 282.439 1006.89 282.138C1007.1 281.836 1007.24 281.496 1007.3 281.139C1007.37 280.774 1007.36 280.4 1007.27 280.038C1007.19 279.676 1007.04 279.335 1006.82 279.033C1006.47 278.527 1005.97 278.141 1005.39 277.927C1004.82 277.713 1004.19 277.681 1003.59 277.835C1003.32 277.908 1003.05 278.022 1002.82 278.174L998.008 281.231C997.218 281.732 996.355 282.11 995.45 282.351C991.389 283.404 987.101 281.819 984.71 278.38C983.993 277.379 983.483 276.246 983.212 275.046C982.94 273.846 982.911 272.605 983.127 271.394C983.34 270.207 983.8 269.077 984.476 268.078C985.152 267.078 986.03 266.23 987.054 265.588L999.651 257.58C1000.44 257.078 1001.31 256.699 1002.21 256.458C1006.27 255.405 1010.56 256.99 1012.95 260.429C1013.67 261.429 1014.18 262.563 1014.45 263.763C1014.72 264.963 1014.75 266.204 1014.53 267.415C1014.46 267.813 1014.36 268.205 1014.23 268.589L1014 269.31L1013.35 268.838C1011.86 267.745 1010.19 266.914 1008.42 266.381L1007.95 266.239L1008 265.773C1008.05 265.11 1007.87 264.449 1007.49 263.905C1007.14 263.399 1006.64 263.014 1006.06 262.799C1005.48 262.585 1004.85 262.553 1004.26 262.708C1003.98 262.781 1003.72 262.895 1003.48 263.047L990.883 271.055C990.575 271.249 990.31 271.504 990.107 271.805C989.903 272.106 989.764 272.446 989.7 272.804C989.635 273.169 989.644 273.543 989.725 273.905C989.807 274.266 989.96 274.608 990.176 274.91C990.528 275.416 991.027 275.802 991.605 276.016C992.184 276.23 992.814 276.262 993.411 276.108C993.685 276.035 993.946 275.92 994.185 275.769L998.992 272.713C999.782 272.211 1000.64 271.833 1001.55 271.592C1005.61 270.539 1009.9 272.124 1012.29 275.563C1013.01 276.563 1013.52 277.697 1013.79 278.897C1014.06 280.096 1014.09 281.338 1013.87 282.549C1013.66 283.736 1013.2 284.866 1012.52 285.866C1011.85 286.865 1010.97 287.714 1009.95 288.356L997.349 296.363C996.558 296.865 995.695 297.244 994.789 297.485Z" fill="white"/>
</g>
<g clip-path="url(#clip7_0_1)">
<path d="M1107 254C1098.47 254 1093.13 258.322 1091 266.966C1094.2 262.644 1097.93 261.023 1102.2 262.104C1104.63 262.72 1106.37 264.509 1108.3 266.49C1111.44 269.716 1115.07 273.449 1123 273.449C1131.53 273.449 1136.87 269.127 1139 260.483C1135.8 264.805 1132.07 266.426 1127.8 265.345C1125.37 264.729 1123.63 262.94 1121.7 260.96C1118.56 257.734 1114.93 254 1107 254ZM1091 273.449C1082.47 273.449 1077.13 277.772 1075 286.416C1078.2 282.093 1081.93 280.473 1086.2 281.553C1088.63 282.17 1090.37 283.959 1092.3 285.939C1095.44 289.165 1099.07 292.899 1107 292.899C1115.53 292.899 1120.87 288.577 1123 279.932C1119.8 284.255 1116.07 285.875 1111.8 284.795C1109.37 284.178 1107.63 282.389 1105.7 280.409C1102.56 277.183 1098.93 273.449 1091 273.449Z" fill="url(#paint2_linear_0_1)"/>
</g>
</g>
<defs>
<linearGradient id="paint0_linear_0_1" x1="692.301" y1="254.227" x2="666.836" y2="279.778" gradientUnits="userSpaceOnUse">
<stop stop-color="#387EB8"/>
<stop offset="1" stop-color="#366994"/>
</linearGradient>
<linearGradient id="paint1_linear_0_1" x1="676.636" y1="270.482" x2="649.286" y2="296.684" gradientUnits="userSpaceOnUse">
<stop stop-color="#FFE052"/>
<stop offset="1" stop-color="#FFC331"/>
</linearGradient>
<linearGradient id="paint2_linear_0_1" x1="897.208" y1="1498.76" x2="6460.01" y2="4665.05" gradientUnits="userSpaceOnUse">
<stop stop-color="#2298BD"/>
<stop offset="1" stop-color="#0ED7B5"/>
</linearGradient>
<clipPath id="clip0_0_1">
<rect width="1777" height="1556" fill="white" transform="translate(0 -23)"/>
</clipPath>
<clipPath id="clip1_0_1">
<rect width="1566" height="1133.12" fill="white" transform="translate(686 -489)"/>
</clipPath>
<clipPath id="clip2_0_1">
<rect width="73" height="43" fill="white" transform="translate(1180 256)"/>
</clipPath>
<clipPath id="clip3_0_1">
<rect width="60" height="53.2258" fill="white" transform="translate(536 248)"/>
</clipPath>
<clipPath id="clip4_0_1">
<rect width="46" height="51" fill="white" transform="translate(762 250)"/>
</clipPath>
<clipPath id="clip5_0_1">
<rect width="58" height="58" fill="white" transform="translate(864 246)"/>
</clipPath>
<clipPath id="clip6_0_1">
<rect width="45" height="54" fill="white" transform="translate(976 250)"/>
</clipPath>
<clipPath id="clip7_0_1">
<rect width="64" height="39" fill="white" transform="translate(1075 254)"/>
</clipPath>
</defs>
</svg>
