<svg width="1777" height="436" viewBox="0 0 1777 436" fill="none" xmlns="http://www.w3.org/2000/svg">
<rect width="1777" height="436" fill="#333333"/>
<g clip-path="url(#clip0_0_1)">
<rect width="1777" height="1556" fill="#171718"/>
<rect y="2" width="1777" height="438" fill="#0D1117"/>
<g clip-path="url(#clip1_0_1)">
<path d="M2327.62 439.414L2328.03 439.244L1807.39 -213.23L1807.17 -213.139C1795.71 -230.159 1771.78 -242 1743.85 -242C1715.17 -242 1690.6 -229.581 1679.53 -211.814L1333.05 222.398L1248.22 116.089L1248.11 116.134C1242.07 107.16 1229.46 100.905 1214.71 100.905C1199.61 100.905 1186.66 107.455 1180.82 116.791L933.519 426.746H932.407V428.128L908.463 458.133C905.691 460.762 904 464.003 904 467.561C904 476.218 913.694 483.232 925.642 483.232C928.022 483.232 930.262 482.892 932.407 482.37V483.402H1198.63H1511.83H2294.83V482.835C2315.95 481.611 2332.61 468.966 2332.61 453.363C2332.63 448.286 2330.7 443.595 2327.62 439.414Z" fill="#161B22"/>
</g>
<path d="M619.274 203.432V190.754H679.004V203.432H656.738V263.482H641.539V203.432H619.274ZM676.892 263.482V208.936H691.559V218.453H692.127C693.121 215.068 694.79 212.511 697.134 210.783C699.478 209.031 702.176 208.155 705.23 208.155C705.988 208.155 706.805 208.202 707.681 208.297C708.557 208.392 709.326 208.522 709.989 208.688V222.111C709.279 221.898 708.296 221.708 707.042 221.543C705.787 221.377 704.639 221.294 703.597 221.294C701.372 221.294 699.383 221.779 697.631 222.75C695.903 223.697 694.53 225.023 693.512 226.727C692.517 228.432 692.02 230.397 692.02 232.622V263.482H676.892ZM711.81 263.482V208.936H726.938V263.482H711.81ZM719.41 201.905C717.161 201.905 715.231 201.159 713.621 199.668C712.035 198.152 711.242 196.341 711.242 194.234C711.242 192.151 712.035 190.364 713.621 188.872C715.231 187.357 717.161 186.599 719.41 186.599C721.659 186.599 723.576 187.357 725.163 188.872C726.772 190.364 727.577 192.151 727.577 194.234C727.577 196.341 726.772 198.152 725.163 199.668C723.576 201.159 721.659 201.905 719.41 201.905ZM778.44 224.49L764.591 225.342C764.354 224.159 763.845 223.093 763.064 222.146C762.282 221.176 761.252 220.406 759.974 219.838C758.719 219.246 757.216 218.95 755.464 218.95C753.12 218.95 751.144 219.447 749.534 220.442C747.924 221.412 747.119 222.715 747.119 224.348C747.119 225.65 747.64 226.751 748.681 227.651C749.723 228.55 751.511 229.272 754.044 229.817L763.916 231.805C769.219 232.894 773.172 234.646 775.777 237.061C778.381 239.476 779.683 242.648 779.683 246.578C779.683 250.153 778.629 253.29 776.522 255.989C774.439 258.688 771.574 260.795 767.929 262.31C764.306 263.801 760.128 264.547 755.393 264.547C748.172 264.547 742.42 263.044 738.135 260.037C733.873 257.007 731.376 252.887 730.642 247.679L745.521 246.898C745.971 249.099 747.06 250.78 748.788 251.94C750.516 253.077 752.73 253.645 755.429 253.645C758.08 253.645 760.211 253.136 761.821 252.118C763.454 251.076 764.283 249.739 764.306 248.105C764.283 246.732 763.703 245.608 762.566 244.732C761.43 243.832 759.678 243.145 757.311 242.672L747.865 240.79C742.538 239.724 738.573 237.878 735.968 235.25C733.388 232.622 732.098 229.272 732.098 225.2C732.098 221.697 733.045 218.678 734.939 216.145C736.856 213.612 739.543 211.659 743 210.286C746.48 208.912 750.552 208.226 755.216 208.226C762.105 208.226 767.526 209.682 771.48 212.594C775.457 215.506 777.777 219.471 778.44 224.49ZM812.222 208.936V220.3H779.374V208.936H812.222ZM786.831 195.868H801.959V246.72C801.959 248.117 802.172 249.206 802.598 249.987C803.024 250.745 803.616 251.277 804.374 251.585C805.155 251.893 806.054 252.047 807.072 252.047C807.783 252.047 808.493 251.988 809.203 251.869C809.913 251.727 810.458 251.621 810.837 251.55L813.216 262.807C812.458 263.044 811.393 263.316 810.02 263.624C808.647 263.955 806.978 264.156 805.013 264.227C801.367 264.369 798.171 263.884 795.425 262.771C792.702 261.659 790.583 259.93 789.068 257.587C787.553 255.243 786.807 252.284 786.831 248.709V195.868ZM831.63 264.511C828.15 264.511 825.049 263.908 822.326 262.7C819.603 261.469 817.449 259.658 815.863 257.267C814.3 254.852 813.519 251.846 813.519 248.247C813.519 245.217 814.076 242.672 815.188 240.612C816.301 238.553 817.816 236.895 819.734 235.641C821.651 234.386 823.829 233.439 826.268 232.8C828.73 232.161 831.31 231.711 834.009 231.45C837.182 231.119 839.738 230.811 841.68 230.527C843.621 230.219 845.03 229.769 845.906 229.178C846.781 228.586 847.219 227.71 847.219 226.55V226.337C847.219 224.088 846.509 222.348 845.089 221.117C843.692 219.885 841.703 219.27 839.123 219.27C836.4 219.27 834.234 219.874 832.624 221.081C831.014 222.265 829.949 223.756 829.428 225.555L815.437 224.419C816.147 221.105 817.544 218.24 819.627 215.825C821.71 213.387 824.397 211.517 827.688 210.215C831.003 208.889 834.838 208.226 839.194 208.226C842.224 208.226 845.124 208.581 847.894 209.291C850.688 210.001 853.162 211.102 855.316 212.594C857.494 214.085 859.21 216.003 860.465 218.347C861.72 220.667 862.347 223.448 862.347 226.692V263.482H848.001V255.918H847.575C846.699 257.622 845.527 259.126 844.059 260.428C842.591 261.706 840.827 262.712 838.768 263.446C836.708 264.156 834.329 264.511 831.63 264.511ZM835.962 254.071C838.188 254.071 840.153 253.633 841.857 252.757C843.562 251.858 844.899 250.65 845.87 249.135C846.841 247.62 847.326 245.903 847.326 243.986V238.197C846.853 238.505 846.201 238.789 845.373 239.05C844.568 239.286 843.656 239.511 842.638 239.724C841.621 239.914 840.603 240.091 839.585 240.257C838.567 240.399 837.643 240.529 836.815 240.648C835.039 240.908 833.488 241.322 832.163 241.891C830.837 242.459 829.807 243.228 829.073 244.199C828.339 245.146 827.972 246.33 827.972 247.75C827.972 249.81 828.718 251.384 830.21 252.473C831.725 253.538 833.642 254.071 835.962 254.071ZM883.212 231.947V263.482H868.084V208.936H882.501V218.56H883.141C884.348 215.387 886.372 212.878 889.213 211.031C892.054 209.161 895.499 208.226 899.547 208.226C903.335 208.226 906.637 209.054 909.455 210.712C912.272 212.369 914.462 214.736 916.024 217.814C917.587 220.868 918.368 224.514 918.368 228.751V263.482H903.24V231.45C903.264 228.112 902.411 225.508 900.683 223.638C898.955 221.744 896.576 220.797 893.545 220.797C891.509 220.797 889.71 221.235 888.148 222.111C886.609 222.987 885.402 224.265 884.526 225.946C883.673 227.603 883.235 229.604 883.212 231.947ZM954.859 190.754L972.437 246.01H973.112L990.725 190.754H1007.77L982.7 263.482H962.884L937.778 190.754H954.859ZM1010.24 263.482V208.936H1025.37V263.482H1010.24ZM1017.84 201.905C1015.59 201.905 1013.66 201.159 1012.05 199.668C1010.46 198.152 1009.67 196.341 1009.67 194.234C1009.67 192.151 1010.46 190.364 1012.05 188.872C1013.66 187.357 1015.59 186.599 1017.84 186.599C1020.09 186.599 1022.01 187.357 1023.59 188.872C1025.2 190.364 1026.01 192.151 1026.01 194.234C1026.01 196.341 1025.2 198.152 1023.59 199.668C1022.01 201.159 1020.09 201.905 1017.84 201.905ZM1051.59 264.369C1047.44 264.369 1043.69 263.304 1040.33 261.173C1036.99 259.019 1034.34 255.858 1032.37 251.692C1030.43 247.501 1029.46 242.364 1029.46 236.28C1029.46 230.03 1030.47 224.833 1032.48 220.69C1034.49 216.524 1037.17 213.411 1040.51 211.351C1043.87 209.268 1047.55 208.226 1051.55 208.226C1054.6 208.226 1057.15 208.747 1059.19 209.788C1061.24 210.806 1062.9 212.085 1064.16 213.624C1065.44 215.139 1066.41 216.63 1067.07 218.098H1067.53V190.754H1082.62V263.482H1067.71V254.746H1067.07C1066.36 256.261 1065.35 257.764 1064.05 259.256C1062.77 260.724 1061.1 261.943 1059.04 262.913C1057.01 263.884 1054.52 264.369 1051.59 264.369ZM1056.38 252.331C1058.82 252.331 1060.88 251.668 1062.56 250.342C1064.26 248.993 1065.57 247.111 1066.46 244.696C1067.39 242.281 1067.85 239.452 1067.85 236.209C1067.85 232.965 1067.4 230.148 1066.5 227.757C1065.6 225.366 1064.3 223.519 1062.59 222.217C1060.89 220.915 1058.82 220.264 1056.38 220.264C1053.89 220.264 1051.8 220.939 1050.09 222.288C1048.39 223.638 1047.1 225.508 1046.22 227.899C1045.35 230.29 1044.91 233.06 1044.91 236.209C1044.91 239.381 1045.35 242.187 1046.22 244.625C1047.12 247.04 1048.41 248.934 1050.09 250.307C1051.8 251.656 1053.89 252.331 1056.38 252.331ZM1104.61 264.511C1101.13 264.511 1098.03 263.908 1095.31 262.7C1092.59 261.469 1090.43 259.658 1088.85 257.267C1087.28 254.852 1086.5 251.846 1086.5 248.247C1086.5 245.217 1087.06 242.672 1088.17 240.612C1089.29 238.553 1090.8 236.895 1092.72 235.641C1094.64 234.386 1096.81 233.439 1099.25 232.8C1101.71 232.161 1104.29 231.711 1106.99 231.45C1110.17 231.119 1112.72 230.811 1114.66 230.527C1116.61 230.219 1118.01 229.769 1118.89 229.178C1119.77 228.586 1120.2 227.71 1120.2 226.55V226.337C1120.2 224.088 1119.49 222.348 1118.07 221.117C1116.68 219.885 1114.69 219.27 1112.11 219.27C1109.38 219.27 1107.22 219.874 1105.61 221.081C1104 222.265 1102.93 223.756 1102.41 225.555L1088.42 224.419C1089.13 221.105 1090.53 218.24 1092.61 215.825C1094.69 213.387 1097.38 211.517 1100.67 210.215C1103.99 208.889 1107.82 208.226 1112.18 208.226C1115.21 208.226 1118.11 208.581 1120.88 209.291C1123.67 210.001 1126.15 211.102 1128.3 212.594C1130.48 214.085 1132.19 216.003 1133.45 218.347C1134.7 220.667 1135.33 223.448 1135.33 226.692V263.482H1120.99V255.918H1120.56C1119.68 257.622 1118.51 259.126 1117.04 260.428C1115.58 261.706 1113.81 262.712 1111.75 263.446C1109.69 264.156 1107.31 264.511 1104.61 264.511ZM1108.95 254.071C1111.17 254.071 1113.14 253.633 1114.84 252.757C1116.55 251.858 1117.88 250.65 1118.85 249.135C1119.83 247.62 1120.31 245.903 1120.31 243.986V238.197C1119.84 238.505 1119.19 238.789 1118.36 239.05C1117.55 239.286 1116.64 239.511 1115.62 239.724C1114.6 239.914 1113.59 240.091 1112.57 240.257C1111.55 240.399 1110.63 240.529 1109.8 240.648C1108.02 240.908 1106.47 241.322 1105.15 241.891C1103.82 242.459 1102.79 243.228 1102.06 244.199C1101.32 245.146 1100.96 246.33 1100.96 247.75C1100.96 249.81 1101.7 251.384 1103.19 252.473C1104.71 253.538 1106.63 254.071 1108.95 254.071ZM1156.2 190.754V263.482H1141.07V190.754H1156.2Z" fill="white"/>
</g>
<defs>
<clipPath id="clip0_0_1">
<rect width="1777" height="1556" fill="white"/>
</clipPath>
<clipPath id="clip1_0_1">
<rect width="1566" height="1133.12" fill="white" transform="translate(647 -466)"/>
</clipPath>
</defs>
</svg>
