<svg width="1777" height="370" viewBox="0 0 1777 370" fill="none" xmlns="http://www.w3.org/2000/svg">
<rect width="1777" height="370" rx="30" fill="black"/>
<mask id="mask0_102_22" style="mask-type:alpha" maskUnits="userSpaceOnUse" x="874" y="-57" width="1808" height="441">
<path d="M2675.68 357.258L2676.19 357.155L2017.3 -39.5096L2017.02 -39.4545C2002.52 -49.8013 1972.23 -57 1936.88 -57C1900.59 -57 1869.49 -49.45 1855.48 -38.6485L1416.99 225.326L1309.63 160.696L1309.5 160.724C1301.85 155.268 1285.89 151.465 1267.22 151.465C1248.12 151.465 1231.73 155.447 1224.34 161.123L911.358 349.557H909.951V350.397L879.648 368.638C876.14 370.236 874 372.207 874 374.37C874 379.633 886.268 383.897 901.389 383.897C904.402 383.897 907.236 383.69 909.951 383.373V384H1246.87H1643.24H2634.18V383.656C2660.91 382.912 2682 375.224 2682 365.738C2682.02 362.652 2679.58 359.8 2675.68 357.258Z" fill="#07080B"/>
</mask>
<g mask="url(#mask0_102_22)">
<rect width="1777" height="370" rx="30" fill="#07080B"/>
</g>
<path d="M619.274 141.95V129.273H679.004V141.95H656.738V202H641.539V141.95H619.274ZM676.892 202V147.455H691.559V156.972H692.127C693.121 153.586 694.79 151.029 697.134 149.301C699.478 147.549 702.176 146.673 705.23 146.673C705.988 146.673 706.805 146.721 707.681 146.815C708.557 146.91 709.326 147.04 709.989 147.206V160.629C709.279 160.416 708.296 160.227 707.042 160.061C705.787 159.895 704.639 159.812 703.597 159.812C701.372 159.812 699.383 160.298 697.631 161.268C695.903 162.215 694.53 163.541 693.512 165.246C692.517 166.95 692.02 168.915 692.02 171.141V202H676.892ZM711.81 202V147.455H726.938V202H711.81ZM719.41 140.423C717.161 140.423 715.231 139.678 713.621 138.186C712.035 136.671 711.242 134.86 711.242 132.753C711.242 130.67 712.035 128.882 713.621 127.391C715.231 125.875 717.161 125.118 719.41 125.118C721.659 125.118 723.576 125.875 725.163 127.391C726.772 128.882 727.577 130.67 727.577 132.753C727.577 134.86 726.772 136.671 725.163 138.186C723.576 139.678 721.659 140.423 719.41 140.423ZM778.44 163.009L764.591 163.861C764.354 162.677 763.845 161.612 763.064 160.665C762.282 159.694 761.252 158.925 759.974 158.357C758.719 157.765 757.216 157.469 755.464 157.469C753.12 157.469 751.144 157.966 749.534 158.96C747.924 159.931 747.119 161.233 747.119 162.866C747.119 164.169 747.64 165.269 748.681 166.169C749.723 167.069 751.511 167.791 754.044 168.335L763.916 170.324C769.219 171.413 773.172 173.165 775.777 175.58C778.381 177.994 779.683 181.167 779.683 185.097C779.683 188.671 778.629 191.808 776.522 194.507C774.439 197.206 771.574 199.313 767.929 200.828C764.306 202.32 760.128 203.065 755.393 203.065C748.172 203.065 742.42 201.562 738.135 198.555C733.873 195.525 731.376 191.406 730.642 186.197L745.521 185.416C745.971 187.618 747.06 189.299 748.788 190.459C750.516 191.595 752.73 192.163 755.429 192.163C758.08 192.163 760.211 191.654 761.821 190.636C763.454 189.595 764.283 188.257 764.306 186.624C764.283 185.25 763.703 184.126 762.566 183.25C761.43 182.35 759.678 181.664 757.311 181.19L747.865 179.308C742.538 178.243 738.573 176.396 735.968 173.768C733.388 171.141 732.098 167.791 732.098 163.719C732.098 160.215 733.045 157.196 734.939 154.663C736.856 152.13 739.543 150.177 743 148.804C746.48 147.431 750.552 146.744 755.216 146.744C762.105 146.744 767.526 148.2 771.48 151.112C775.457 154.024 777.777 157.99 778.44 163.009ZM812.222 147.455V158.818H779.374V147.455H812.222ZM786.831 134.386H801.959V185.239C801.959 186.635 802.172 187.724 802.598 188.506C803.024 189.263 803.616 189.796 804.374 190.104C805.155 190.411 806.054 190.565 807.072 190.565C807.783 190.565 808.493 190.506 809.203 190.388C809.913 190.246 810.458 190.139 810.837 190.068L813.216 201.325C812.458 201.562 811.393 201.834 810.02 202.142C808.647 202.473 806.978 202.675 805.013 202.746C801.367 202.888 798.171 202.402 795.425 201.29C792.702 200.177 790.583 198.449 789.068 196.105C787.553 193.761 786.807 190.802 786.831 187.227V134.386ZM831.63 203.03C828.15 203.03 825.049 202.426 822.326 201.219C819.603 199.988 817.449 198.177 815.863 195.786C814.3 193.371 813.519 190.364 813.519 186.766C813.519 183.735 814.076 181.19 815.188 179.131C816.301 177.071 817.816 175.414 819.734 174.159C821.651 172.904 823.829 171.957 826.268 171.318C828.73 170.679 831.31 170.229 834.009 169.969C837.182 169.637 839.738 169.33 841.68 169.045C843.621 168.738 845.03 168.288 845.906 167.696C846.781 167.104 847.219 166.228 847.219 165.068V164.855C847.219 162.606 846.509 160.866 845.089 159.635C843.692 158.404 841.703 157.788 839.123 157.788C836.4 157.788 834.234 158.392 832.624 159.599C831.014 160.783 829.949 162.275 829.428 164.074L815.437 162.938C816.147 159.623 817.544 156.759 819.627 154.344C821.71 151.905 824.397 150.035 827.688 148.733C831.003 147.407 834.838 146.744 839.194 146.744C842.224 146.744 845.124 147.099 847.894 147.81C850.688 148.52 853.162 149.621 855.316 151.112C857.494 152.604 859.21 154.521 860.465 156.865C861.72 159.185 862.347 161.967 862.347 165.21V202H848.001V194.436H847.575C846.699 196.141 845.527 197.644 844.059 198.946C842.591 200.224 840.827 201.231 838.768 201.964C836.708 202.675 834.329 203.03 831.63 203.03ZM835.962 192.589C838.188 192.589 840.153 192.152 841.857 191.276C843.562 190.376 844.899 189.169 845.87 187.653C846.841 186.138 847.326 184.422 847.326 182.504V176.716C846.853 177.024 846.201 177.308 845.373 177.568C844.568 177.805 843.656 178.03 842.638 178.243C841.621 178.432 840.603 178.61 839.585 178.776C838.567 178.918 837.643 179.048 836.815 179.166C835.039 179.427 833.488 179.841 832.163 180.409C830.837 180.977 829.807 181.747 829.073 182.717C828.339 183.664 827.972 184.848 827.972 186.268C827.972 188.328 828.718 189.902 830.21 190.991C831.725 192.057 833.642 192.589 835.962 192.589ZM883.212 170.466V202H868.084V147.455H882.501V157.078H883.141C884.348 153.906 886.372 151.396 889.213 149.55C892.054 147.679 895.499 146.744 899.547 146.744C903.335 146.744 906.637 147.573 909.455 149.23C912.272 150.887 914.462 153.255 916.024 156.332C917.587 159.386 918.368 163.032 918.368 167.27V202H903.24V169.969C903.264 166.631 902.411 164.027 900.683 162.156C898.955 160.262 896.576 159.315 893.545 159.315C891.509 159.315 889.71 159.753 888.148 160.629C886.609 161.505 885.402 162.784 884.526 164.464C883.673 166.122 883.235 168.122 883.212 170.466ZM954.859 129.273L972.437 184.528H973.112L990.725 129.273H1007.77L982.7 202H962.884L937.778 129.273H954.859ZM1010.24 202V147.455H1025.37V202H1010.24ZM1017.84 140.423C1015.59 140.423 1013.66 139.678 1012.05 138.186C1010.46 136.671 1009.67 134.86 1009.67 132.753C1009.67 130.67 1010.46 128.882 1012.05 127.391C1013.66 125.875 1015.59 125.118 1017.84 125.118C1020.09 125.118 1022.01 125.875 1023.59 127.391C1025.2 128.882 1026.01 130.67 1026.01 132.753C1026.01 134.86 1025.2 136.671 1023.59 138.186C1022.01 139.678 1020.09 140.423 1017.84 140.423ZM1051.59 202.888C1047.44 202.888 1043.69 201.822 1040.33 199.692C1036.99 197.537 1034.34 194.377 1032.37 190.21C1030.43 186.02 1029.46 180.883 1029.46 174.798C1029.46 168.548 1030.47 163.352 1032.48 159.209C1034.49 155.042 1037.17 151.929 1040.51 149.869C1043.87 147.786 1047.55 146.744 1051.55 146.744C1054.6 146.744 1057.15 147.265 1059.19 148.307C1061.24 149.325 1062.9 150.603 1064.16 152.142C1065.44 153.657 1066.41 155.149 1067.07 156.616H1067.53V129.273H1082.62V202H1067.71V193.264H1067.07C1066.36 194.779 1065.35 196.283 1064.05 197.774C1062.77 199.242 1061.1 200.461 1059.04 201.432C1057.01 202.402 1054.52 202.888 1051.59 202.888ZM1056.38 190.849C1058.82 190.849 1060.88 190.187 1062.56 188.861C1064.26 187.511 1065.57 185.629 1066.46 183.214C1067.39 180.8 1067.85 177.971 1067.85 174.727C1067.85 171.484 1067.4 168.667 1066.5 166.276C1065.6 163.884 1064.3 162.038 1062.59 160.736C1060.89 159.434 1058.82 158.783 1056.38 158.783C1053.89 158.783 1051.8 159.457 1050.09 160.807C1048.39 162.156 1047.1 164.027 1046.22 166.418C1045.35 168.809 1044.91 171.579 1044.91 174.727C1044.91 177.9 1045.35 180.705 1046.22 183.143C1047.12 185.558 1048.41 187.452 1050.09 188.825C1051.8 190.175 1053.89 190.849 1056.38 190.849ZM1104.61 203.03C1101.13 203.03 1098.03 202.426 1095.31 201.219C1092.59 199.988 1090.43 198.177 1088.85 195.786C1087.28 193.371 1086.5 190.364 1086.5 186.766C1086.5 183.735 1087.06 181.19 1088.17 179.131C1089.29 177.071 1090.8 175.414 1092.72 174.159C1094.64 172.904 1096.81 171.957 1099.25 171.318C1101.71 170.679 1104.29 170.229 1106.99 169.969C1110.17 169.637 1112.72 169.33 1114.66 169.045C1116.61 168.738 1118.01 168.288 1118.89 167.696C1119.77 167.104 1120.2 166.228 1120.2 165.068V164.855C1120.2 162.606 1119.49 160.866 1118.07 159.635C1116.68 158.404 1114.69 157.788 1112.11 157.788C1109.38 157.788 1107.22 158.392 1105.61 159.599C1104 160.783 1102.93 162.275 1102.41 164.074L1088.42 162.938C1089.13 159.623 1090.53 156.759 1092.61 154.344C1094.69 151.905 1097.38 150.035 1100.67 148.733C1103.99 147.407 1107.82 146.744 1112.18 146.744C1115.21 146.744 1118.11 147.099 1120.88 147.81C1123.67 148.52 1126.15 149.621 1128.3 151.112C1130.48 152.604 1132.19 154.521 1133.45 156.865C1134.7 159.185 1135.33 161.967 1135.33 165.21V202H1120.99V194.436H1120.56C1119.68 196.141 1118.51 197.644 1117.04 198.946C1115.58 200.224 1113.81 201.231 1111.75 201.964C1109.69 202.675 1107.31 203.03 1104.61 203.03ZM1108.95 192.589C1111.17 192.589 1113.14 192.152 1114.84 191.276C1116.55 190.376 1117.88 189.169 1118.85 187.653C1119.83 186.138 1120.31 184.422 1120.31 182.504V176.716C1119.84 177.024 1119.19 177.308 1118.36 177.568C1117.55 177.805 1116.64 178.03 1115.62 178.243C1114.6 178.432 1113.59 178.61 1112.57 178.776C1111.55 178.918 1110.63 179.048 1109.8 179.166C1108.02 179.427 1106.47 179.841 1105.15 180.409C1103.82 180.977 1102.79 181.747 1102.06 182.717C1101.32 183.664 1100.96 184.848 1100.96 186.268C1100.96 188.328 1101.7 189.902 1103.19 190.991C1104.71 192.057 1106.63 192.589 1108.95 192.589ZM1156.2 129.273V202H1141.07V129.273H1156.2Z" fill="white"/>
<g clip-path="url(#clip0_102_22)">
<path d="M1200.65 275.593L1201.13 277.72C1201.13 278.429 1201.37 278.901 1201.85 279.61V280.082L1201.61 280.791L1199.93 281.736L1199.45 281.973L1198.73 281.736L1197.77 280.555L1197.05 279.137C1195.13 281.264 1192.73 282.445 1190.09 282.445C1187.92 282.445 1186.24 281.736 1185.28 280.555C1184.08 279.61 1183.36 277.956 1183.36 276.066C1183.36 274.176 1184.08 272.522 1185.52 271.341C1186.96 269.923 1188.88 269.451 1191.53 269.451C1193.31 269.441 1195.09 269.68 1196.81 270.159V268.506C1196.81 266.615 1196.33 265.434 1195.61 264.725C1194.89 263.78 1193.69 263.544 1191.77 263.544L1189.12 263.78C1187.97 264.07 1186.84 264.466 1185.76 264.962H1185.28C1185.04 264.962 1184.8 264.725 1184.8 264.253V263.071L1185.04 262.363C1185.04 262.126 1185.28 261.89 1185.76 261.89L1188.64 260.709L1192.49 260.236C1195.37 260.236 1197.29 260.945 1198.73 262.126C1199.93 263.544 1200.65 265.434 1200.65 268.033V275.593ZM1191.05 279.374L1193.45 278.901C1194.41 278.665 1195.13 277.956 1195.85 277.247L1196.57 275.83L1196.81 273.703V272.758C1195.31 272.431 1193.78 272.272 1192.25 272.286C1190.81 272.286 1189.61 272.522 1188.64 273.231C1187.92 273.703 1187.68 274.648 1187.68 275.83C1187.68 277.011 1187.92 277.72 1188.4 278.429C1189.12 278.901 1189.85 279.374 1191.05 279.374ZM1210.26 281.736L1209.3 281.5L1208.82 280.791L1203.29 262.363L1203.05 261.418L1203.53 260.945H1205.93L1206.89 261.181L1207.37 262.126L1211.46 277.72L1215.06 262.126L1215.54 261.181L1216.5 260.945H1218.42L1219.38 261.181L1219.86 262.126L1223.7 277.956L1227.79 262.126L1228.27 261.181L1229.23 260.945H1231.39C1231.87 260.945 1232.11 261.181 1232.11 261.418V261.89L1231.87 262.363L1226.11 280.791L1225.62 281.736L1224.66 281.973H1222.5L1221.54 281.736L1221.3 280.791L1217.46 265.434L1213.86 280.555L1213.38 281.5L1212.42 281.736H1210.26ZM1241.23 282.445C1238.99 282.428 1236.79 281.945 1234.75 281.027L1234.03 280.319L1233.79 279.846V278.665C1233.79 278.192 1234.03 277.956 1234.27 277.956H1234.75L1235.47 278.192C1237.2 278.981 1239.09 279.384 1240.99 279.374C1242.43 279.374 1243.63 278.901 1244.36 278.429C1245.32 277.956 1245.56 277.247 1245.56 276.302L1245.08 274.648L1242.67 273.467L1239.07 272.286C1237.39 271.813 1235.95 270.868 1235.23 269.923C1234.76 269.322 1234.42 268.634 1234.23 267.902C1234.04 267.169 1234 266.406 1234.11 265.658C1234.22 264.909 1234.48 264.19 1234.88 263.543C1235.28 262.896 1235.81 262.334 1236.43 261.89L1238.83 260.709C1240.37 260.189 1242.02 260.027 1243.63 260.236C1244.61 260.419 1245.57 260.656 1246.52 260.945L1247.48 261.418L1248.2 261.89L1248.44 262.835V263.78C1248.44 264.489 1248.2 264.725 1247.96 264.725L1247 264.253C1245.56 263.78 1244.12 263.544 1242.43 263.544C1240.99 263.544 1239.79 263.544 1239.07 264.016C1238.35 264.489 1238.11 265.198 1238.11 266.143C1238.11 266.852 1238.35 267.324 1238.83 267.797C1239.31 268.269 1240.03 268.742 1241.47 269.214L1244.84 270.159C1246.52 270.868 1247.72 271.577 1248.44 272.522C1249.16 273.467 1249.64 274.648 1249.64 275.83L1248.92 278.665L1247.24 280.555C1246.52 281.264 1245.56 281.736 1244.6 281.973L1241.23 282.445Z" fill="white"/>
<path fill-rule="evenodd" clip-rule="evenodd" d="M1245.8 294.022C1236 300.459 1224.3 303.49 1212.55 302.634C1200.8 301.778 1189.69 297.083 1180.96 289.297C1180 288.588 1180.72 287.879 1181.44 288.352C1190.98 293.669 1201.63 296.774 1212.57 297.429C1223.52 298.084 1234.47 296.272 1244.6 292.132C1245.8 291.659 1247 293.077 1245.8 294.022Z" fill="#FF9900"/>
<path fill-rule="evenodd" clip-rule="evenodd" d="M1248.92 290.242C1247.96 289.06 1242.19 289.533 1239.79 290.005C1238.83 290.005 1238.83 289.297 1239.55 288.824C1244.12 285.753 1251.56 286.698 1252.28 287.643C1253.24 288.824 1252.04 296.148 1247.96 299.692C1247.24 300.165 1246.52 299.929 1246.76 299.22C1247.96 296.857 1249.88 291.423 1248.92 290.242Z" fill="#FF9900"/>
</g>
<g clip-path="url(#clip1_102_22)">
<path d="M585.332 269.234C584.693 269.016 584.049 268.814 583.401 268.628C583.51 268.184 583.61 267.746 583.699 267.315C585.161 260.246 584.205 254.552 580.941 252.676C577.811 250.879 572.692 252.753 567.522 257.235C567.012 257.677 566.514 258.132 566.028 258.6C565.702 258.289 565.371 257.984 565.034 257.686C559.615 252.894 554.184 250.874 550.923 252.755C547.796 254.558 546.87 259.911 548.186 266.611C548.317 267.274 548.465 267.935 548.63 268.591C547.861 268.808 547.119 269.04 546.409 269.286C540.057 271.492 536 274.949 536 278.535C536 282.239 540.355 285.954 546.972 288.206C547.508 288.388 548.049 288.557 548.594 288.712C548.417 289.418 548.26 290.13 548.123 290.845C546.868 297.428 547.848 302.655 550.966 304.447C554.188 306.297 559.594 304.396 564.859 299.812C565.285 299.439 565.703 299.056 566.111 298.663C566.637 299.169 567.178 299.66 567.732 300.137C572.832 304.507 577.868 306.272 580.984 304.475C584.202 302.62 585.248 297.004 583.89 290.173C583.783 289.637 583.663 289.105 583.531 288.575C583.91 288.463 584.283 288.348 584.646 288.228C591.525 285.958 596 282.288 596 278.535C596 274.936 591.812 271.456 585.332 269.234ZM583.84 285.805C583.512 285.913 583.175 286.017 582.832 286.119C582.073 283.724 581.048 281.178 579.794 278.548C580.991 275.98 581.976 273.466 582.714 271.087C583.328 271.264 583.924 271.451 584.498 271.648C590.05 273.552 593.437 276.366 593.437 278.535C593.437 280.846 589.779 283.845 583.84 285.805ZM581.376 290.669C581.976 293.689 582.062 296.421 581.664 298.556C581.307 300.475 580.588 301.754 579.7 302.266C577.809 303.356 573.765 301.939 569.404 298.201C568.889 297.759 568.386 297.302 567.896 296.831C569.586 294.989 571.276 292.848 572.925 290.471C575.826 290.214 578.566 289.795 581.051 289.223C581.173 289.715 581.282 290.197 581.376 290.669ZM556.455 302.078C554.608 302.727 553.137 302.746 552.247 302.235C550.355 301.148 549.568 296.951 550.641 291.321C550.769 290.656 550.915 289.994 551.079 289.337C553.537 289.879 556.257 290.268 559.164 290.503C560.825 292.83 562.563 294.968 564.315 296.841C563.943 297.2 563.562 297.55 563.172 297.89C560.844 299.916 558.511 301.355 556.455 302.078ZM547.801 285.791C544.875 284.795 542.459 283.5 540.803 282.087C539.315 280.818 538.563 279.558 538.563 278.535C538.563 276.359 541.82 273.583 547.253 271.697C547.912 271.468 548.602 271.252 549.318 271.05C550.069 273.482 551.054 276.026 552.243 278.597C551.039 281.207 550.04 283.791 549.282 286.253C548.784 286.111 548.291 285.957 547.801 285.791ZM550.702 266.12C549.574 260.381 550.323 256.051 552.208 254.964C554.215 253.807 558.654 255.457 563.332 259.595C563.637 259.865 563.937 260.141 564.232 260.422C562.489 262.287 560.766 264.41 559.121 266.722C556.299 266.983 553.598 267.401 551.114 267.962C550.961 267.352 550.824 266.738 550.702 266.12ZM576.583 272.486C575.997 271.477 575.388 270.48 574.759 269.497C576.673 269.738 578.507 270.058 580.23 270.45C579.713 272.101 579.068 273.827 578.309 275.596C577.755 274.548 577.179 273.511 576.583 272.486ZM566.029 262.247C567.211 263.523 568.395 264.947 569.56 266.492C567.197 266.381 564.831 266.381 562.468 266.491C563.634 264.96 564.828 263.537 566.029 262.247ZM555.407 272.504C554.818 273.52 554.253 274.551 553.713 275.594C552.967 273.831 552.328 272.097 551.806 270.423C553.518 270.041 555.344 269.729 557.246 269.493C556.609 270.482 555.996 271.486 555.407 272.504ZM557.301 287.76C555.335 287.541 553.483 287.245 551.771 286.874C552.301 285.17 552.954 283.399 553.716 281.598C554.258 282.642 554.826 283.673 555.417 284.691C556.025 285.736 556.654 286.761 557.301 287.76ZM566.1 295.004C564.885 293.698 563.673 292.254 562.49 290.7C563.638 290.745 564.81 290.768 566 290.768C567.223 290.768 568.432 290.741 569.622 290.688C568.453 292.269 567.274 293.716 566.1 295.004ZM578.334 281.506C579.136 283.327 579.811 285.089 580.348 286.764C578.609 287.159 576.73 287.478 574.751 287.714C575.385 286.713 576 285.699 576.593 284.673C577.197 283.631 577.777 282.575 578.334 281.506ZM574.373 283.398C573.464 284.97 572.504 286.513 571.495 288.023C569.666 288.152 567.833 288.216 566 288.215C564.133 288.215 562.317 288.158 560.568 288.045C559.532 286.538 558.553 284.992 557.635 283.412C556.721 281.839 555.867 280.233 555.075 278.596C555.865 276.959 556.716 275.352 557.627 273.779L557.627 273.779C558.538 272.205 559.508 270.666 560.536 269.166C562.321 269.031 564.151 268.961 566 268.961C567.857 268.961 569.69 269.032 571.474 269.167C572.491 270.666 573.456 272.199 574.365 273.765C575.279 275.335 576.141 276.934 576.951 278.56C576.15 280.203 575.29 281.816 574.373 283.398ZM579.661 254.888C581.67 256.042 582.451 260.697 581.189 266.8C581.108 267.189 581.018 267.586 580.919 267.988C578.43 267.416 575.727 266.99 572.896 266.726C571.248 264.387 569.54 262.261 567.825 260.421C568.274 259.989 568.734 259.569 569.205 259.16C573.634 255.321 577.774 253.805 579.661 254.888ZM566 273.199C568.959 273.199 571.358 275.588 571.358 278.535C571.358 281.483 568.959 283.872 566 283.872C563.041 283.872 560.642 281.483 560.642 278.535C560.642 275.588 563.041 273.199 566 273.199Z" fill="#00D8FF"/>
</g>
<path d="M671.685 253.75C684.76 253.75 683.944 259.42 683.944 259.42L683.928 265.294H671.452V267.056H688.886C688.886 267.056 697.25 266.107 697.25 279.3C697.25 292.491 689.948 292.024 689.948 292.024H685.59V285.902C685.59 285.902 685.825 278.6 678.404 278.6H666.031C666.031 278.6 659.079 278.713 659.079 271.881V260.585C659.079 260.585 658.023 253.75 671.685 253.75ZM678.565 257.699C677.97 257.699 677.399 257.936 676.978 258.357C676.557 258.778 676.32 259.349 676.32 259.944C676.32 260.54 676.557 261.111 676.978 261.532C677.399 261.953 677.97 262.19 678.565 262.19C678.86 262.19 679.152 262.132 679.425 262.02C679.697 261.907 679.945 261.741 680.154 261.533C680.362 261.324 680.528 261.077 680.64 260.804C680.753 260.532 680.811 260.239 680.81 259.944C680.81 258.704 679.806 257.699 678.565 257.699Z" fill="url(#paint0_linear_102_22)"/>
<path d="M671.315 304.981C658.24 304.981 659.056 299.311 659.056 299.311L659.072 293.437H671.548V291.675H654.116C654.116 291.675 645.75 292.624 645.75 279.432C645.75 266.24 653.052 266.709 653.052 266.709H657.41V272.829C657.41 272.829 657.175 280.131 664.596 280.131H676.969C676.969 280.131 683.921 280.018 683.921 286.85V298.146C683.921 298.146 684.977 304.981 671.315 304.981ZM664.435 301.032C664.73 301.032 665.022 300.974 665.294 300.862C665.567 300.749 665.815 300.584 666.023 300.375C666.232 300.167 666.397 299.919 666.51 299.646C666.623 299.374 666.68 299.082 666.68 298.787C666.68 298.343 666.548 297.91 666.301 297.541C666.055 297.172 665.704 296.885 665.294 296.715C664.884 296.546 664.433 296.501 663.998 296.588C663.563 296.675 663.164 296.888 662.85 297.202C662.536 297.516 662.323 297.915 662.236 298.35C662.15 298.785 662.194 299.236 662.363 299.646C662.533 300.056 662.82 300.406 663.189 300.653C663.558 300.9 663.991 301.032 664.435 301.032Z" fill="url(#paint1_linear_102_22)"/>
<g clip-path="url(#clip2_102_22)">
<path d="M785 304.905C784.286 304.905 783.619 304.718 783 304.391L776.667 300.696C775.714 300.182 776.19 299.995 776.476 299.901C777.762 299.48 778 299.387 779.333 298.638C779.476 298.545 779.667 298.592 779.809 298.685L784.667 301.538C784.857 301.632 785.095 301.632 785.238 301.538L804.238 290.735C804.429 290.642 804.524 290.455 804.524 290.221V268.661C804.524 268.427 804.429 268.24 804.238 268.147L785.238 257.39C785.048 257.297 784.81 257.297 784.667 257.39L765.667 268.147C765.476 268.24 765.381 268.474 765.381 268.661V290.221C765.381 290.408 765.476 290.642 765.667 290.735L770.857 293.681C773.667 295.084 775.428 293.447 775.428 291.811V270.532C775.428 270.251 775.667 269.97 776 269.97H778.429C778.714 269.97 779 270.204 779 270.532V291.81C779 295.505 776.952 297.656 773.381 297.656C772.286 297.656 771.429 297.656 769 296.487L764 293.681C762.762 292.98 762 291.67 762 290.267V268.708C762 267.305 762.762 265.996 764 265.294L783 254.491C784.191 253.836 785.809 253.836 787 254.491L806 265.294C807.238 265.996 808 267.305 808 268.708V290.267C808 291.67 807.238 292.98 806 293.681L787 304.485C786.381 304.765 785.667 304.906 785 304.906V304.905ZM790.857 290.08C782.524 290.08 780.81 286.339 780.81 283.159C780.81 282.878 781.048 282.598 781.381 282.598H783.857C784.143 282.598 784.381 282.785 784.381 283.065C784.762 285.544 785.857 286.76 790.905 286.76C794.905 286.76 796.619 285.871 796.619 283.767C796.619 282.551 796.143 281.662 789.905 281.054C784.714 280.54 781.476 279.417 781.476 275.349C781.476 271.561 784.714 269.316 790.143 269.316C796.238 269.316 799.238 271.374 799.619 275.863C799.619 276.003 799.571 276.144 799.476 276.284C799.381 276.378 799.238 276.471 799.095 276.471H796.619C796.381 276.471 796.143 276.284 796.095 276.05C795.524 273.478 794.048 272.636 790.143 272.636C785.762 272.636 785.238 274.133 785.238 275.255C785.238 276.612 785.857 277.032 791.762 277.781C797.619 278.529 800.381 279.605 800.381 283.627C800.333 287.742 796.905 290.08 790.857 290.08Z" fill="#539E43"/>
</g>
<g clip-path="url(#clip3_102_22)">
<path d="M897.785 276.777H902.908C902.969 276.777 903.028 276.765 903.084 276.742C903.14 276.719 903.19 276.685 903.233 276.642C903.276 276.6 903.309 276.549 903.333 276.493C903.356 276.438 903.367 276.378 903.367 276.318V271.774C903.367 271.714 903.356 271.654 903.333 271.598C903.309 271.543 903.276 271.492 903.233 271.449C903.19 271.407 903.14 271.373 903.084 271.35C903.028 271.327 902.969 271.315 902.908 271.315H897.785C897.67 271.315 897.559 271.361 897.477 271.442C897.396 271.524 897.35 271.635 897.35 271.75V276.342C897.35 276.583 897.543 276.777 897.785 276.777ZM890.656 263.654H895.779C895.897 263.648 896.007 263.597 896.088 263.511C896.169 263.426 896.214 263.313 896.214 263.195V258.628C896.208 258.514 896.161 258.407 896.08 258.326C896 258.246 895.893 258.198 895.779 258.193H890.656C890.597 258.189 890.538 258.198 890.482 258.218C890.426 258.239 890.375 258.27 890.332 258.311C890.289 258.352 890.255 258.401 890.232 258.455C890.209 258.51 890.197 258.568 890.197 258.628V263.219C890.197 263.461 890.414 263.654 890.656 263.654ZM890.656 270.203H895.779C895.893 270.198 896 270.15 896.08 270.069C896.161 269.989 896.208 269.882 896.214 269.768V265.201C896.208 265.087 896.161 264.98 896.08 264.9C896 264.819 895.893 264.772 895.779 264.766H890.656C890.597 264.763 890.538 264.771 890.482 264.792C890.426 264.812 890.375 264.844 890.332 264.884C890.289 264.925 890.255 264.974 890.232 265.029C890.209 265.083 890.197 265.142 890.197 265.201V269.768C890.197 270.01 890.414 270.203 890.656 270.203ZM883.575 270.203H888.698C888.812 270.198 888.919 270.15 888.999 270.069C889.08 269.989 889.127 269.882 889.133 269.768V265.201C889.133 265.085 889.087 264.975 889.006 264.893C888.924 264.812 888.814 264.766 888.698 264.766H883.575C883.46 264.766 883.349 264.812 883.267 264.893C883.186 264.975 883.14 265.085 883.14 265.201V269.768C883.14 270.01 883.333 270.203 883.575 270.203ZM876.422 270.203H881.521C881.639 270.204 881.752 270.158 881.837 270.078C881.923 269.997 881.974 269.886 881.98 269.768V265.201C881.98 265.142 881.968 265.083 881.945 265.029C881.921 264.974 881.887 264.925 881.844 264.884C881.801 264.844 881.75 264.812 881.695 264.792C881.639 264.771 881.58 264.763 881.521 264.766H876.422C876.304 264.766 876.191 264.811 876.105 264.892C876.02 264.973 875.969 265.083 875.962 265.201V269.768C875.962 270.01 876.156 270.203 876.422 270.203ZM890.656 276.777H895.779C895.897 276.77 896.007 276.719 896.088 276.634C896.169 276.548 896.214 276.435 896.214 276.318V271.774C896.214 271.656 896.169 271.543 896.088 271.458C896.007 271.372 895.897 271.321 895.779 271.315H890.656C890.597 271.312 890.538 271.321 890.482 271.341C890.426 271.361 890.375 271.393 890.332 271.434C890.289 271.474 890.255 271.523 890.232 271.578C890.209 271.632 890.197 271.691 890.197 271.75V276.342C890.197 276.583 890.414 276.777 890.656 276.777ZM883.575 276.777H888.698C888.758 276.777 888.816 276.765 888.871 276.741C888.925 276.718 888.974 276.684 889.015 276.641C889.056 276.598 889.087 276.547 889.107 276.491C889.128 276.436 889.137 276.377 889.133 276.318V271.774C889.137 271.715 889.128 271.656 889.107 271.6C889.087 271.545 889.056 271.494 889.015 271.451C888.974 271.408 888.925 271.374 888.871 271.35C888.816 271.327 888.758 271.315 888.698 271.315H883.575C883.46 271.315 883.349 271.361 883.267 271.442C883.186 271.524 883.14 271.635 883.14 271.75V276.342C883.14 276.583 883.333 276.777 883.575 276.777ZM876.422 276.777H881.521C881.582 276.78 881.643 276.771 881.701 276.749C881.758 276.727 881.81 276.693 881.853 276.65C881.897 276.607 881.93 276.555 881.952 276.497C881.974 276.44 881.983 276.379 881.98 276.318V271.774C881.983 271.715 881.974 271.656 881.954 271.6C881.934 271.545 881.902 271.494 881.861 271.451C881.821 271.408 881.772 271.374 881.717 271.35C881.663 271.327 881.604 271.315 881.545 271.315H876.422C876.3 271.315 876.183 271.363 876.097 271.449C876.011 271.536 875.962 271.652 875.962 271.774V276.318C875.962 276.559 876.156 276.777 876.422 276.777ZM869.365 276.777H874.488C874.548 276.777 874.606 276.765 874.661 276.741C874.715 276.718 874.764 276.684 874.805 276.641C874.846 276.598 874.877 276.547 874.897 276.491C874.918 276.436 874.927 276.377 874.923 276.318V271.774C874.927 271.715 874.918 271.656 874.897 271.6C874.877 271.545 874.846 271.494 874.805 271.451C874.764 271.408 874.715 271.374 874.661 271.35C874.606 271.327 874.548 271.315 874.488 271.315H869.365C869.306 271.312 869.247 271.321 869.191 271.341C869.135 271.361 869.085 271.393 869.042 271.434C868.999 271.474 868.964 271.523 868.941 271.578C868.918 271.632 868.906 271.691 868.906 271.75V276.342C868.906 276.583 869.099 276.777 869.365 276.777ZM921.42 273.901C921.275 273.78 919.801 272.668 916.707 272.668C915.886 272.668 915.064 272.741 914.267 272.886C914.052 271.616 913.571 270.405 912.854 269.335C912.138 268.264 911.203 267.358 910.11 266.675L909.288 266.192L908.732 266.989C908.057 268.051 907.567 269.219 907.282 270.445C906.702 272.789 907.041 274.988 908.249 276.873C906.918 277.481 905.482 277.826 904.02 277.888H865.837C865.597 277.885 865.358 277.93 865.136 278.019C864.913 278.109 864.71 278.242 864.539 278.411C864.368 278.579 864.233 278.78 864.14 279.002C864.048 279.223 864 279.461 864 279.701C863.962 283.047 864.536 286.372 865.692 289.513C866.727 292.604 868.769 295.259 871.492 297.052C874.343 298.817 878.983 299.808 884.252 299.808C886.62 299.808 888.988 299.614 891.332 299.179C894.577 298.574 897.697 297.43 900.564 295.796C902.93 294.431 905.06 292.692 906.872 290.648C909.892 287.217 911.705 283.398 913.034 280.015H913.59C916.901 280.015 918.931 278.686 920.067 277.598C920.792 276.873 921.396 276.003 921.758 275.037L922 274.36L921.42 273.901Z" fill="#008FE2"/>
</g>
<g clip-path="url(#clip4_102_22)">
<path d="M1018.13 261.137C1013.11 253.968 1003.19 251.843 996.021 256.4L983.426 264.407C981.725 265.474 980.266 266.884 979.142 268.546C978.018 270.208 977.254 272.086 976.899 274.059C976.298 277.383 976.826 280.812 978.399 283.803C977.321 285.434 976.586 287.266 976.238 289.189C975.879 291.202 975.927 293.266 976.378 295.261C976.83 297.255 977.677 299.139 978.868 300.803C983.891 307.973 993.809 310.097 1000.98 305.54L1013.57 297.534C1015.27 296.466 1016.73 295.056 1017.86 293.394C1018.98 291.732 1019.75 289.854 1020.1 287.881C1020.7 284.557 1020.17 281.128 1018.6 278.137C1019.68 276.506 1020.41 274.674 1020.76 272.751C1021.12 270.738 1021.07 268.674 1020.62 266.679C1020.17 264.685 1019.32 262.801 1018.13 261.137Z" fill="#FF3E00"/>
<path d="M994.789 301.485C990.728 302.538 986.44 300.953 984.048 297.514C983.331 296.514 982.822 295.38 982.55 294.18C982.279 292.98 982.25 291.739 982.466 290.528C982.539 290.13 982.639 289.738 982.767 289.354L983.004 288.633L983.649 289.106C985.14 290.198 986.807 291.029 988.578 291.561L989.046 291.703L989.003 292.169C988.945 292.832 989.125 293.494 989.511 294.037C989.862 294.543 990.361 294.929 990.939 295.143C991.517 295.357 992.148 295.389 992.745 295.235C993.018 295.162 993.279 295.047 993.519 294.895L1006.12 286.888C1006.43 286.694 1006.69 286.439 1006.89 286.138C1007.1 285.836 1007.24 285.496 1007.3 285.139C1007.37 284.774 1007.36 284.4 1007.27 284.038C1007.19 283.676 1007.04 283.335 1006.82 283.033C1006.47 282.527 1005.97 282.141 1005.39 281.927C1004.82 281.713 1004.19 281.681 1003.59 281.835C1003.32 281.908 1003.05 282.022 1002.82 282.174L998.008 285.231C997.218 285.732 996.355 286.11 995.45 286.351C991.389 287.404 987.101 285.819 984.71 282.38C983.993 281.379 983.483 280.246 983.212 279.046C982.94 277.846 982.911 276.605 983.127 275.394C983.34 274.207 983.8 273.077 984.476 272.078C985.152 271.078 986.03 270.23 987.054 269.588L999.651 261.58C1000.44 261.078 1001.31 260.699 1002.21 260.458C1006.27 259.405 1010.56 260.99 1012.95 264.429C1013.67 265.429 1014.18 266.563 1014.45 267.763C1014.72 268.963 1014.75 270.204 1014.53 271.415C1014.46 271.813 1014.36 272.205 1014.23 272.589L1014 273.31L1013.35 272.838C1011.86 271.745 1010.19 270.914 1008.42 270.381L1007.95 270.239L1008 269.773C1008.05 269.11 1007.87 268.449 1007.49 267.905C1007.14 267.399 1006.64 267.013 1006.06 266.799C1005.48 266.585 1004.85 266.553 1004.26 266.708C1003.98 266.781 1003.72 266.895 1003.48 267.047L990.883 275.055C990.575 275.249 990.31 275.504 990.107 275.805C989.903 276.106 989.764 276.446 989.7 276.804C989.635 277.169 989.644 277.543 989.725 277.905C989.807 278.266 989.96 278.608 990.176 278.91C990.528 279.416 991.027 279.802 991.605 280.016C992.184 280.23 992.814 280.262 993.411 280.108C993.685 280.035 993.946 279.92 994.185 279.769L998.992 276.713C999.782 276.211 1000.64 275.833 1001.55 275.592C1005.61 274.539 1009.9 276.124 1012.29 279.563C1013.01 280.563 1013.52 281.697 1013.79 282.897C1014.06 284.096 1014.09 285.338 1013.87 286.549C1013.66 287.736 1013.2 288.866 1012.52 289.866C1011.85 290.865 1010.97 291.714 1009.95 292.356L997.349 300.363C996.558 300.865 995.695 301.244 994.789 301.485Z" fill="white"/>
</g>
<g clip-path="url(#clip5_102_22)">
<path d="M1107 258C1098.47 258 1093.13 262.322 1091 270.966C1094.2 266.644 1097.93 265.023 1102.2 266.104C1104.63 266.72 1106.37 268.509 1108.3 270.49C1111.44 273.716 1115.07 277.449 1123 277.449C1131.53 277.449 1136.87 273.127 1139 264.483C1135.8 268.805 1132.07 270.426 1127.8 269.345C1125.37 268.729 1123.63 266.94 1121.7 264.96C1118.56 261.734 1114.93 258 1107 258ZM1091 277.449C1082.47 277.449 1077.13 281.772 1075 290.416C1078.2 286.093 1081.93 284.473 1086.2 285.553C1088.63 286.17 1090.37 287.959 1092.3 289.939C1095.44 293.165 1099.07 296.899 1107 296.899C1115.53 296.899 1120.87 292.577 1123 283.932C1119.8 288.255 1116.07 289.875 1111.8 288.795C1109.37 288.178 1107.63 286.389 1105.7 284.409C1102.56 281.183 1098.93 277.449 1091 277.449Z" fill="url(#paint2_linear_102_22)"/>
</g>
<defs>
<linearGradient id="paint0_linear_102_22" x1="692.301" y1="258.227" x2="666.836" y2="283.778" gradientUnits="userSpaceOnUse">
<stop stop-color="#387EB8"/>
<stop offset="1" stop-color="#366994"/>
</linearGradient>
<linearGradient id="paint1_linear_102_22" x1="676.636" y1="274.482" x2="649.286" y2="300.684" gradientUnits="userSpaceOnUse">
<stop stop-color="#FFE052"/>
<stop offset="1" stop-color="#FFC331"/>
</linearGradient>
<linearGradient id="paint2_linear_102_22" x1="897.208" y1="1502.76" x2="6460.01" y2="4669.05" gradientUnits="userSpaceOnUse">
<stop stop-color="#2298BD"/>
<stop offset="1" stop-color="#0ED7B5"/>
</linearGradient>
<clipPath id="clip0_102_22">
<rect width="73" height="43" fill="white" transform="translate(1180 260)"/>
</clipPath>
<clipPath id="clip1_102_22">
<rect width="60" height="53.2258" fill="white" transform="translate(536 252)"/>
</clipPath>
<clipPath id="clip2_102_22">
<rect width="46" height="51" fill="white" transform="translate(762 254)"/>
</clipPath>
<clipPath id="clip3_102_22">
<rect width="58" height="58" fill="white" transform="translate(864 250)"/>
</clipPath>
<clipPath id="clip4_102_22">
<rect width="45" height="54" fill="white" transform="translate(976 254)"/>
</clipPath>
<clipPath id="clip5_102_22">
<rect width="64" height="39" fill="white" transform="translate(1075 258)"/>
</clipPath>
</defs>
</svg>
