<?xml version="1.0" encoding="UTF-8"?>
<svg xmlns="http://www.w3.org/2000/svg" xmlns:xlink="http://www.w3.org/1999/xlink" width="107px" height="30px" viewBox="0 0 107 30" version="1.1">
<g id="surface1">
<path style=" stroke:none;fill-rule:nonzero;fill:rgb(17.254902%,17.254902%,17.254902%);fill-opacity:1;" d="M 4.191406 0 L 102.808594 0 C 105.125 0 107 1.882812 107 4.207031 L 107 25.792969 C 107 28.117188 105.125 30 102.808594 30 L 4.191406 30 C 1.875 30 0 28.117188 0 25.792969 L 0 4.207031 C 0 1.882812 1.875 0 4.191406 0 Z M 4.191406 0 "/>
<path style="fill-rule:nonzero;fill:rgb(8.627451%,10.588235%,13.333333%);fill-opacity:1;stroke-width:3;stroke-linecap:butt;stroke-linejoin:miter;stroke:rgb(18.823529%,21.176471%,23.921569%);stroke-opacity:1;stroke-miterlimit:4;" d="M 15.002884 1.504688 L 367.997116 1.504688 C 375.44962 1.504688 381.503906 7.53737 381.503906 15.005078 L 381.503906 91.994922 C 381.503906 99.46263 375.44962 105.495313 367.997116 105.495313 L 15.002884 105.495313 C 7.55038 105.495313 1.496094 99.46263 1.496094 91.994922 L 1.496094 15.005078 C 1.496094 7.53737 7.55038 1.504688 15.002884 1.504688 Z M 15.002884 1.504688 " transform="matrix(0.279373,0,0,0.280374,0,0)"/>
<path style=" stroke:none;fill-rule:nonzero;fill:rgb(100%,100%,100%);fill-opacity:1;" d="M 19.445312 17.621094 C 18.550781 17.5625 17.84375 16.816406 17.84375 15.90625 C 17.84375 15.875 17.84375 15.84375 17.847656 15.816406 L 17.847656 15.820312 C 17.84375 15.789062 17.84375 15.757812 17.84375 15.722656 C 17.84375 14.816406 18.550781 14.074219 19.441406 14.019531 L 19.445312 14.019531 C 20.34375 14.066406 21.050781 14.808594 21.050781 15.714844 C 21.050781 15.75 21.050781 15.789062 21.046875 15.824219 L 21.046875 15.820312 C 21.046875 15.847656 21.050781 15.882812 21.050781 15.917969 C 21.050781 16.828125 20.34375 17.570312 19.449219 17.621094 Z M 13.53125 17.621094 C 12.632812 17.5625 11.929688 16.816406 11.929688 15.90625 C 11.929688 15.875 11.929688 15.84375 11.929688 15.816406 L 11.929688 15.820312 C 11.929688 15.789062 11.925781 15.757812 11.925781 15.722656 C 11.925781 14.816406 12.632812 14.074219 13.523438 14.019531 L 13.53125 14.019531 C 14.425781 14.066406 15.132812 14.808594 15.132812 15.714844 C 15.132812 15.75 15.132812 15.789062 15.128906 15.824219 L 15.128906 15.820312 C 15.132812 15.847656 15.132812 15.882812 15.132812 15.914062 C 15.132812 16.824219 14.425781 17.566406 13.535156 17.621094 Z M 22.652344 9.460938 C 21.605469 8.964844 20.390625 8.570312 19.117188 8.34375 L 19.027344 8.332031 C 19.027344 8.332031 19.023438 8.332031 19.019531 8.332031 C 19 8.332031 18.980469 8.339844 18.972656 8.359375 C 18.832031 8.601562 18.679688 8.910156 18.546875 9.222656 L 18.519531 9.289062 C 17.910156 9.191406 17.203125 9.132812 16.484375 9.132812 C 15.765625 9.132812 15.0625 9.191406 14.375 9.296875 L 14.449219 9.289062 C 14.289062 8.914062 14.136719 8.605469 13.96875 8.3125 L 13.992188 8.359375 C 13.980469 8.339844 13.964844 8.328125 13.941406 8.328125 C 13.9375 8.328125 13.9375 8.328125 13.933594 8.332031 C 12.570312 8.570312 11.355469 8.960938 10.21875 9.496094 L 10.308594 9.457031 C 10.296875 9.460938 10.289062 9.46875 10.285156 9.476562 C 8.589844 11.886719 7.578125 14.882812 7.578125 18.113281 C 7.578125 18.65625 7.605469 19.1875 7.660156 19.714844 L 7.65625 19.648438 C 7.65625 19.664062 7.664062 19.679688 7.679688 19.691406 C 8.949219 20.644531 10.425781 21.414062 12.019531 21.917969 L 12.125 21.945312 C 12.128906 21.949219 12.136719 21.949219 12.140625 21.949219 C 12.160156 21.949219 12.175781 21.9375 12.1875 21.925781 C 12.503906 21.496094 12.804688 21.011719 13.066406 20.5 L 13.097656 20.441406 C 13.101562 20.433594 13.101562 20.425781 13.101562 20.414062 C 13.101562 20.390625 13.085938 20.371094 13.066406 20.363281 C 12.523438 20.152344 12.066406 19.929688 11.628906 19.671875 L 11.675781 19.699219 C 11.660156 19.6875 11.648438 19.667969 11.648438 19.648438 C 11.648438 19.628906 11.65625 19.613281 11.667969 19.601562 C 11.761719 19.53125 11.855469 19.460938 11.945312 19.386719 C 11.957031 19.378906 11.96875 19.375 11.980469 19.375 C 11.988281 19.375 11.996094 19.375 12.003906 19.378906 C 13.3125 20.011719 14.851562 20.378906 16.476562 20.378906 C 18.101562 20.378906 19.640625 20.011719 21.015625 19.351562 L 20.949219 19.378906 C 20.957031 19.375 20.964844 19.375 20.972656 19.375 C 20.988281 19.375 21 19.378906 21.007812 19.386719 C 21.097656 19.460938 21.191406 19.535156 21.285156 19.601562 C 21.300781 19.613281 21.308594 19.628906 21.308594 19.648438 C 21.308594 19.671875 21.296875 19.6875 21.28125 19.699219 C 20.886719 19.933594 20.429688 20.15625 19.953125 20.339844 L 19.890625 20.363281 C 19.871094 20.371094 19.855469 20.390625 19.855469 20.414062 C 19.855469 20.425781 19.859375 20.433594 19.863281 20.441406 C 20.160156 21.011719 20.460938 21.496094 20.792969 21.957031 L 20.769531 21.925781 C 20.78125 21.9375 20.796875 21.949219 20.816406 21.949219 C 20.820312 21.949219 20.828125 21.945312 20.832031 21.945312 C 22.535156 21.414062 24.015625 20.644531 25.324219 19.664062 L 25.285156 19.691406 C 25.300781 19.679688 25.308594 19.667969 25.308594 19.648438 C 25.359375 19.183594 25.390625 18.640625 25.390625 18.089844 C 25.390625 14.867188 24.375 11.878906 22.644531 9.433594 L 22.675781 9.480469 C 22.671875 9.46875 22.664062 9.460938 22.652344 9.457031 Z M 22.652344 9.460938 "/>
<path style=" stroke:none;fill-rule:nonzero;fill:rgb(100%,100%,100%);fill-opacity:1;" d="M 36.960938 12.261719 L 36.960938 13.652344 L 32.582031 13.652344 L 32.582031 12.261719 Z M 33.664062 10.429688 L 35.457031 10.429688 L 35.457031 17.605469 C 35.457031 17.847656 35.492188 18.035156 35.566406 18.164062 C 35.644531 18.289062 35.742188 18.375 35.863281 18.421875 C 35.988281 18.46875 36.121094 18.492188 36.269531 18.492188 C 36.382812 18.492188 36.484375 18.484375 36.578125 18.46875 C 36.675781 18.453125 36.746094 18.4375 36.796875 18.421875 L 37.101562 19.832031 C 37.003906 19.863281 36.867188 19.902344 36.6875 19.941406 C 36.511719 19.980469 36.296875 20.003906 36.042969 20.011719 C 35.59375 20.023438 35.1875 19.957031 34.828125 19.808594 C 34.46875 19.65625 34.179688 19.417969 33.96875 19.101562 C 33.761719 18.78125 33.660156 18.382812 33.664062 17.90625 Z M 38.042969 19.90625 L 38.042969 12.261719 L 39.785156 12.261719 L 39.785156 13.535156 L 39.863281 13.535156 C 40.003906 13.09375 40.242188 12.753906 40.578125 12.515625 C 40.917969 12.273438 41.308594 12.152344 41.742188 12.152344 C 41.84375 12.152344 41.953125 12.15625 42.078125 12.164062 C 42.203125 12.171875 42.304688 12.183594 42.390625 12.199219 L 42.390625 13.859375 C 42.3125 13.832031 42.191406 13.808594 42.027344 13.789062 C 41.863281 13.765625 41.707031 13.753906 41.554688 13.753906 C 41.226562 13.753906 40.933594 13.824219 40.671875 13.96875 C 40.414062 14.105469 40.210938 14.300781 40.0625 14.550781 C 39.914062 14.800781 39.839844 15.085938 39.839844 15.410156 L 39.839844 19.90625 Z M 46.222656 20.054688 C 45.457031 20.054688 44.796875 19.898438 44.242188 19.578125 C 43.691406 19.257812 43.265625 18.800781 42.96875 18.214844 C 42.671875 17.625 42.523438 16.929688 42.523438 16.128906 C 42.523438 15.339844 42.671875 14.652344 42.96875 14.058594 C 43.269531 13.460938 43.6875 12.996094 44.226562 12.664062 C 44.765625 12.328125 45.402344 12.160156 46.128906 12.160156 C 46.597656 12.160156 47.039062 12.238281 47.457031 12.390625 C 47.878906 12.539062 48.246094 12.769531 48.570312 13.085938 C 48.890625 13.402344 49.148438 13.804688 49.332031 14.292969 C 49.515625 14.777344 49.609375 15.351562 49.609375 16.023438 L 49.609375 16.574219 L 43.363281 16.574219 L 43.363281 15.363281 L 47.890625 15.363281 C 47.886719 15.015625 47.8125 14.710938 47.664062 14.441406 C 47.519531 14.167969 47.316406 13.953125 47.054688 13.796875 C 46.796875 13.640625 46.496094 13.5625 46.152344 13.5625 C 45.785156 13.5625 45.464844 13.652344 45.1875 13.832031 C 44.90625 14.007812 44.691406 14.242188 44.535156 14.53125 C 44.382812 14.816406 44.304688 15.128906 44.300781 15.472656 L 44.300781 16.53125 C 44.300781 16.976562 44.382812 17.359375 44.546875 17.675781 C 44.707031 17.992188 44.933594 18.234375 45.226562 18.402344 C 45.515625 18.570312 45.855469 18.652344 46.246094 18.652344 C 46.507812 18.652344 46.746094 18.617188 46.957031 18.542969 C 47.167969 18.464844 47.351562 18.355469 47.507812 18.207031 C 47.664062 18.0625 47.78125 17.882812 47.859375 17.667969 L 49.535156 17.855469 C 49.429688 18.300781 49.226562 18.6875 48.929688 19.019531 C 48.636719 19.347656 48.257812 19.605469 47.800781 19.785156 C 47.339844 19.964844 46.8125 20.054688 46.222656 20.054688 Z M 56.730469 14.28125 L 55.09375 14.460938 C 55.050781 14.292969 54.96875 14.136719 54.851562 13.992188 C 54.738281 13.847656 54.585938 13.730469 54.394531 13.640625 C 54.203125 13.550781 53.96875 13.503906 53.691406 13.503906 C 53.316406 13.503906 53.003906 13.585938 52.75 13.75 C 52.496094 13.910156 52.375 14.121094 52.375 14.378906 C 52.375 14.601562 52.453125 14.785156 52.621094 14.921875 C 52.789062 15.0625 53.066406 15.175781 53.453125 15.265625 L 54.753906 15.546875 C 55.472656 15.703125 56.007812 15.949219 56.359375 16.289062 C 56.714844 16.625 56.894531 17.070312 56.894531 17.617188 C 56.894531 18.097656 56.753906 18.523438 56.472656 18.890625 C 56.199219 19.257812 55.816406 19.542969 55.328125 19.746094 C 54.839844 19.953125 54.277344 20.054688 53.640625 20.054688 C 52.710938 20.054688 51.957031 19.859375 51.390625 19.46875 C 50.820312 19.074219 50.480469 18.523438 50.371094 17.820312 L 52.125 17.652344 C 52.203125 17.996094 52.371094 18.257812 52.628906 18.433594 C 52.886719 18.609375 53.222656 18.695312 53.636719 18.695312 C 54.0625 18.695312 54.40625 18.609375 54.664062 18.433594 C 54.925781 18.257812 55.054688 18.039062 55.054688 17.78125 C 55.054688 17.5625 54.972656 17.382812 54.800781 17.238281 C 54.636719 17.09375 54.378906 16.984375 54.027344 16.910156 L 52.730469 16.636719 C 52 16.484375 51.457031 16.226562 51.105469 15.863281 C 50.757812 15.5 50.582031 15.039062 50.585938 14.480469 C 50.582031 14.007812 50.710938 13.601562 50.96875 13.253906 C 51.230469 12.90625 51.589844 12.636719 52.054688 12.449219 C 52.519531 12.257812 53.058594 12.160156 53.667969 12.160156 C 54.558594 12.160156 55.261719 12.351562 55.773438 12.734375 C 56.289062 13.113281 56.609375 13.628906 56.730469 14.28125 Z M 61.785156 19.90625 L 63.453125 9.710938 L 64.84375 9.710938 L 63.175781 19.90625 Z M 57.207031 17.277344 L 57.441406 15.882812 L 65.257812 15.882812 L 65.027344 17.277344 Z M 58.214844 19.90625 L 59.882812 9.710938 L 61.269531 9.710938 L 59.605469 19.90625 Z M 57.800781 13.734375 L 58.027344 12.339844 L 65.84375 12.339844 L 65.617188 13.734375 Z M 70.261719 20.101562 C 69.445312 20.101562 68.746094 19.894531 68.160156 19.476562 C 67.578125 19.058594 67.128906 18.457031 66.816406 17.671875 C 66.503906 16.882812 66.347656 15.929688 66.347656 14.820312 C 66.351562 13.707031 66.511719 12.761719 66.820312 11.980469 C 67.136719 11.199219 67.582031 10.601562 68.164062 10.1875 C 68.75 9.777344 69.449219 9.570312 70.261719 9.570312 C 71.078125 9.570312 71.777344 9.777344 72.363281 10.1875 C 72.945312 10.601562 73.394531 11.199219 73.707031 11.980469 C 74.019531 12.765625 74.175781 13.710938 74.175781 14.820312 C 74.175781 15.933594 74.019531 16.886719 73.707031 17.675781 C 73.394531 18.460938 72.945312 19.0625 72.363281 19.476562 C 71.78125 19.894531 71.082031 20.101562 70.261719 20.101562 Z M 70.261719 18.542969 C 70.898438 18.542969 71.398438 18.230469 71.765625 17.601562 C 72.136719 16.972656 72.320312 16.042969 72.320312 14.820312 C 72.320312 14.007812 72.238281 13.328125 72.070312 12.777344 C 71.898438 12.226562 71.664062 11.8125 71.355469 11.53125 C 71.046875 11.25 70.683594 11.109375 70.261719 11.109375 C 69.632812 11.109375 69.132812 11.425781 68.765625 12.054688 C 68.398438 12.683594 68.214844 13.605469 68.210938 14.820312 C 68.207031 15.632812 68.289062 16.316406 68.453125 16.871094 C 68.621094 17.425781 68.859375 17.84375 69.167969 18.125 C 69.472656 18.402344 69.839844 18.542969 70.261719 18.542969 Z M 79.160156 20.101562 C 78.34375 20.101562 77.644531 19.894531 77.058594 19.476562 C 76.476562 19.058594 76.027344 18.457031 75.714844 17.671875 C 75.402344 16.882812 75.246094 15.929688 75.246094 14.820312 C 75.25 13.707031 75.40625 12.761719 75.71875 11.980469 C 76.03125 11.199219 76.480469 10.601562 77.0625 10.1875 C 77.648438 9.777344 78.347656 9.570312 79.160156 9.570312 C 79.976562 9.570312 80.675781 9.777344 81.257812 10.1875 C 81.84375 10.601562 82.292969 11.199219 82.605469 11.980469 C 82.917969 12.765625 83.074219 13.710938 83.074219 14.820312 C 83.074219 15.933594 82.917969 16.886719 82.605469 17.675781 C 82.292969 18.460938 81.84375 19.0625 81.257812 19.476562 C 80.675781 19.894531 79.976562 20.101562 79.160156 20.101562 Z M 79.160156 18.542969 C 79.796875 18.542969 80.296875 18.230469 80.664062 17.601562 C 81.035156 16.972656 81.21875 16.042969 81.21875 14.820312 C 81.21875 14.007812 81.136719 13.328125 80.96875 12.777344 C 80.796875 12.226562 80.558594 11.8125 80.253906 11.53125 C 79.945312 11.25 79.582031 11.109375 79.160156 11.109375 C 78.53125 11.109375 78.03125 11.425781 77.664062 12.054688 C 77.296875 12.683594 77.109375 13.605469 77.109375 14.820312 C 77.105469 15.632812 77.1875 16.316406 77.351562 16.871094 C 77.519531 17.425781 77.757812 17.84375 78.066406 18.125 C 78.371094 18.402344 78.738281 18.542969 79.160156 18.542969 Z M 88.4375 9.710938 L 88.4375 19.90625 L 86.597656 19.90625 L 86.597656 11.507812 L 86.535156 11.507812 L 84.160156 13.03125 L 84.160156 11.339844 L 86.683594 9.710938 Z M 94.242188 20.046875 C 93.527344 20.046875 92.894531 19.921875 92.335938 19.675781 C 91.785156 19.433594 91.347656 19.089844 91.027344 18.652344 C 90.707031 18.214844 90.535156 17.707031 90.515625 17.132812 L 92.382812 17.132812 C 92.398438 17.410156 92.488281 17.648438 92.65625 17.855469 C 92.820312 18.058594 93.039062 18.214844 93.316406 18.328125 C 93.589844 18.441406 93.898438 18.496094 94.238281 18.496094 C 94.601562 18.496094 94.921875 18.433594 95.203125 18.308594 C 95.484375 18.179688 95.707031 18 95.863281 17.769531 C 96.023438 17.542969 96.101562 17.277344 96.097656 16.980469 C 96.101562 16.671875 96.023438 16.398438 95.859375 16.164062 C 95.699219 15.925781 95.464844 15.742188 95.15625 15.609375 C 94.851562 15.476562 94.484375 15.410156 94.054688 15.410156 L 93.15625 15.410156 L 93.15625 13.988281 L 94.054688 13.988281 C 94.40625 13.988281 94.71875 13.925781 94.980469 13.804688 C 95.25 13.679688 95.460938 13.507812 95.613281 13.285156 C 95.765625 13.058594 95.839844 12.800781 95.835938 12.503906 C 95.839844 12.214844 95.773438 11.964844 95.640625 11.753906 C 95.511719 11.535156 95.328125 11.367188 95.089844 11.25 C 94.855469 11.128906 94.578125 11.070312 94.261719 11.070312 C 93.953125 11.070312 93.664062 11.125 93.398438 11.238281 C 93.132812 11.351562 92.921875 11.511719 92.757812 11.722656 C 92.597656 11.929688 92.511719 12.171875 92.5 12.460938 L 90.730469 12.460938 C 90.742188 11.886719 90.90625 11.386719 91.222656 10.957031 C 91.539062 10.519531 91.960938 10.183594 92.492188 9.941406 C 93.019531 9.695312 93.613281 9.570312 94.273438 9.570312 C 94.949219 9.570312 95.539062 9.699219 96.039062 9.953125 C 96.539062 10.207031 96.929688 10.546875 97.203125 10.976562 C 97.476562 11.402344 97.617188 11.875 97.617188 12.394531 C 97.617188 12.96875 97.449219 13.449219 97.109375 13.839844 C 96.773438 14.226562 96.328125 14.480469 95.78125 14.601562 L 95.78125 14.679688 C 96.496094 14.777344 97.042969 15.042969 97.421875 15.476562 C 97.804688 15.902344 97.996094 16.4375 97.992188 17.074219 C 97.992188 17.644531 97.832031 18.15625 97.507812 18.605469 C 97.1875 19.054688 96.742188 19.40625 96.175781 19.664062 C 95.613281 19.917969 94.96875 20.046875 94.242188 20.046875 Z M 94.242188 20.046875 "/>
</g>
</svg>
