<?xml version="1.0" encoding="UTF-8"?>
<svg xmlns="http://www.w3.org/2000/svg" xmlns:xlink="http://www.w3.org/1999/xlink" width="93px" height="30px" viewBox="0 0 92 30" version="1.1">
<defs>
<clipPath id="clip1">
  <path d="M 7.25 11 L 11 11 L 11 21 L 7.25 21 Z M 7.25 11 "/>
</clipPath>
<clipPath id="clip2">
  <path d="M 7.25 6.167969 L 11 6.167969 L 11 11 L 7.25 11 Z M 7.25 6.167969 "/>
</clipPath>
<clipPath id="clip3">
  <path d="M 12 11 L 22.582031 11 L 22.582031 21 L 12 21 Z M 12 11 "/>
</clipPath>
</defs>
<g id="surface1">
<path style="fill-rule:nonzero;fill:rgb(8.627451%,10.588235%,13.333333%);fill-opacity:1;stroke-width:3;stroke-linecap:butt;stroke-linejoin:miter;stroke:rgb(18.823529%,21.176471%,23.921569%);stroke-opacity:1;stroke-miterlimit:4;" d="M 15.006369 1.504688 L 314.993631 1.504688 C 322.461787 1.504688 328.500764 7.53737 328.500764 15.005078 L 328.500764 91.994922 C 328.500764 99.46263 322.461787 105.495313 314.993631 105.495313 L 15.006369 105.495313 C 7.538213 105.495313 1.499236 99.46263 1.499236 91.994922 L 1.499236 15.005078 C 1.499236 7.53737 7.538213 1.504688 15.006369 1.504688 Z M 15.006369 1.504688 " transform="matrix(0.278788,0,0,0.280374,0,0)"/>
<path style=" stroke:none;fill-rule:nonzero;fill:rgb(100%,100%,100%);fill-opacity:1;" d="M 30.273438 20.1875 L 30.273438 9.992188 L 32.109375 9.992188 L 32.109375 18.640625 L 36.574219 18.640625 L 36.574219 20.1875 Z M 37.671875 20.1875 L 37.671875 12.539062 L 39.464844 12.539062 L 39.464844 20.1875 Z M 38.574219 11.457031 C 38.289062 11.457031 38.042969 11.359375 37.839844 11.171875 C 37.636719 10.980469 37.535156 10.75 37.535156 10.480469 C 37.535156 10.207031 37.636719 9.976562 37.839844 9.789062 C 38.042969 9.59375 38.289062 9.5 38.574219 9.5 C 38.859375 9.5 39.105469 9.59375 39.304688 9.789062 C 39.511719 9.976562 39.613281 10.207031 39.613281 10.480469 C 39.613281 10.75 39.511719 10.980469 39.304688 11.171875 C 39.105469 11.359375 38.859375 11.457031 38.574219 11.457031 Z M 42.679688 15.707031 L 42.679688 20.1875 L 40.886719 20.1875 L 40.886719 12.539062 L 42.601562 12.539062 L 42.601562 13.839844 L 42.691406 13.839844 C 42.863281 13.410156 43.144531 13.070312 43.527344 12.820312 C 43.914062 12.566406 44.390625 12.441406 44.957031 12.441406 C 45.480469 12.441406 45.9375 12.554688 46.328125 12.78125 C 46.722656 13.003906 47.023438 13.332031 47.238281 13.761719 C 47.457031 14.1875 47.5625 14.707031 47.5625 15.316406 L 47.5625 20.1875 L 45.769531 20.1875 L 45.769531 15.597656 C 45.769531 15.085938 45.636719 14.6875 45.371094 14.398438 C 45.113281 14.109375 44.75 13.964844 44.289062 13.964844 C 43.976562 13.964844 43.695312 14.035156 43.453125 14.171875 C 43.210938 14.308594 43.023438 14.507812 42.882812 14.765625 C 42.746094 15.023438 42.679688 15.339844 42.679688 15.707031 Z M 50.597656 17.789062 L 50.59375 15.613281 L 50.878906 15.613281 L 53.613281 12.539062 L 55.707031 12.539062 L 52.34375 16.304688 L 51.972656 16.304688 Z M 48.964844 20.1875 L 48.964844 9.992188 L 50.757812 9.992188 L 50.757812 20.1875 Z M 53.734375 20.1875 L 51.261719 16.707031 L 52.46875 15.4375 L 55.878906 20.1875 Z M 59.535156 20.335938 C 58.773438 20.335938 58.113281 20.175781 57.558594 19.859375 C 57.007812 19.535156 56.585938 19.082031 56.289062 18.496094 C 55.992188 17.902344 55.84375 17.207031 55.84375 16.410156 C 55.84375 15.621094 55.992188 14.929688 56.289062 14.335938 C 56.589844 13.738281 57.007812 13.277344 57.546875 12.945312 C 58.082031 12.609375 58.714844 12.441406 59.441406 12.441406 C 59.910156 12.441406 60.351562 12.515625 60.769531 12.667969 C 61.1875 12.820312 61.554688 13.050781 61.875 13.367188 C 62.199219 13.683594 62.453125 14.082031 62.640625 14.570312 C 62.824219 15.054688 62.914062 15.632812 62.914062 16.304688 L 62.914062 16.855469 L 56.683594 16.855469 L 56.683594 15.640625 L 61.199219 15.640625 C 61.195312 15.296875 61.121094 14.988281 60.976562 14.722656 C 60.832031 14.449219 60.628906 14.234375 60.367188 14.078125 C 60.109375 13.921875 59.808594 13.84375 59.464844 13.84375 C 59.101562 13.84375 58.777344 13.933594 58.5 14.113281 C 58.222656 14.289062 58.007812 14.523438 57.851562 14.808594 C 57.699219 15.097656 57.621094 15.410156 57.621094 15.75 L 57.621094 16.8125 C 57.621094 17.257812 57.699219 17.636719 57.863281 17.957031 C 58.023438 18.273438 58.25 18.515625 58.539062 18.683594 C 58.832031 18.847656 59.171875 18.933594 59.558594 18.933594 C 59.820312 18.933594 60.058594 18.894531 60.269531 18.824219 C 60.480469 18.746094 60.664062 18.636719 60.816406 18.488281 C 60.972656 18.34375 61.089844 18.164062 61.167969 17.945312 L 62.84375 18.136719 C 62.734375 18.582031 62.535156 18.96875 62.238281 19.300781 C 61.945312 19.628906 61.566406 19.886719 61.109375 20.066406 C 60.652344 20.246094 60.125 20.335938 59.535156 20.335938 Z M 66.835938 20.320312 C 66.238281 20.320312 65.703125 20.167969 65.230469 19.859375 C 64.757812 19.550781 64.386719 19.101562 64.113281 18.515625 C 63.839844 17.925781 63.703125 17.214844 63.703125 16.375 C 63.703125 15.523438 63.839844 14.808594 64.117188 14.222656 C 64.398438 13.636719 64.777344 13.191406 65.25 12.894531 C 65.726562 12.589844 66.257812 12.441406 66.839844 12.441406 C 67.285156 12.441406 67.652344 12.515625 67.9375 12.667969 C 68.226562 12.820312 68.453125 13 68.621094 13.210938 C 68.789062 13.421875 68.921875 13.617188 69.011719 13.804688 L 69.085938 13.804688 L 69.085938 9.992188 L 70.882812 9.992188 L 70.882812 20.1875 L 69.121094 20.1875 L 69.121094 18.980469 L 69.011719 18.980469 C 68.921875 19.167969 68.789062 19.367188 68.613281 19.574219 C 68.4375 19.78125 68.207031 19.957031 67.917969 20.101562 C 67.632812 20.25 67.269531 20.320312 66.835938 20.320312 Z M 67.335938 18.84375 C 67.714844 18.84375 68.039062 18.738281 68.304688 18.535156 C 68.574219 18.324219 68.777344 18.035156 68.914062 17.664062 C 69.054688 17.292969 69.121094 16.859375 69.121094 16.363281 C 69.121094 15.867188 69.054688 15.4375 68.914062 15.074219 C 68.777344 14.710938 68.578125 14.425781 68.3125 14.222656 C 68.046875 14.019531 67.722656 13.917969 67.335938 13.917969 C 66.9375 13.917969 66.601562 14.023438 66.335938 14.234375 C 66.066406 14.441406 65.867188 14.730469 65.730469 15.097656 C 65.597656 15.46875 65.527344 15.890625 65.527344 16.363281 C 65.527344 16.839844 65.597656 17.269531 65.730469 17.644531 C 65.871094 18.015625 66.074219 18.308594 66.339844 18.523438 C 66.609375 18.738281 66.941406 18.84375 67.335938 18.84375 Z M 74.292969 9.992188 L 74.292969 20.1875 L 72.453125 20.1875 L 72.453125 9.992188 Z M 77.574219 15.707031 L 77.574219 20.1875 L 75.78125 20.1875 L 75.78125 12.539062 L 77.496094 12.539062 L 77.496094 13.839844 L 77.585938 13.839844 C 77.757812 13.410156 78.039062 13.070312 78.421875 12.820312 C 78.808594 12.566406 79.285156 12.441406 79.851562 12.441406 C 80.375 12.441406 80.832031 12.554688 81.222656 12.78125 C 81.617188 13.003906 81.917969 13.332031 82.132812 13.761719 C 82.351562 14.1875 82.457031 14.707031 82.457031 15.316406 L 82.457031 20.1875 L 80.664062 20.1875 L 80.664062 15.597656 C 80.664062 15.085938 80.53125 14.6875 80.269531 14.398438 C 80.007812 14.109375 79.644531 13.964844 79.183594 13.964844 C 78.871094 13.964844 78.589844 14.035156 78.347656 14.171875 C 78.105469 14.308594 77.917969 14.507812 77.777344 14.765625 C 77.640625 15.023438 77.574219 15.339844 77.574219 15.707031 Z M 77.574219 15.707031 "/>
<g clip-path="url(#clip1)" clip-rule="nonzero">
<path style=" stroke:none;fill-rule:nonzero;fill:rgb(100%,100%,100%);fill-opacity:1;" d="M 10.632812 11.339844 L 7.644531 11.339844 L 7.644531 20.960938 L 10.632812 20.960938 Z M 10.632812 11.339844 "/>
</g>
<g clip-path="url(#clip2)" clip-rule="nonzero">
<path style=" stroke:none;fill-rule:nonzero;fill:rgb(100%,100%,100%);fill-opacity:1;" d="M 9.074219 6.796875 C 7.972656 6.796875 7.25 7.515625 7.25 8.464844 C 7.25 9.398438 7.949219 10.136719 9.035156 10.136719 L 9.058594 10.136719 C 10.183594 10.136719 10.882812 9.394531 10.878906 8.464844 C 10.855469 7.515625 10.175781 6.796875 9.074219 6.796875 Z M 9.074219 6.796875 "/>
</g>
<g clip-path="url(#clip3)" clip-rule="nonzero">
<path style=" stroke:none;fill-rule:nonzero;fill:rgb(100%,100%,100%);fill-opacity:1;" d="M 18.796875 11.25 C 17.082031 11.25 16.011719 12.1875 15.8125 12.851562 L 15.8125 11.339844 L 12.453125 11.339844 C 12.496094 12.140625 12.453125 20.960938 12.453125 20.960938 L 15.8125 20.960938 L 15.8125 15.761719 C 15.8125 15.464844 15.800781 15.175781 15.886719 14.972656 C 16.113281 14.394531 16.609375 13.792969 17.503906 13.792969 C 18.671875 13.792969 19.199219 14.683594 19.199219 15.984375 L 19.199219 20.960938 L 22.585938 20.960938 L 22.585938 15.609375 C 22.585938 12.632812 20.921875 11.25 18.796875 11.25 Z M 18.796875 11.25 "/>
</g>
</g>
</svg>
