<?xml version="1.0" encoding="UTF-8"?>
<svg xmlns="http://www.w3.org/2000/svg" xmlns:xlink="http://www.w3.org/1999/xlink" width="93px" height="30px" viewBox="0 0 92 30" version="1.1">
<g id="surface1">
<path style="fill-rule:nonzero;fill:rgb(8.627451%,10.588235%,13.333333%);fill-opacity:1;stroke-width:3;stroke-linecap:butt;stroke-linejoin:miter;stroke:rgb(18.823529%,21.176471%,23.921569%);stroke-opacity:1;stroke-miterlimit:4;" d="M 15.006369 1.504688 L 314.993631 1.504688 C 322.461787 1.504688 328.500764 7.53737 328.500764 15.005078 L 328.500764 91.994922 C 328.500764 99.46263 322.461787 105.495313 314.993631 105.495313 L 15.006369 105.495313 C 7.538213 105.495313 1.499236 99.46263 1.499236 91.994922 L 1.499236 15.005078 C 1.499236 7.53737 7.538213 1.504688 15.006369 1.504688 Z M 15.006369 1.504688 " transform="matrix(0.278788,0,0,0.280374,0,0)"/>
<path style=" stroke:none;fill-rule:nonzero;fill:rgb(100%,100%,100%);fill-opacity:1;" d="M 26.207031 9.34375 C 25.542969 9.640625 24.820312 9.839844 24.070312 9.933594 C 24.84375 9.46875 25.429688 8.738281 25.703125 7.863281 C 24.984375 8.289062 24.191406 8.601562 23.34375 8.773438 C 22.664062 8.046875 21.695312 7.59375 20.628906 7.59375 C 18.582031 7.59375 16.914062 9.269531 16.914062 11.332031 C 16.914062 11.625 16.941406 11.90625 17.011719 12.183594 C 13.921875 12.027344 11.179688 10.542969 9.351562 8.277344 C 9.03125 8.832031 8.847656 9.46875 8.847656 10.160156 C 8.847656 11.453125 9.503906 12.597656 10.5 13.273438 C 9.894531 13.25 9.320312 13.082031 8.820312 12.804688 L 8.820312 12.847656 C 8.820312 14.660156 10.097656 16.171875 11.800781 16.515625 C 11.492188 16.597656 11.160156 16.648438 10.820312 16.648438 C 10.578125 16.648438 10.347656 16.628906 10.121094 16.585938 C 10.59375 18.070312 11.964844 19.152344 13.589844 19.179688 C 12.316406 20.179688 10.714844 20.777344 8.976562 20.777344 C 8.679688 20.777344 8.382812 20.765625 8.085938 20.730469 C 9.730469 21.789062 11.683594 22.40625 13.78125 22.40625 C 20.621094 22.40625 24.363281 16.707031 24.363281 11.765625 C 24.363281 11.601562 24.363281 11.4375 24.355469 11.28125 C 25.082031 10.75 25.710938 10.09375 26.207031 9.34375 Z M 26.207031 9.34375 "/>
<path style=" stroke:none;fill-rule:nonzero;fill:rgb(100%,100%,100%);fill-opacity:1;" d="M 34.019531 11.257812 L 34.019531 9.710938 L 42.109375 9.710938 L 42.109375 11.257812 L 38.972656 11.257812 L 38.972656 19.90625 L 37.152344 19.90625 L 37.152344 11.257812 Z M 43.867188 19.90625 L 41.71875 12.261719 L 43.546875 12.261719 L 44.882812 17.636719 L 44.953125 17.636719 L 46.316406 12.261719 L 48.125 12.261719 L 49.492188 17.605469 L 49.566406 17.605469 L 50.882812 12.261719 L 52.714844 12.261719 L 50.558594 19.90625 L 48.695312 19.90625 L 47.269531 14.738281 L 47.164062 14.738281 L 45.738281 19.90625 Z M 53.546875 19.90625 L 53.546875 12.261719 L 55.339844 12.261719 L 55.339844 19.90625 Z M 54.449219 11.175781 C 54.164062 11.175781 53.917969 11.082031 53.714844 10.890625 C 53.511719 10.699219 53.40625 10.46875 53.40625 10.199219 C 53.40625 9.925781 53.511719 9.695312 53.714844 9.507812 C 53.917969 9.316406 54.164062 9.21875 54.449219 9.21875 C 54.734375 9.21875 54.980469 9.316406 55.179688 9.507812 C 55.382812 9.695312 55.488281 9.925781 55.488281 10.199219 C 55.488281 10.46875 55.382812 10.699219 55.179688 10.890625 C 54.980469 11.082031 54.734375 11.175781 54.449219 11.175781 Z M 60.558594 12.261719 L 60.558594 13.652344 L 56.1875 13.652344 L 56.1875 12.261719 Z M 57.269531 10.429688 L 59.058594 10.429688 L 59.058594 17.605469 C 59.058594 17.847656 59.097656 18.035156 59.167969 18.164062 C 59.246094 18.289062 59.34375 18.375 59.464844 18.421875 C 59.585938 18.46875 59.722656 18.492188 59.871094 18.492188 C 59.984375 18.492188 60.085938 18.484375 60.179688 18.46875 C 60.273438 18.453125 60.347656 18.4375 60.394531 18.421875 L 60.699219 19.832031 C 60.601562 19.863281 60.464844 19.902344 60.289062 19.941406 C 60.113281 19.980469 59.898438 20.003906 59.644531 20.011719 C 59.195312 20.023438 58.789062 19.957031 58.429688 19.808594 C 58.070312 19.65625 57.785156 19.417969 57.574219 19.101562 C 57.367188 18.78125 57.265625 18.382812 57.269531 17.90625 Z M 65.4375 12.261719 L 65.4375 13.652344 L 61.066406 13.652344 L 61.066406 12.261719 Z M 62.144531 10.429688 L 63.9375 10.429688 L 63.9375 17.605469 C 63.9375 17.847656 63.972656 18.035156 64.046875 18.164062 C 64.121094 18.289062 64.222656 18.375 64.34375 18.421875 C 64.464844 18.46875 64.601562 18.492188 64.75 18.492188 C 64.859375 18.492188 64.964844 18.484375 65.054688 18.46875 C 65.152344 18.453125 65.222656 18.4375 65.273438 18.421875 L 65.574219 19.832031 C 65.480469 19.863281 65.34375 19.902344 65.164062 19.941406 C 64.988281 19.980469 64.773438 20.003906 64.519531 20.011719 C 64.070312 20.023438 63.667969 19.957031 63.308594 19.808594 C 62.949219 19.65625 62.664062 19.417969 62.453125 19.101562 C 62.242188 18.78125 62.140625 18.382812 62.144531 17.90625 Z M 69.800781 20.054688 C 69.039062 20.054688 68.382812 19.898438 67.828125 19.578125 C 67.277344 19.257812 66.851562 18.800781 66.554688 18.214844 C 66.257812 17.625 66.109375 16.929688 66.109375 16.128906 C 66.109375 15.339844 66.257812 14.652344 66.554688 14.058594 C 66.855469 13.460938 67.273438 12.996094 67.8125 12.664062 C 68.347656 12.328125 68.980469 12.160156 69.707031 12.160156 C 70.175781 12.160156 70.617188 12.238281 71.035156 12.390625 C 71.453125 12.539062 71.824219 12.769531 72.144531 13.085938 C 72.464844 13.402344 72.71875 13.804688 72.90625 14.292969 C 73.089844 14.777344 73.183594 15.351562 73.183594 16.023438 L 73.183594 16.574219 L 66.949219 16.574219 L 66.949219 15.363281 L 71.464844 15.363281 C 71.460938 15.015625 71.386719 14.710938 71.242188 14.441406 C 71.097656 14.167969 70.894531 13.953125 70.632812 13.796875 C 70.375 13.640625 70.074219 13.5625 69.730469 13.5625 C 69.367188 13.5625 69.042969 13.652344 68.765625 13.832031 C 68.488281 14.007812 68.273438 14.242188 68.117188 14.53125 C 67.96875 14.816406 67.890625 15.128906 67.886719 15.472656 L 67.886719 16.53125 C 67.886719 16.976562 67.96875 17.359375 68.128906 17.675781 C 68.289062 17.992188 68.515625 18.234375 68.808594 18.402344 C 69.097656 18.570312 69.4375 18.652344 69.828125 18.652344 C 70.085938 18.652344 70.324219 18.617188 70.535156 18.542969 C 70.746094 18.464844 70.929688 18.355469 71.082031 18.207031 C 71.238281 18.0625 71.355469 17.882812 71.433594 17.667969 L 73.109375 17.855469 C 73.003906 18.300781 72.800781 18.6875 72.503906 19.019531 C 72.210938 19.347656 71.835938 19.605469 71.375 19.785156 C 70.917969 19.964844 70.390625 20.054688 69.800781 20.054688 Z M 74.28125 19.90625 L 74.28125 12.261719 L 76.019531 12.261719 L 76.019531 13.535156 L 76.097656 13.535156 C 76.234375 13.09375 76.472656 12.753906 76.808594 12.515625 C 77.148438 12.273438 77.539062 12.152344 77.972656 12.152344 C 78.070312 12.152344 78.183594 12.15625 78.304688 12.164062 C 78.429688 12.171875 78.535156 12.183594 78.617188 12.199219 L 78.617188 13.859375 C 78.539062 13.832031 78.421875 13.808594 78.253906 13.789062 C 78.09375 13.765625 77.9375 13.753906 77.785156 13.753906 C 77.457031 13.753906 77.164062 13.824219 76.902344 13.96875 C 76.644531 14.105469 76.441406 14.300781 76.296875 14.550781 C 76.144531 14.800781 76.074219 15.085938 76.074219 15.410156 L 76.074219 19.90625 Z M 74.28125 19.90625 "/>
</g>
</svg>
