<?xml version="1.0" encoding="UTF-8"?>
<svg xmlns="http://www.w3.org/2000/svg" xmlns:xlink="http://www.w3.org/1999/xlink" width="124px" height="30px" viewBox="0 0 123 30" version="1.1">
<g id="surface1">
<path style=" stroke:none;fill-rule:nonzero;fill:rgb(17.254902%,17.254902%,17.254902%);fill-opacity:1;" d="M 4.183594 0 L 118.816406 0 C 121.125 0 123 1.882812 123 4.207031 L 123 25.792969 C 123 28.117188 121.125 30 118.816406 30 L 4.183594 30 C 1.875 30 0 28.117188 0 25.792969 L 0 4.207031 C 0 1.882812 1.875 0 4.183594 0 Z M 4.183594 0 "/>
<path style="fill-rule:nonzero;fill:rgb(8.627451%,10.588235%,13.333333%);fill-opacity:1;stroke-width:3;stroke-linecap:butt;stroke-linejoin:miter;stroke:rgb(18.823529%,21.176471%,23.921569%);stroke-opacity:1;stroke-miterlimit:4;" d="M 14.999714 1.504688 L 426.000286 1.504688 C 433.451124 1.504688 439.501429 7.53737 439.501429 15.005078 L 439.501429 91.994922 C 439.501429 99.46263 433.451124 105.495313 426.000286 105.495313 L 14.999714 105.495313 C 7.548876 105.495313 1.498571 99.46263 1.498571 91.994922 L 1.498571 15.005078 C 1.498571 7.53737 7.548876 1.504688 14.999714 1.504688 Z M 14.999714 1.504688 " transform="matrix(0.278912,0,0,0.280374,0,0)"/>
<path style=" stroke:none;fill-rule:nonzero;fill:rgb(100%,100%,100%);fill-opacity:1;" d="M 35.515625 11.539062 L 35.515625 9.992188 L 43.605469 9.992188 L 43.605469 11.539062 L 40.472656 11.539062 L 40.472656 20.1875 L 38.648438 20.1875 L 38.648438 11.539062 Z M 43.878906 20.1875 L 43.878906 12.539062 L 45.617188 12.539062 L 45.617188 13.816406 L 45.695312 13.816406 C 45.835938 13.375 46.074219 13.035156 46.410156 12.792969 C 46.75 12.550781 47.136719 12.429688 47.574219 12.429688 C 47.671875 12.429688 47.78125 12.4375 47.90625 12.445312 C 48.03125 12.453125 48.132812 12.464844 48.214844 12.480469 L 48.214844 14.136719 C 48.140625 14.113281 48.019531 14.089844 47.855469 14.070312 C 47.691406 14.046875 47.535156 14.035156 47.382812 14.035156 C 47.058594 14.035156 46.765625 14.105469 46.503906 14.246094 C 46.246094 14.386719 46.042969 14.582031 45.894531 14.832031 C 45.746094 15.078125 45.671875 15.367188 45.671875 15.691406 L 45.671875 20.1875 Z M 52.042969 20.335938 C 51.28125 20.335938 50.621094 20.175781 50.066406 19.859375 C 49.515625 19.535156 49.09375 19.082031 48.792969 18.496094 C 48.496094 17.902344 48.347656 17.207031 48.347656 16.410156 C 48.347656 15.621094 48.496094 14.929688 48.792969 14.335938 C 49.09375 13.738281 49.515625 13.277344 50.050781 12.945312 C 50.589844 12.609375 51.222656 12.441406 51.949219 12.441406 C 52.417969 12.441406 52.859375 12.515625 53.277344 12.667969 C 53.695312 12.820312 54.066406 13.050781 54.386719 13.367188 C 54.710938 13.683594 54.964844 14.082031 55.148438 14.570312 C 55.332031 15.054688 55.425781 15.632812 55.425781 16.304688 L 55.425781 16.855469 L 49.191406 16.855469 L 49.191406 15.640625 L 53.707031 15.640625 C 53.703125 15.296875 53.628906 14.988281 53.484375 14.722656 C 53.339844 14.449219 53.136719 14.234375 52.875 14.078125 C 52.617188 13.921875 52.316406 13.84375 51.972656 13.84375 C 51.609375 13.84375 51.285156 13.933594 51.007812 14.113281 C 50.730469 14.289062 50.515625 14.523438 50.359375 14.808594 C 50.207031 15.097656 50.128906 15.410156 50.128906 15.75 L 50.128906 16.8125 C 50.128906 17.257812 50.207031 17.636719 50.371094 17.957031 C 50.53125 18.273438 50.757812 18.515625 51.046875 18.683594 C 51.339844 18.847656 51.679688 18.933594 52.066406 18.933594 C 52.328125 18.933594 52.566406 18.894531 52.777344 18.824219 C 52.988281 18.746094 53.171875 18.636719 53.328125 18.488281 C 53.480469 18.34375 53.597656 18.164062 53.679688 17.945312 L 55.351562 18.136719 C 55.246094 18.582031 55.042969 18.96875 54.746094 19.300781 C 54.453125 19.628906 54.078125 19.886719 53.617188 20.066406 C 53.160156 20.246094 52.632812 20.335938 52.042969 20.335938 Z M 62.535156 14.5625 L 60.902344 14.742188 C 60.855469 14.574219 60.773438 14.417969 60.660156 14.273438 C 60.546875 14.125 60.394531 14.007812 60.203125 13.917969 C 60.011719 13.828125 59.777344 13.785156 59.5 13.785156 C 59.128906 13.785156 58.8125 13.867188 58.558594 14.027344 C 58.308594 14.191406 58.183594 14.402344 58.1875 14.660156 C 58.183594 14.882812 58.265625 15.0625 58.429688 15.203125 C 58.597656 15.34375 58.875 15.457031 59.261719 15.546875 L 60.558594 15.824219 C 61.28125 15.980469 61.816406 16.230469 62.164062 16.566406 C 62.519531 16.90625 62.695312 17.347656 62.699219 17.898438 C 62.695312 18.378906 62.554688 18.804688 62.277344 19.171875 C 62.003906 19.535156 61.625 19.820312 61.136719 20.027344 C 60.644531 20.234375 60.085938 20.335938 59.449219 20.335938 C 58.519531 20.335938 57.769531 20.140625 57.203125 19.75 C 56.636719 19.355469 56.296875 18.804688 56.1875 18.101562 L 57.933594 17.933594 C 58.015625 18.277344 58.183594 18.539062 58.441406 18.714844 C 58.699219 18.890625 59.035156 18.976562 59.445312 18.976562 C 59.871094 18.976562 60.214844 18.890625 60.472656 18.714844 C 60.730469 18.539062 60.863281 18.320312 60.863281 18.0625 C 60.863281 17.84375 60.777344 17.660156 60.609375 17.519531 C 60.445312 17.375 60.1875 17.265625 59.835938 17.191406 L 58.539062 16.917969 C 57.808594 16.761719 57.269531 16.507812 56.921875 16.144531 C 56.570312 15.78125 56.398438 15.316406 56.398438 14.761719 C 56.398438 14.289062 56.523438 13.882812 56.78125 13.535156 C 57.042969 13.1875 57.402344 12.917969 57.867188 12.730469 C 58.332031 12.535156 58.867188 12.441406 59.476562 12.441406 C 60.367188 12.441406 61.070312 12.632812 61.582031 13.011719 C 62.09375 13.394531 62.414062 13.910156 62.535156 14.5625 Z M 65.550781 9.992188 L 65.550781 20.1875 L 63.757812 20.1875 L 63.757812 9.992188 Z M 70.296875 20.335938 C 69.550781 20.335938 68.910156 20.171875 68.363281 19.84375 C 67.820312 19.515625 67.398438 19.054688 67.097656 18.464844 C 66.800781 17.875 66.652344 17.183594 66.652344 16.394531 C 66.652344 15.605469 66.800781 14.910156 67.097656 14.316406 C 67.398438 13.722656 67.820312 13.261719 68.363281 12.933594 C 68.910156 12.605469 69.550781 12.441406 70.296875 12.441406 C 71.039062 12.441406 71.683594 12.605469 72.226562 12.933594 C 72.773438 13.261719 73.191406 13.722656 73.488281 14.316406 C 73.789062 14.910156 73.941406 15.605469 73.941406 16.394531 C 73.941406 17.183594 73.789062 17.875 73.488281 18.464844 C 73.191406 19.054688 72.773438 19.515625 72.226562 19.84375 C 71.683594 20.171875 71.039062 20.335938 70.296875 20.335938 Z M 70.304688 18.890625 C 70.707031 18.890625 71.042969 18.78125 71.316406 18.558594 C 71.585938 18.332031 71.789062 18.03125 71.917969 17.652344 C 72.054688 17.273438 72.121094 16.851562 72.121094 16.386719 C 72.121094 15.921875 72.054688 15.496094 71.917969 15.117188 C 71.789062 14.738281 71.585938 14.433594 71.316406 14.207031 C 71.042969 13.980469 70.707031 13.871094 70.304688 13.871094 C 69.894531 13.871094 69.550781 13.980469 69.273438 14.207031 C 69.003906 14.433594 68.800781 14.738281 68.667969 15.117188 C 68.535156 15.496094 68.46875 15.921875 68.46875 16.386719 C 68.46875 16.851562 68.535156 17.273438 68.667969 17.652344 C 68.800781 18.03125 69.003906 18.332031 69.273438 18.558594 C 69.550781 18.78125 69.894531 18.890625 70.304688 18.890625 Z M 78.351562 23.214844 C 77.707031 23.214844 77.15625 23.125 76.691406 22.949219 C 76.230469 22.777344 75.859375 22.546875 75.578125 22.253906 C 75.296875 21.960938 75.101562 21.636719 74.992188 21.28125 L 76.609375 20.890625 C 76.679688 21.039062 76.785156 21.1875 76.925781 21.332031 C 77.0625 21.480469 77.25 21.605469 77.484375 21.699219 C 77.722656 21.800781 78.019531 21.851562 78.382812 21.851562 C 78.890625 21.851562 79.3125 21.726562 79.644531 21.476562 C 79.976562 21.230469 80.144531 20.824219 80.144531 20.261719 L 80.144531 18.8125 L 80.054688 18.8125 C 79.960938 19 79.828125 19.191406 79.648438 19.386719 C 79.472656 19.582031 79.242188 19.746094 78.949219 19.878906 C 78.664062 20.011719 78.300781 20.078125 77.867188 20.078125 C 77.28125 20.078125 76.753906 19.941406 76.277344 19.664062 C 75.804688 19.386719 75.429688 18.96875 75.148438 18.417969 C 74.871094 17.867188 74.730469 17.171875 74.730469 16.339844 C 74.730469 15.5 74.871094 14.789062 75.148438 14.214844 C 75.429688 13.632812 75.804688 13.191406 76.28125 12.894531 C 76.757812 12.589844 77.285156 12.441406 77.871094 12.441406 C 78.316406 12.441406 78.683594 12.515625 78.972656 12.667969 C 79.261719 12.820312 79.492188 13 79.664062 13.210938 C 79.835938 13.421875 79.964844 13.617188 80.054688 13.804688 L 80.152344 13.804688 L 80.152344 12.539062 L 81.921875 12.539062 L 81.921875 20.3125 C 81.921875 20.964844 81.765625 21.507812 81.457031 21.933594 C 81.144531 22.363281 80.722656 22.683594 80.183594 22.894531 C 79.644531 23.109375 79.035156 23.214844 78.351562 23.214844 Z M 78.367188 18.664062 C 78.746094 18.664062 79.070312 18.570312 79.335938 18.386719 C 79.605469 18.199219 79.808594 17.933594 79.945312 17.582031 C 80.085938 17.234375 80.152344 16.816406 80.152344 16.328125 C 80.152344 15.847656 80.085938 15.425781 79.945312 15.0625 C 79.8125 14.703125 79.609375 14.421875 79.34375 14.222656 C 79.078125 14.019531 78.753906 13.917969 78.367188 13.917969 C 77.96875 13.917969 77.632812 14.023438 77.367188 14.234375 C 77.097656 14.441406 76.898438 14.730469 76.761719 15.09375 C 76.625 15.457031 76.558594 15.867188 76.558594 16.328125 C 76.558594 16.796875 76.625 17.207031 76.761719 17.558594 C 76.902344 17.90625 77.105469 18.179688 77.371094 18.375 C 77.640625 18.566406 77.972656 18.664062 78.367188 18.664062 Z M 84.445312 20.296875 C 84.144531 20.296875 83.886719 20.191406 83.671875 19.976562 C 83.457031 19.765625 83.351562 19.507812 83.355469 19.203125 C 83.351562 18.902344 83.457031 18.648438 83.671875 18.433594 C 83.886719 18.222656 84.144531 18.117188 84.445312 18.117188 C 84.734375 18.117188 84.988281 18.222656 85.203125 18.433594 C 85.421875 18.648438 85.53125 18.902344 85.535156 19.203125 C 85.53125 19.402344 85.480469 19.585938 85.375 19.753906 C 85.277344 19.917969 85.144531 20.050781 84.980469 20.152344 C 84.820312 20.25 84.640625 20.296875 84.445312 20.296875 Z M 90.285156 20.335938 C 89.527344 20.335938 88.875 20.167969 88.328125 19.832031 C 87.789062 19.5 87.371094 19.035156 87.078125 18.445312 C 86.785156 17.851562 86.640625 17.167969 86.640625 16.394531 C 86.640625 15.617188 86.789062 14.929688 87.085938 14.335938 C 87.382812 13.738281 87.804688 13.277344 88.34375 12.945312 C 88.890625 12.609375 89.53125 12.441406 90.277344 12.441406 C 90.894531 12.441406 91.441406 12.554688 91.914062 12.785156 C 92.394531 13.011719 92.773438 13.332031 93.058594 13.746094 C 93.34375 14.15625 93.503906 14.636719 93.542969 15.1875 L 91.832031 15.1875 C 91.761719 14.820312 91.597656 14.511719 91.335938 14.269531 C 91.078125 14.019531 90.734375 13.894531 90.300781 13.894531 C 89.933594 13.894531 89.613281 13.992188 89.335938 14.191406 C 89.058594 14.390625 88.839844 14.671875 88.6875 15.039062 C 88.535156 15.40625 88.457031 15.847656 88.457031 16.363281 C 88.457031 16.882812 88.535156 17.332031 88.6875 17.707031 C 88.835938 18.078125 89.050781 18.367188 89.324219 18.570312 C 89.601562 18.769531 89.925781 18.867188 90.300781 18.867188 C 90.566406 18.867188 90.800781 18.816406 91.007812 18.71875 C 91.21875 18.617188 91.398438 18.46875 91.539062 18.273438 C 91.679688 18.082031 91.777344 17.847656 91.832031 17.574219 L 93.542969 17.574219 C 93.5 18.113281 93.34375 18.59375 93.070312 19.011719 C 92.792969 19.425781 92.421875 19.753906 91.949219 19.988281 C 91.476562 20.21875 90.921875 20.335938 90.285156 20.335938 Z M 97.914062 20.335938 C 97.171875 20.335938 96.53125 20.171875 95.984375 19.84375 C 95.441406 19.515625 95.015625 19.054688 94.714844 18.464844 C 94.417969 17.875 94.269531 17.183594 94.269531 16.394531 C 94.269531 15.605469 94.417969 14.910156 94.714844 14.316406 C 95.015625 13.722656 95.441406 13.261719 95.984375 12.933594 C 96.53125 12.605469 97.171875 12.441406 97.914062 12.441406 C 98.660156 12.441406 99.300781 12.605469 99.847656 12.933594 C 100.390625 13.261719 100.8125 13.722656 101.109375 14.316406 C 101.410156 14.910156 101.5625 15.605469 101.5625 16.394531 C 101.5625 17.183594 101.410156 17.875 101.109375 18.464844 C 100.8125 19.054688 100.390625 19.515625 99.847656 19.84375 C 99.300781 20.171875 98.660156 20.335938 97.914062 20.335938 Z M 97.925781 18.890625 C 98.328125 18.890625 98.664062 18.78125 98.9375 18.558594 C 99.207031 18.332031 99.40625 18.03125 99.539062 17.652344 C 99.675781 17.273438 99.742188 16.851562 99.742188 16.386719 C 99.742188 15.921875 99.675781 15.496094 99.539062 15.117188 C 99.40625 14.738281 99.207031 14.433594 98.9375 14.207031 C 98.664062 13.980469 98.328125 13.871094 97.925781 13.871094 C 97.511719 13.871094 97.167969 13.980469 96.894531 14.207031 C 96.625 14.433594 96.421875 14.738281 96.285156 15.117188 C 96.15625 15.496094 96.089844 15.921875 96.089844 16.386719 C 96.089844 16.851562 96.15625 17.273438 96.285156 17.652344 C 96.421875 18.03125 96.625 18.332031 96.894531 18.558594 C 97.167969 18.78125 97.511719 18.890625 97.925781 18.890625 Z M 102.664062 20.1875 L 102.664062 12.539062 L 104.378906 12.539062 L 104.378906 13.839844 L 104.464844 13.839844 C 104.625 13.402344 104.886719 13.058594 105.253906 12.8125 C 105.621094 12.566406 106.058594 12.441406 106.566406 12.441406 C 107.082031 12.441406 107.515625 12.566406 107.867188 12.820312 C 108.226562 13.066406 108.476562 13.410156 108.621094 13.839844 L 108.699219 13.839844 C 108.871094 13.414062 109.152344 13.078125 109.550781 12.824219 C 109.957031 12.570312 110.433594 12.441406 110.984375 12.441406 C 111.683594 12.441406 112.253906 12.664062 112.699219 13.109375 C 113.140625 13.550781 113.359375 14.203125 113.359375 15.054688 L 113.359375 20.1875 L 111.5625 20.1875 L 111.5625 15.332031 C 111.5625 14.859375 111.4375 14.511719 111.1875 14.292969 C 110.9375 14.070312 110.628906 13.960938 110.265625 13.960938 C 109.832031 13.960938 109.496094 14.09375 109.25 14.367188 C 109.007812 14.636719 108.890625 14.984375 108.890625 15.417969 L 108.890625 20.1875 L 107.128906 20.1875 L 107.128906 15.257812 C 107.128906 14.863281 107.011719 14.546875 106.773438 14.3125 C 106.539062 14.078125 106.234375 13.960938 105.851562 13.960938 C 105.59375 13.960938 105.363281 14.027344 105.148438 14.160156 C 104.9375 14.289062 104.769531 14.472656 104.644531 14.710938 C 104.519531 14.945312 104.457031 15.222656 104.457031 15.539062 L 104.457031 20.1875 Z M 102.664062 20.1875 "/>
<path style=" stroke:none;fill-rule:nonzero;fill:rgb(100%,100%,100%);fill-opacity:1;" d="M 23.367188 14.410156 C 23.355469 14.410156 23.347656 14.410156 23.335938 14.410156 C 23.277344 14.410156 23.222656 14.414062 23.167969 14.417969 L 23.171875 14.417969 C 23.125 14.421875 23.082031 14.453125 23.070312 14.5 L 22.792969 15.464844 C 22.75 15.585938 22.722656 15.726562 22.722656 15.875 C 22.722656 16.125 22.796875 16.355469 22.921875 16.550781 L 22.917969 16.546875 C 23.121094 16.804688 23.433594 16.972656 23.785156 16.972656 C 23.785156 16.972656 23.789062 16.972656 23.789062 16.972656 L 25.292969 17.066406 C 25.292969 17.066406 25.296875 17.066406 25.296875 17.066406 C 25.339844 17.066406 25.378906 17.089844 25.402344 17.121094 L 25.402344 17.125 C 25.417969 17.148438 25.425781 17.175781 25.425781 17.207031 C 25.425781 17.222656 25.421875 17.238281 25.417969 17.253906 L 25.417969 17.25 C 25.394531 17.320312 25.328125 17.371094 25.253906 17.378906 L 23.683594 17.472656 C 22.738281 17.574219 21.953125 18.1875 21.605469 19.027344 L 21.597656 19.042969 L 21.480469 19.335938 C 21.476562 19.347656 21.476562 19.359375 21.476562 19.371094 C 21.476562 19.414062 21.511719 19.453125 21.558594 19.453125 C 21.558594 19.453125 21.5625 19.453125 21.5625 19.453125 L 26.953125 19.453125 C 27.019531 19.453125 27.070312 19.410156 27.089844 19.351562 L 27.089844 19.347656 C 27.179688 19.035156 27.230469 18.671875 27.234375 18.296875 C 27.226562 16.15625 25.5 14.417969 23.367188 14.417969 Z M 21.113281 18.976562 C 21.160156 18.855469 21.183594 18.714844 21.183594 18.566406 C 21.183594 18.320312 21.113281 18.085938 20.984375 17.894531 L 20.988281 17.898438 C 20.785156 17.636719 20.472656 17.472656 20.125 17.472656 C 20.121094 17.472656 20.121094 17.472656 20.121094 17.472656 L 13.046875 17.378906 C 13.046875 17.378906 13.046875 17.378906 13.042969 17.378906 C 13 17.378906 12.960938 17.355469 12.9375 17.320312 C 12.921875 17.296875 12.914062 17.269531 12.914062 17.238281 C 12.914062 17.222656 12.917969 17.207031 12.921875 17.191406 C 12.945312 17.121094 13.011719 17.070312 13.085938 17.066406 L 20.222656 16.972656 C 21.167969 16.867188 21.949219 16.257812 22.304688 15.417969 L 22.308594 15.402344 L 22.71875 14.332031 C 22.730469 14.308594 22.734375 14.277344 22.734375 14.246094 C 22.734375 14.226562 22.734375 14.210938 22.730469 14.191406 L 22.730469 14.195312 C 22.25 12.089844 20.402344 10.542969 18.195312 10.542969 C 16.164062 10.542969 14.4375 11.855469 13.804688 13.683594 L 13.792969 13.714844 C 13.449219 13.453125 13.011719 13.292969 12.539062 13.292969 C 11.460938 13.292969 10.574219 14.117188 10.460938 15.171875 L 10.460938 15.183594 C 10.453125 15.246094 10.449219 15.320312 10.449219 15.394531 C 10.449219 15.582031 10.472656 15.761719 10.515625 15.933594 L 10.511719 15.917969 C 8.910156 15.964844 7.628906 17.28125 7.628906 18.898438 C 7.628906 18.902344 7.628906 18.902344 7.628906 18.902344 C 7.628906 19.058594 7.640625 19.207031 7.660156 19.355469 L 7.65625 19.335938 C 7.667969 19.40625 7.726562 19.457031 7.796875 19.457031 L 20.851562 19.457031 C 20.929688 19.457031 20.992188 19.402344 21.015625 19.332031 L 21.015625 19.328125 L 21.113281 18.980469 Z M 21.113281 18.976562 "/>
</g>
</svg>
